<?xml version="1.0" standalone="no"?>
<!DOCTYPE svg PUBLIC "-//W3C//DTD SVG 20010904//EN"
 "http://www.w3.org/TR/2001/REC-SVG-20010904/DTD/svg10.dtd">
<svg version="1.0" xmlns="http://www.w3.org/2000/svg"
 width="595.000000pt" height="595.000000pt" viewBox="0 0 595.000000 595.000000"
 preserveAspectRatio="xMidYMid meet">
<metadata>
Created by potrace 1.11, written by Peter Selinger 2001-2013
</metadata>
<g transform="translate(0.000000,595.000000) scale(0.100000,-0.100000)"
fill="#000000" stroke="none">
<path d="M2735 5799 c-244 -22 -527 -85 -741 -164 -55 -20 -175 -74 -269 -120
-456 -223 -842 -564 -1125 -995 -91 -139 -229 -412 -285 -564 -83 -225 -143
-501 -164 -759 -13 -150 -14 -367 -3 -367 4 0 26 19 47 41 78 81 365 285 954
677 1045 698 1340 919 1674 1254 141 143 177 174 230 198 79 35 149 50 241 50
187 0 412 -110 447 -218 7 -23 45 -71 98 -127 108 -112 166 -185 321 -400 173
-240 256 -341 405 -490 280 -281 555 -492 1074 -824 l174 -112 -6 188 c-18
539 -172 1026 -466 1470 -452 685 -1180 1140 -1996 1248 -146 19 -474 27 -610
14z"/>
<path d="M3025 4214 c-605 -409 -1368 -836 -1950 -1094 -345 -153 -701 -273
-873 -296 l-52 -7 0 -48 c0 -26 7 -101 15 -166 150 -1143 986 -2088 2101
-2373 494 -127 1047 -117 1523 26 657 198 1220 626 1588 1207 78 124 208 387
258 520 55 151 100 317 129 477 25 142 53 396 44 405 -2 3 -32 -1 -66 -7 -167
-31 -571 99 -997 321 -436 227 -963 610 -1392 1010 -84 77 -153 141 -155 140
-2 0 -79 -52 -173 -115z m1417 -891 c15 -14 30 -39 33 -54 13 -59 -3 -87 -114
-197 -123 -123 -197 -229 -275 -393 -119 -252 -181 -509 -193 -801 l-6 -146
49 -7 c212 -29 506 -130 656 -226 l33 -21 -51 6 c-58 7 -287 62 -439 105 -55
16 -133 32 -172 36 l-73 6 6 -48 c3 -26 10 -72 15 -102 5 -30 6 -57 3 -60 -3
-3 -24 14 -45 38 -34 38 -69 117 -69 157 0 21 -155 27 -480 20 -587 -13 -1058
-55 -1413 -126 -188 -38 -172 -28 -185 -117 -14 -94 -30 -153 -42 -153 -9 0
-24 63 -36 147 -3 29 -10 53 -15 53 -19 0 -160 -56 -229 -90 -105 -53 -174
-110 -211 -176 -34 -60 -53 -74 -97 -74 -42 0 -82 49 -82 100 0 48 61 142 129
199 100 84 299 185 424 216 15 4 29 10 31 14 5 8 -41 235 -105 515 -101 445
-157 766 -145 828 5 28 20 48 59 82 29 25 64 49 78 54 14 6 193 13 399 17 394
7 895 -4 1330 -30 252 -16 826 -63 847 -70 6 -2 41 40 77 93 36 53 89 123 117
156 81 90 133 104 191 49z"/>
<path d="M3895 2970 c-201 -16 -512 -31 -1040 -50 -596 -22 -903 -36 -1100
-50 -71 -6 -145 -10 -164 -10 l-33 0 6 -47 c4 -27 32 -199 61 -383 57 -349 95
-624 95 -688 0 -20 3 -46 6 -57 l5 -21 107 22 c139 28 290 50 493 71 215 23
1072 24 1299 2 l145 -14 0 195 c1 158 5 220 24 325 39 220 117 459 211 644 16
33 30 63 30 66 0 6 -2 5 -145 -5z"/>
</g>
</svg>
