<?xml version="1.0" encoding="utf-8"?>
<!-- Generator: Adobe Illustrator 15.0.2, SVG Export Plug-In . SVG Version: 6.00 Build 0)  -->
<!DOCTYPE svg PUBLIC "-//W3C//DTD SVG 1.1//EN" "http://www.w3.org/Graphics/SVG/1.1/DTD/svg11.dtd">
<svg version="1.1" id="junglestar" onclick="javascript:location.href='http://revealing.junglestar.org'"
	 xmlns="http://www.w3.org/2000/svg" xmlns:xlink="http://www.w3.org/1999/xlink" x="0px" y="0px" width="1000px" height="1000px"
	 viewBox="0.5 1000.5 1000 1000" enable-background="new 0.5 1000.5 1000 1000" xml:space="preserve">
<path d="M125.941,1840.893c4.216,9.902,8.039,19.51,11.471,28.922c1.471,3.92,2.843,8.039,4.117,12.254
	c1.373,4.217,2.55,8.334,3.628,12.451c1.078,4.02,1.961,7.941,2.646,11.666c0.687,3.727,0.98,6.961,0.98,9.805
	c0,5.783-1.274,10.49-3.921,14.314c-2.647,3.725-5.883,6.764-9.706,8.92c-3.922,2.158-8.138,3.727-12.844,4.609
	c-4.705,0.881-9.02,1.371-13.039,1.371c-3.529,0-7.353-0.588-11.274-1.666s-8.039-3.039-12.255-5.785
	c-4.216-2.744-8.529-6.371-12.843-10.98c-4.313-4.607-8.529-10.195-12.647-16.959l28.823-10.295c5.196,8.334,10,14.51,14.412,18.627
	s9.216,6.178,14.412,6.178c0.98,0,1.372-1.275,1.078-3.824s-0.98-5.883-1.961-10c-1.078-4.117-2.451-8.727-4.117-13.824
	c-1.667-5.098-3.432-10.293-5.294-15.588c-1.863-5.293-3.726-10.393-5.589-15.195c-1.862-4.805-3.431-9.02-4.706-12.451
	L125.941,1840.893L125.941,1840.893z M236.432,1837.166c1.471,5.098,2.745,10.588,3.823,16.568
	c0.883,5.197,1.667,11.178,2.354,17.941c0.686,6.766,0.882,14.119,0.686,21.863c-0.195,7.059-1.078,13.922-2.549,20.49
	s-3.823,12.354-7.059,17.354s-7.549,8.922-12.843,11.861c-5.295,2.941-11.961,4.217-20,3.922
	c-8.138-0.293-15.099-1.961-21.079-4.902c-5.98-2.939-10.98-6.861-15-11.764s-7.353-10.49-9.804-16.863
	c-2.549-6.373-4.412-13.039-5.784-20.098c-1.373-7.059-2.157-14.314-2.451-21.666c-0.294-7.451-0.294-14.609-0.098-21.568
	l35.195-1.178c0,14.412,0.589,26.078,1.766,35.098c1.176,9.02,2.549,16.08,4.215,21.08c1.667,5,3.432,8.529,5.393,10.391
	c1.961,1.863,3.726,2.746,5.393,2.746c3.333,0.098,5.686-2.059,7.059-6.373c1.372-4.412,2.255-10.98,2.549-19.805
	c0.196-5.49-0.098-11.078-0.883-16.764c-0.784-5.588-1.568-10.785-2.549-15.393c-1.078-5.393-2.353-10.588-3.627-15.49
	L236.432,1837.166z M343.687,1945.107h-32.549l-30.883-36.176l1.373,36.176h-30.883c-0.294-12.451-0.784-24.51-1.372-35.98
	c-0.196-4.803-0.49-9.803-0.883-15c-0.294-5.195-0.687-10.195-1.078-15c-0.393-4.803-0.883-9.412-1.373-13.725
	c-0.49-4.314-0.98-8.039-1.568-11.178l26.961-4.705l39.216,52.354c-0.687-5.98-1.373-12.059-2.157-18.432
	c-0.687-5.393-1.471-11.471-2.353-18.039c-0.883-6.668-1.863-13.236-2.844-19.902l34.216-4.902
	c0.785,5.49,1.471,11.275,1.961,17.256c0.589,5.98,0.98,11.861,1.373,17.842c0.392,5.883,0.687,11.766,0.98,17.451
	c0.294,5.785,0.49,11.178,0.784,16.373C343.295,1921.48,343.49,1933.441,343.687,1945.107z M441.824,1875.893v77.156l-33.04,12.646
	v-19.117c-2.45,0-5.686-0.195-9.804-0.686c-4.117-0.49-8.529-1.275-13.235-2.648c-4.705-1.273-9.51-3.137-14.313-5.588
	s-9.216-5.588-13.039-9.607c-3.922-4.02-7.059-8.922-9.607-14.705c-2.55-5.785-3.726-12.746-3.726-20.883
	c0-8.236,1.568-15.588,4.804-22.156c3.235-6.57,7.549-12.158,12.843-16.668s11.373-7.842,18.138-10
	c6.765-2.156,13.627-3.039,20.687-2.549c6.96,0.49,13.823,2.549,20.49,6.078c6.666,3.529,12.646,8.727,17.843,15.588l-32.843,14.51
	c-1.177-2.156-2.745-4.117-4.706-5.881c-1.569-1.568-3.529-2.941-5.883-4.217c-2.353-1.273-5.098-1.861-8.137-1.861
	c-3.138,0-5.49,0.783-7.157,2.352s-2.843,3.432-3.627,5.49c-0.785,2.059-1.177,4.217-1.373,6.373
	c-0.098,2.156-0.196,3.725-0.196,4.705c0,11.275,2.745,20.295,8.235,27.059c5.49,6.766,13.726,10.785,24.608,12.158v-18.334h-16.471
	l8.333-14.312L441.824,1875.893z M478.49,1845.01c1.569,10.883,2.745,20.98,3.628,30.295c0.882,9.312,1.471,17.449,1.961,24.41
	c0.49,8.139,0.784,15.59,0.98,22.451l39.02-0.98l14.706,24.02l-66.373,4.707l-23.529-16.178c1.078-14.117,1.177-28.92,0.196-44.705
	c-0.98-15.686-2.451-31.176-4.314-46.373c4.706,0.49,9.216,0.883,13.53,1.178c3.627,0.293,7.353,0.588,11.176,0.881
	C473.099,1844.814,476.138,1845.01,478.49,1845.01z M603.295,1920.107l-6.177,25l-10.883-0.883
	c-3.234-0.195-6.862-0.391-10.98-0.588c-4.117-0.195-8.234-0.293-12.353-0.293c-2.157,0-4.901,0.098-8.235,0.293
	c-3.432,0.197-6.765,0.393-10.098,0.588c-3.922,0.295-7.941,0.59-12.157,0.883c0-14.607-1.177-29.51-3.627-44.607
	c-2.451-15.098-6.765-29.51-12.844-43.236l23.333-16.764l61.961,11.471l-20.686,17.941l-26.863-2.059
	c0.49,1.078,0.883,2.451,1.373,4.02c0.784,2.744,1.765,6.961,3.039,12.646h32.745l-8.138,18.725h-21.862
	c0.196,2.256,0.49,4.609,0.687,6.961c0.195,2.354,0.392,5,0.49,7.746L603.295,1920.107z M607.314,1906.48
	c3.627,2.744,7.353,5.098,10.98,7.059c3.137,1.766,6.372,3.432,9.706,4.902c3.431,1.471,6.47,2.156,9.215,2.156
	c2.157,0,3.726-0.588,4.706-1.666c1.078-1.078,1.568-2.158,1.568-3.236s-0.784-2.156-2.353-3.137s-3.628-2.059-6.373-3.334
	c-2.646-1.273-5.784-2.842-9.215-4.607c-3.529-1.764-7.157-3.922-11.079-6.666c-3.235-2.059-5.784-4.02-7.646-5.98
	c-1.863-1.961-3.334-4.02-4.412-6.078s-1.765-4.314-2.059-6.668c-0.294-2.352-0.49-5-0.49-7.744c0-3.529,0.784-6.961,2.353-10.49
	c1.569-3.529,3.824-6.666,6.961-9.412c3.039-2.844,6.863-5.098,11.373-6.863c4.51-1.764,9.804-2.646,15.686-2.646
	c5.49,0,10.49,0.883,15.196,2.549c4.706,1.668,8.823,3.529,12.353,5.393c4.118,2.354,7.844,5,11.373,7.941l-12.549,21.273
	c-3.138-1.764-6.177-3.43-9.216-4.9c-2.549-1.275-5.294-2.354-8.039-3.432c-2.844-1.078-5.294-1.568-7.451-1.568
	c-2.255,0-3.823,0.49-4.902,1.568c-1.078,1.078-1.568,2.156-1.568,3.137c0,2.256,1.667,4.412,4.902,6.471s7.843,4.412,13.726,6.961
	c8.039,3.334,14.02,7.451,18.039,12.354c4.02,4.803,5.98,10.783,5.98,17.744c0,5.098-0.883,9.412-2.647,12.941
	s-4.313,6.373-7.549,8.627c-3.235,2.158-7.059,3.824-11.568,4.805s-9.412,1.568-14.706,1.568c-4.902,0-9.51-0.588-13.922-1.666
	c-4.412-1.08-8.529-2.549-12.353-4.119c-3.824-1.666-7.255-3.43-10.294-5.293c-3.04-1.961-5.687-3.627-7.941-5.197L607.314,1906.48z
	 M757.021,1869.127l-33.334,6.961c0,2.354,0.098,5.098,0.393,8.236c0.294,3.137,0.686,6.371,1.176,9.9s0.98,7.061,1.569,10.785
	c0.588,3.725,1.177,7.354,1.862,10.785c1.471,8.234,3.138,16.764,5,25.49l-31.862,6.371c-1.863-6.764-3.529-13.922-4.902-21.568
	c-1.372-7.646-2.549-14.705-3.627-21.273c-1.177-7.648-2.255-15.1-3.138-22.451l-29.216,4.9l1.961-24.51l94.02-19.41v25.783H757.021
	z M806.628,1954.715c-0.588-2.059-1.177-4.41-1.961-7.059c-0.687-2.254-1.471-5-2.353-8.234c-0.883-3.236-1.863-6.766-3.04-10.688
	l-20.686,2.844c-0.883,2.941-1.765,5.588-2.549,7.941c-0.883,2.354-1.569,4.117-2.06,5.393h-28.823
	c4.117-10.393,7.745-20.49,10.883-30.393c3.137-9.902,5.686-19.117,7.745-27.549c2.059-8.432,3.627-15.883,4.607-22.354
	s1.471-11.568,1.471-15.293l24.216-10.295c5.882,11.275,11.568,22.941,16.961,35.098c2.353,5.197,4.705,10.785,7.156,16.766
	s4.805,12.059,7.157,18.432c2.353,6.273,4.51,12.744,6.568,19.312s3.823,13.137,5.393,19.707L806.628,1954.715L806.628,1954.715z
	 M793.49,1910.5c-0.882-2.354-1.765-4.607-2.646-6.863l-2.647-6.471c-0.294,1.373-0.687,2.844-1.177,4.412
	c-0.294,1.373-0.686,2.941-1.176,4.707c-0.49,1.764-0.98,3.725-1.471,5.783L793.49,1910.5L793.49,1910.5z M902.511,1946.773
	l-31.177-32.449c0.49,2.744,0.882,5.49,1.274,8.332c0.393,2.844,0.687,5.49,0.882,7.844c0.295,2.844,0.589,5.49,0.687,7.941
	l-33.137,8.822c-1.079-8.332-2.255-16.861-3.432-25.686s-2.451-17.354-4.02-25.783c-1.471-8.432-3.235-16.373-5.294-24.021
	c-1.961-7.646-4.412-14.607-7.157-20.783l26.471-15.686c3.627,1.959,7.745,3.725,12.353,5.49c4.51,1.764,9.216,3.529,13.824,5.488
	c4.705,1.961,9.216,4.021,13.627,6.275c4.412,2.256,8.432,4.805,11.862,7.646c3.432,2.844,6.177,6.178,8.334,10
	c2.156,3.727,3.137,8.039,3.137,12.941c0,5.197-0.98,9.314-2.94,12.451c-1.961,3.137-4.51,5.883-7.745,8.137l40.686,41.178
	L902.511,1946.773L902.511,1946.773z M882.706,1884.814c0-3.334-1.274-6.178-3.726-8.432c-2.549-2.256-5.294-4.119-8.235-5.588
	c-3.529-1.668-7.549-3.041-11.862-4.021c0.784,2.061,1.568,4.021,2.255,5.98c0.687,1.961,1.373,4.02,2.059,6.08
	c0.687,2.059,1.373,4.312,1.961,6.764c0.687,2.451,1.373,5.098,1.961,8.039c1.666,0.098,3.432,0.098,5.196,0s3.431-0.49,5-0.98
	c1.568-0.588,2.843-1.471,3.823-2.744C882.216,1888.637,882.706,1886.971,882.706,1884.814z"/>
</svg>
