<svg xmlns="http://www.w3.org/2000/svg" onclick="javascript:location.href='http://revealing.junglestar.org'" viewBox=".5 1000.5 1000 1000">

  <path
    class="one"
    d="M125.2 1853.25c4.2 9.9 8 19.5 11.5 28.9 1.5 3.9 2.8 8 4.1 12.3 1.4 4.2 2.5 8.3 3.6 12.5 1.1 4 2 7.898 2.6 11.7.7 3.698 1 7 1 9.8 0 5.8-1.3 10.5-3.9 14.3-2.6 3.7-5.9 6.8-9.7 8.9-3.9 2.198-8.1 3.698-12.8 4.6-4.7.9-9 1.4-13 1.4-3.5 0-7.4-.6-11.3-1.7-3.9-1.102-8-3-12.3-5.8-4.2-2.7-8.5-6.4-12.8-11-4.3-4.6-8.5-10.2-12.6-17l28.8-10.302c5.2 8.302 10 14.5 14.4 18.6 4.4 4.103 9.2 6.202 14.4 6.202 1 0 1.4-1.302 1.1-3.802s-1-5.9-2-10c-1.1-4.1-2.5-8.698-4.1-13.8-1.7-5.1-3.4-10.3-5.3-15.6-1.9-5.3-3.7-10.4-5.6-15.2s-3.4-9-4.7-12.5l28.6-12.498zm110.5-3.7c1.5 5.102 2.7 10.602 3.8 16.602.9 5.198 1.7 11.198 2.4 17.9.7 6.798.9 14.1.7 21.897-.2 7.1-1.1 13.898-2.5 20.5-1.4 6.6-3.8 12.398-7.1 17.398s-7.5 8.9-12.8 11.9c-5.3 2.9-12 4.2-20 3.9-8.1-.302-15.1-2-21.1-4.9s-11-6.9-15-11.8-7.4-10.5-9.8-16.9c-2.5-6.398-4.4-13-5.8-20.1-1.4-7.102-2.2-14.3-2.5-21.7-.3-7.5-.3-14.6-.1-21.6l35.2-1.2c0 14.398.6 26.1 1.8 35.1 1.2 9 2.5 16.102 4.2 21.102 1.7 5 3.4 8.5 5.4 10.4 2 1.897 3.7 2.698 5.4 2.698 3.3.1 5.7-2.1 7.1-6.4 1.4-4.4 2.3-11 2.5-19.8.2-5.5-.1-11.1-.9-16.8-.8-5.6-1.6-10.8-2.5-15.4-1.1-5.4-2.4-10.6-3.6-15.5l35.2-7.297zm107.3 107.9h-32.5l-30.9-36.2 1.4 36.2h-30.9c-.3-12.5-.8-24.5-1.4-36-.2-4.8-.5-9.8-.9-15-.3-5.2-.7-10.2-1.1-15-.4-4.8-.9-9.4-1.4-13.7s-1-8-1.6-11.2l27-4.7 39.2 52.4c-.7-6-1.4-12.1-2.2-18.4-.7-5.4-1.5-11.5-2.4-18-.9-6.698-1.9-13.198-2.8-19.9l34.2-4.897c.8 5.5 1.5 11.3 2 17.3.6 6 1 11.9 1.4 17.8.4 5.9.7 11.802 1 17.5.3 5.802.5 11.2.8 16.4.7 11.797.9 23.697 1.1 35.396zm98.1-69.2v77.2l-33 12.6v-19.1c-2.5 0-5.7-.2-9.8-.7s-8.5-1.3-13.2-2.6c-4.7-1.302-9.5-3.1-14.3-5.6s-9.2-5.603-13-9.603c-3.9-4-7.1-8.898-9.6-14.7s-3.7-12.698-3.7-20.9c0-8.197 1.6-15.6 4.8-22.197 3.2-6.6 7.5-12.2 12.8-16.7s11.4-7.8 18.1-10c6.8-2.2 13.6-3 20.7-2.5 7 .5 13.8 2.5 20.5 6.1 6.7 3.5 12.6 8.7 17.8 15.602l-32.8 14.5c-1.2-2.2-2.7-4.1-4.7-5.9-1.6-1.6-3.5-2.9-5.9-4.2-2.4-1.3-5.1-1.898-8.1-1.898-3.1 0-5.5.8-7.2 2.4-1.7 1.6-2.8 3.4-3.6 5.5-.8 2.1-1.2 4.198-1.4 6.4-.1 2.198-.2 3.698-.2 4.698 0 11.3 2.7 20.3 8.2 27.1 5.5 6.8 13.7 10.8 24.6 12.2v-18.3h-16.5l8.3-14.302 41.2-15.1zm36.7-30.9c1.6 10.9 2.7 21 3.6 30.302.9 9.3 1.5 17.4 2 24.4.5 8.1.8 15.6 1 22.5l39-1 14.7 24-66.4 4.698-23.5-16.2c1.1-14.1 1.2-28.898.2-44.7-1-15.698-2.5-31.198-4.3-46.4 4.7.5 9.2.9 13.5 1.202 3.6.3 7.4.6 11.2.9 3.598.098 6.598.298 9 .298zm124.8 75.1l-6.2 25-10.9-.9c-3.2-.2-6.9-.398-11-.6-4.1-.2-8.2-.3-12.4-.3-2.2 0-4.897.1-8.2.3-3.397.2-6.8.398-10.1.6-3.9.3-7.9.602-12.2.9 0-14.602-1.2-29.5-3.6-44.602-2.5-15.1-6.8-29.5-12.8-43.198l23.3-16.802 62 11.5-20.7 17.9-26.9-2.1c.5 1.1.9 2.5 1.4 4 .8 2.698 1.8 7 3 12.6H590l-8.102 18.7h-21.9c.2 2.3.5 4.6.7 7 .2 2.398.4 5 .5 7.7l41.4 2.3zm4-13.6c3.6 2.7 7.4 5.1 11 7.1 3.1 1.802 6.4 3.4 9.7 4.9 3.4 1.5 6.5 2.2 9.2 2.2 2.2 0 3.7-.6 4.7-1.7 1.1-1.1 1.6-2.198 1.6-3.198s-.8-2.2-2.4-3.1c-1.6-.9-3.6-2.103-6.4-3.302-2.6-1.3-5.8-2.8-9.2-4.6-3.5-1.802-7.2-3.9-11.1-6.7-3.2-2.102-5.8-4-7.6-6-1.9-2-3.3-4-4.4-6.102-1.1-2.1-1.8-4.3-2.1-6.698-.3-2.4-.5-5-.5-7.7 0-3.5.8-7 2.4-10.5 1.6-3.5 3.8-6.7 7-9.4 3-2.8 6.897-5.1 11.397-6.898 4.5-1.8 9.802-2.6 15.7-2.6 5.5 0 10.5.9 15.2 2.5 4.7 1.698 8.8 3.5 12.4 5.4 4.1 2.396 7.8 5 11.398 7.896l-12.5 21.302c-3.1-1.802-6.2-3.4-9.2-4.9-2.5-1.3-5.3-2.4-8-3.4-2.8-1.1-5.3-1.6-7.5-1.6-2.3 0-3.8.5-4.898 1.6-1.102 1.103-1.602 2.2-1.602 3.103 0 2.3 1.7 4.397 4.9 6.5 3.2 2.1 7.8 4.397 13.7 7 8 3.3 14 7.5 18 12.397 4 4.802 6 10.802 6 17.7 0 5.102-.9 9.4-2.6 12.9-1.7 3.5-4.302 6.398-7.5 8.6-3.2 2.2-7.102 3.8-11.602 4.8s-9.4 1.603-14.7 1.603c-4.898 0-9.5-.603-13.898-1.7-4.4-1.1-8.5-2.5-12.4-4.1-3.8-1.7-7.3-3.4-10.3-5.303-3-2-5.7-3.6-7.9-5.198l14.004-22.802zm149.7-37.4l-33.3 7c0 2.398.1 5.1.397 8.2.302 3.1.7 6.4 1.2 9.9s1 7.1 1.602 10.798c.6 3.7 1.197 7.4 1.897 10.802 1.5 8.198 3.102 16.8 5 25.5l-31.898 6.4c-1.9-6.802-3.5-13.9-4.9-21.603-1.4-7.6-2.5-14.7-3.6-21.3-1.2-7.6-2.303-15.1-3.103-22.5l-29.2 4.9 2-24.5 94-19.4-.098 25.802zm49.598 85.6c-.6-2.1-1.198-4.398-2-7.1-.698-2.3-1.5-5-2.398-8.2-.9-3.2-1.9-6.8-3-10.7l-20.7 2.8c-.9 2.9-1.8 5.6-2.5 7.9-.9 2.4-1.6 4.1-2.1 5.4h-28.802c4.102-10.4 7.7-20.5 10.9-30.4 3.1-9.9 5.7-19.1 7.7-27.5 2.1-8.4 3.6-15.9 4.6-22.4s1.5-11.6 1.5-15.3l24.2-10.3c5.9 11.3 11.6 22.9 17 35.1 2.4 5.2 4.7 10.802 7.2 16.802s4.8 12.1 7.2 18.4c2.398 6.298 4.5 12.698 6.6 19.298 2.1 6.603 3.8 13.1 5.4 19.7l-30.8 6.5zm-13.1-44.2c-.9-2.4-1.8-4.6-2.6-6.9l-2.6-6.5c-.3 1.4-.7 2.802-1.2 4.4-.3 1.4-.7 2.9-1.2 4.7-.5 1.8-1 3.7-1.5 5.8l9.1-1.5zm109 36.3l-31.2-32.4c.5 2.7.9 5.5 1.3 8.3.4 2.8.7 5.5.9 7.8.3 2.802.6 5.5.7 7.9l-33.1 8.8c-1.1-8.3-2.3-16.898-3.4-25.7-1.1-8.8-2.5-17.397-4-25.8-1.5-8.4-3.2-16.398-5.3-24-2-7.6-4.4-14.6-7.2-20.8l26.5-15.7c3.6 2 7.7 3.7 12.4 5.5 4.5 1.8 9.2 3.5 13.8 5.5 4.7 2 9.2 4 13.6 6.3 4.4 2.302 8.4 4.802 11.9 7.603 3.4 2.8 6.2 6.2 8.3 10 2.2 3.7 3.1 8 3.1 12.897 0 5.2-1 9.302-2.897 12.5-2 3.103-4.5 5.9-7.7 8.103l40.7 41.2-38.4 1.997zm-19.8-62c0-3.302-1.3-6.2-3.7-8.4-2.5-2.3-5.3-4.1-8.2-5.6-3.5-1.7-7.5-3-11.897-4 .8 2.1 1.6 4 2.3 6s1.4 4 2.1 6.1 1.4 4.3 2 6.8c.7 2.5 1.4 5.102 2 8 1.7.102 3.4.102 5.2 0 1.8-.1 3.4-.5 5-1 1.6-.6 2.8-1.5 3.8-2.7.9-1.4 1.4-3 1.4-5.2z"
  />

    <path
      class="two"
      d="M125.2 1853.25c4.2 9.9 8 19.5 11.5 28.9 1.5 3.9 2.8 8 4.1 12.3 1.4 4.2 2.5 8.3 3.6 12.5 1.1 4 2 7.898 2.6 11.7.7 3.698 1 7 1 9.8 0 5.8-1.3 10.5-3.9 14.3-2.6 3.7-5.9 6.8-9.7 8.9-3.9 2.198-8.1 3.698-12.8 4.6-4.7.9-9 1.4-13 1.4-3.5 0-7.4-.6-11.3-1.7-3.9-1.102-8-3-12.3-5.8-4.2-2.7-8.5-6.4-12.8-11-4.3-4.6-8.5-10.2-12.6-17l28.8-10.302c5.2 8.302 10 14.5 14.4 18.6 4.4 4.103 9.2 6.202 14.4 6.202 1 0 1.4-1.302 1.1-3.802s-1-5.9-2-10c-1.1-4.1-2.5-8.698-4.1-13.8-1.7-5.1-3.4-10.3-5.3-15.6-1.9-5.3-3.7-10.4-5.6-15.2s-3.4-9-4.7-12.5l28.6-12.498zm110.5-3.7c1.5 5.102 2.7 10.602 3.8 16.602.9 5.198 1.7 11.198 2.4 17.9.7 6.798.9 14.1.7 21.897-.2 7.1-1.1 13.898-2.5 20.5-1.4 6.6-3.8 12.398-7.1 17.398s-7.5 8.9-12.8 11.9c-5.3 2.9-12 4.2-20 3.9-8.1-.302-15.1-2-21.1-4.9s-11-6.9-15-11.8-7.4-10.5-9.8-16.9c-2.5-6.398-4.4-13-5.8-20.1-1.4-7.102-2.2-14.3-2.5-21.7-.3-7.5-.3-14.6-.1-21.6l35.2-1.2c0 14.398.6 26.1 1.8 35.1 1.2 9 2.5 16.102 4.2 21.102 1.7 5 3.4 8.5 5.4 10.4 2 1.897 3.7 2.698 5.4 2.698 3.3.1 5.7-2.1 7.1-6.4 1.4-4.4 2.3-11 2.5-19.8.2-5.5-.1-11.1-.9-16.8-.8-5.6-1.6-10.8-2.5-15.4-1.1-5.4-2.4-10.6-3.6-15.5l35.2-7.297zm107.3 107.9h-32.5l-30.9-36.2 1.4 36.2h-30.9c-.3-12.5-.8-24.5-1.4-36-.2-4.8-.5-9.8-.9-15-.3-5.2-.7-10.2-1.1-15-.4-4.8-.9-9.4-1.4-13.7s-1-8-1.6-11.2l27-4.7 39.2 52.4c-.7-6-1.4-12.1-2.2-18.4-.7-5.4-1.5-11.5-2.4-18-.9-6.698-1.9-13.198-2.8-19.9l34.2-4.897c.8 5.5 1.5 11.3 2 17.3.6 6 1 11.9 1.4 17.8.4 5.9.7 11.802 1 17.5.3 5.802.5 11.2.8 16.4.7 11.797.9 23.697 1.1 35.396zm98.1-69.2v77.2l-33 12.6v-19.1c-2.5 0-5.7-.2-9.8-.7s-8.5-1.3-13.2-2.6c-4.7-1.302-9.5-3.1-14.3-5.6s-9.2-5.603-13-9.603c-3.9-4-7.1-8.898-9.6-14.7s-3.7-12.698-3.7-20.9c0-8.197 1.6-15.6 4.8-22.197 3.2-6.6 7.5-12.2 12.8-16.7s11.4-7.8 18.1-10c6.8-2.2 13.6-3 20.7-2.5 7 .5 13.8 2.5 20.5 6.1 6.7 3.5 12.6 8.7 17.8 15.602l-32.8 14.5c-1.2-2.2-2.7-4.1-4.7-5.9-1.6-1.6-3.5-2.9-5.9-4.2-2.4-1.3-5.1-1.898-8.1-1.898-3.1 0-5.5.8-7.2 2.4-1.7 1.6-2.8 3.4-3.6 5.5-.8 2.1-1.2 4.198-1.4 6.4-.1 2.198-.2 3.698-.2 4.698 0 11.3 2.7 20.3 8.2 27.1 5.5 6.8 13.7 10.8 24.6 12.2v-18.3h-16.5l8.3-14.302 41.2-15.1zm36.7-30.9c1.6 10.9 2.7 21 3.6 30.302.9 9.3 1.5 17.4 2 24.4.5 8.1.8 15.6 1 22.5l39-1 14.7 24-66.4 4.698-23.5-16.2c1.1-14.1 1.2-28.898.2-44.7-1-15.698-2.5-31.198-4.3-46.4 4.7.5 9.2.9 13.5 1.202 3.6.3 7.4.6 11.2.9 3.598.098 6.598.298 9 .298zm124.8 75.1l-6.2 25-10.9-.9c-3.2-.2-6.9-.398-11-.6-4.1-.2-8.2-.3-12.4-.3-2.2 0-4.897.1-8.2.3-3.397.2-6.8.398-10.1.6-3.9.3-7.9.602-12.2.9 0-14.602-1.2-29.5-3.6-44.602-2.5-15.1-6.8-29.5-12.8-43.198l23.3-16.802 62 11.5-20.7 17.9-26.9-2.1c.5 1.1.9 2.5 1.4 4 .8 2.698 1.8 7 3 12.6H590l-8.102 18.7h-21.9c.2 2.3.5 4.6.7 7 .2 2.398.4 5 .5 7.7l41.4 2.3zm4-13.6c3.6 2.7 7.4 5.1 11 7.1 3.1 1.802 6.4 3.4 9.7 4.9 3.4 1.5 6.5 2.2 9.2 2.2 2.2 0 3.7-.6 4.7-1.7 1.1-1.1 1.6-2.198 1.6-3.198s-.8-2.2-2.4-3.1c-1.6-.9-3.6-2.103-6.4-3.302-2.6-1.3-5.8-2.8-9.2-4.6-3.5-1.802-7.2-3.9-11.1-6.7-3.2-2.102-5.8-4-7.6-6-1.9-2-3.3-4-4.4-6.102-1.1-2.1-1.8-4.3-2.1-6.698-.3-2.4-.5-5-.5-7.7 0-3.5.8-7 2.4-10.5 1.6-3.5 3.8-6.7 7-9.4 3-2.8 6.897-5.1 11.397-6.898 4.5-1.8 9.802-2.6 15.7-2.6 5.5 0 10.5.9 15.2 2.5 4.7 1.698 8.8 3.5 12.4 5.4 4.1 2.396 7.8 5 11.398 7.896l-12.5 21.302c-3.1-1.802-6.2-3.4-9.2-4.9-2.5-1.3-5.3-2.4-8-3.4-2.8-1.1-5.3-1.6-7.5-1.6-2.3 0-3.8.5-4.898 1.6-1.102 1.103-1.602 2.2-1.602 3.103 0 2.3 1.7 4.397 4.9 6.5 3.2 2.1 7.8 4.397 13.7 7 8 3.3 14 7.5 18 12.397 4 4.802 6 10.802 6 17.7 0 5.102-.9 9.4-2.6 12.9-1.7 3.5-4.302 6.398-7.5 8.6-3.2 2.2-7.102 3.8-11.602 4.8s-9.4 1.603-14.7 1.603c-4.898 0-9.5-.603-13.898-1.7-4.4-1.1-8.5-2.5-12.4-4.1-3.8-1.7-7.3-3.4-10.3-5.303-3-2-5.7-3.6-7.9-5.198l14.004-22.802zm149.7-37.4l-33.3 7c0 2.398.1 5.1.397 8.2.302 3.1.7 6.4 1.2 9.9s1 7.1 1.602 10.798c.6 3.7 1.197 7.4 1.897 10.802 1.5 8.198 3.102 16.8 5 25.5l-31.898 6.4c-1.9-6.802-3.5-13.9-4.9-21.603-1.4-7.6-2.5-14.7-3.6-21.3-1.2-7.6-2.303-15.1-3.103-22.5l-29.2 4.9 2-24.5 94-19.4-.098 25.802zm49.598 85.6c-.6-2.1-1.198-4.398-2-7.1-.698-2.3-1.5-5-2.398-8.2-.9-3.2-1.9-6.8-3-10.7l-20.7 2.8c-.9 2.9-1.8 5.6-2.5 7.9-.9 2.4-1.6 4.1-2.1 5.4h-28.802c4.102-10.4 7.7-20.5 10.9-30.4 3.1-9.9 5.7-19.1 7.7-27.5 2.1-8.4 3.6-15.9 4.6-22.4s1.5-11.6 1.5-15.3l24.2-10.3c5.9 11.3 11.6 22.9 17 35.1 2.4 5.2 4.7 10.802 7.2 16.802s4.8 12.1 7.2 18.4c2.398 6.298 4.5 12.698 6.6 19.298 2.1 6.603 3.8 13.1 5.4 19.7l-30.8 6.5zm-13.1-44.2c-.9-2.4-1.8-4.6-2.6-6.9l-2.6-6.5c-.3 1.4-.7 2.802-1.2 4.4-.3 1.4-.7 2.9-1.2 4.7-.5 1.8-1 3.7-1.5 5.8l9.1-1.5zm109 36.3l-31.2-32.4c.5 2.7.9 5.5 1.3 8.3.4 2.8.7 5.5.9 7.8.3 2.802.6 5.5.7 7.9l-33.1 8.8c-1.1-8.3-2.3-16.898-3.4-25.7-1.1-8.8-2.5-17.397-4-25.8-1.5-8.4-3.2-16.398-5.3-24-2-7.6-4.4-14.6-7.2-20.8l26.5-15.7c3.6 2 7.7 3.7 12.4 5.5 4.5 1.8 9.2 3.5 13.8 5.5 4.7 2 9.2 4 13.6 6.3 4.4 2.302 8.4 4.802 11.9 7.603 3.4 2.8 6.2 6.2 8.3 10 2.2 3.7 3.1 8 3.1 12.897 0 5.2-1 9.302-2.897 12.5-2 3.103-4.5 5.9-7.7 8.103l40.7 41.2-38.4 1.997zm-19.8-62c0-3.302-1.3-6.2-3.7-8.4-2.5-2.3-5.3-4.1-8.2-5.6-3.5-1.7-7.5-3-11.897-4 .8 2.1 1.6 4 2.3 6s1.4 4 2.1 6.1 1.4 4.3 2 6.8c.7 2.5 1.4 5.102 2 8 1.7.102 3.4.102 5.2 0 1.8-.1 3.4-.5 5-1 1.6-.6 2.8-1.5 3.8-2.7.9-1.4 1.4-3 1.4-5.2zM771 1129.05v345c0 92.2-24.4 160-73 203.2-48.603 43.2-113 65.4-193 66.2-81.8.8-147.4-19-196.8-59.602-49.4-40.8-74.103-93-74.103-157 0-28.198 13.8-42.4 41.2-42.8 29.2-.2 43.8 10.4 43.8 32 0 47.4 16.602 84.602 49.602 111.602s77.6 40.4 133.6 39.8c58.4-.602 103.6-16.8 135.4-48.8 32-31.802 48-79.802 48-143.802v-405.9c-55.603-29.4-118.803-46-186-46-220.603 0-400 179.4-400 400s179.4 400 400 400 400-179.4 400-400c.1-116.098-49.5-220.698-128.7-293.897z"
    />

  <path
    class="three"
    d="M771 1129.05v345c0 92.2-24.4 160-73 203.2-48.603 43.2-113 65.4-193 66.2-81.8.8-147.4-19-196.8-59.602-49.4-40.8-74.103-93-74.103-157 0-28.198 13.8-42.4 41.2-42.8 29.2-.2 43.8 10.4 43.8 32 0 47.4 16.602 84.602 49.602 111.602s77.6 40.4 133.6 39.8c58.4-.602 103.6-16.8 135.4-48.8 32-31.802 48-79.802 48-143.802v-405.9c-55.603-29.4-118.803-46-186-46-220.603 0-400 179.4-400 400s179.4 400 400 400 400-179.4 400-400c.1-116.098-49.5-220.698-128.7-293.897z"
  />

  <path
    class="four"
    d="M197.8 1360.65l110.2-105-26.2-148.4 136.2 69.8 136.2-70.2-25.802 148.2 110.2 105-152.2 21.8-68 135-68.2-134.8"
  />

  <path
    class="five"
    d="M197.8 1360.65l110.2-105-26.2-148.4 136.2 69.8 136.2-70.2-25.802 148.2 110.2 105-152.2 21.8-68 135-68.2-134.8"
  />

</svg>
