<?xml version="1.0" standalone="no"?>
<!DOCTYPE svg PUBLIC "-//W3C//DTD SVG 20010904//EN"
 "http://www.w3.org/TR/2001/REC-SVG-20010904/DTD/svg10.dtd">
<svg version="1.0" xmlns="http://www.w3.org/2000/svg"
 width="16.000000pt" height="16.000000pt" viewBox="0 0 16.000000 16.000000"
 preserveAspectRatio="xMidYMid meet">
<metadata>
Created by potrace 1.11, written by Peter Selinger 2001-2013
</metadata>
<g transform="translate(0.000000,16.000000) scale(0.004444,-0.004444)"
fill="#000000" stroke="none">
<path d="M1615 2650 c-553 -49 -1074 -336 -1412 -777 l-56 -73 56 -72 c522
-682 1424 -954 2248 -679 368 123 707 367 946 679 l56 72 -56 73 c-314 410
-781 685 -1293 761 -129 20 -362 27 -489 16z m527 -189 c400 -82 710 -248 984
-528 132 -135 130 -127 53 -214 -369 -417 -950 -651 -1512 -608 -481 36 -937
259 -1246 608 -77 87 -79 79 53 214 279 284 614 462 1006 531 132 24 142 24
360 21 155 -3 229 -9 302 -24z"/>
<path d="M1650 2384 c-158 -30 -312 -133 -399 -268 -65 -99 -114 -256 -80
-256 6 0 30 20 54 45 59 60 152 119 233 147 88 30 249 32 332 4 110 -37 204
-100 271 -181 45 -54 52 -81 12 -43 -16 14 -53 39 -83 54 -50 26 -65 29 -155
29 -91 0 -105 -3 -158 -29 -65 -33 -153 -120 -188 -186 -21 -39 -24 -59 -24
-150 0 -93 3 -111 27 -162 73 -156 241 -240 418 -209 189 34 348 174 426 376
36 93 45 284 19 385 -50 192 -196 350 -385 417 -61 21 -96 27 -185 29 -60 1
-121 0 -135 -2z"/>
</g>
</svg>
