<?xml version="1.0" standalone="no"?>
<!DOCTYPE svg PUBLIC "-//W3C//DTD SVG 20010904//EN"
 "http://www.w3.org/TR/2001/REC-SVG-20010904/DTD/svg10.dtd">
<svg version="1.0" xmlns="http://www.w3.org/2000/svg"
 width="300.000000pt" height="300.000000pt" viewBox="0 0 300.000000 300.000000"
 preserveAspectRatio="xMidYMid meet">
<metadata>
Created by potrace 1.11, written by Peter Selinger 2001-2013
</metadata>
<g transform="translate(0.000000,300.000000) scale(0.100000,-0.100000)"
fill="#000000" stroke="none">
<path d="M1340 2994 c-352 -45 -658 -193 -900 -434 -213 -214 -356 -483 -416
-785 -26 -126 -26 -424 0 -550 93 -469 392 -862 811 -1069 226 -111 399 -150
665 -150 266 0 439 39 665 150 419 207 718 600 811 1069 26 126 26 424 0 550
-56 284 -189 544 -385 755 l-70 75 -1 -665 c0 -664 -6 -818 -37 -955 -85 -384
-363 -618 -801 -676 -111 -15 -362 -6 -462 15 -212 46 -346 114 -484 245 -151
145 -225 313 -227 515 -1 131 31 173 139 183 70 6 146 -21 161 -59 6 -13 15
-67 21 -120 12 -119 38 -189 95 -267 116 -157 307 -236 575 -236 240 0 389 52
516 179 80 80 121 154 156 281 22 79 23 86 26 933 l3 852 -68 31 c-200 91
-366 129 -593 134 -91 2 -181 1 -200 -1z m314 -705 l-47 -273 204 -198 c112
-108 200 -197 194 -198 -50 -3 -548 -80 -553 -85 -3 -3 -63 -116 -132 -251
l-127 -245 -127 250 c-112 221 -130 250 -154 255 -15 3 -126 19 -247 36 -121
17 -236 33 -255 36 l-35 6 203 197 204 196 -47 268 c-26 147 -45 270 -42 273
3 3 117 -51 254 -121 l248 -128 250 130 c138 71 251 129 253 127 2 -1 -18
-125 -44 -275z"/>
</g>
</svg>
