<?xml version="1.0" standalone="no"?>
<!DOCTYPE svg PUBLIC "-//W3C//DTD SVG 20010904//EN"
 "http://www.w3.org/TR/2001/REC-SVG-20010904/DTD/svg10.dtd">
<svg version="1.0" xmlns="http://www.w3.org/2000/svg"
 width="400.000000pt" height="400.000000pt" viewBox="0 0 400.000000 400.000000"
 preserveAspectRatio="xMidYMid meet">
<metadata>
Created by potrace 1.11, written by Peter Selinger 2001-2013
</metadata>
<g transform="translate(0.000000,400.000000) scale(0.100000,-0.100000)"
fill="#000000" stroke="none">
<path d="M1760 3959 c-346 -44 -685 -184 -965 -398 -85 -64 -256 -232 -328
-321 -232 -288 -380 -638 -426 -1010 -14 -109 -14 -351 0 -460 44 -356 180
-690 398 -975 64 -85 232 -256 321 -328 288 -232 638 -380 1010 -426 109 -14
351 -14 460 0 372 46 722 194 1010 426 89 72 257 243 321 328 178 232 312 522
368 791 73 359 49 733 -69 1068 -89 250 -236 496 -407 676 l-68 73 -6 -969 -5
-969 -27 -122 c-59 -269 -151 -449 -308 -604 -241 -239 -602 -369 -1030 -369
-473 0 -837 137 -1096 414 -166 178 -250 379 -260 627 -6 133 2 179 39 232 67
94 300 104 385 15 37 -39 53 -91 53 -173 1 -252 152 -474 402 -589 267 -124
683 -122 943 4 263 127 398 360 425 729 5 75 10 582 10 1129 l0 993 -93 44
c-173 80 -381 139 -587 164 -97 13 -374 12 -470 0z m481 -870 c-33 -189 -61
-355 -63 -369 -3 -21 39 -65 270 -285 154 -147 272 -267 272 -277 0 -22 14
-20 -375 -73 -181 -25 -345 -48 -363 -52 -32 -5 -37 -14 -203 -345 -133 -266
-173 -339 -187 -336 -11 2 -74 115 -184 333 -92 182 -168 333 -170 337 -2 4
-171 31 -377 59 -260 37 -378 57 -388 68 -17 16 -4 29 361 377 l178 170 -65
369 c-36 203 -63 373 -61 377 12 19 61 -2 373 -163 l332 -170 277 142 c152 78
306 157 341 176 103 54 102 65 32 -338z"/>
</g>
</svg>
