<svg xmlns="http://www.w3.org/2000/svg" xmlns:xlink="http://www.w3.org/1999/xlink" viewBox="0 0 700 400" aria-labelledby="title desc">
  <path fill="transparent" d="M0 0h700v400H0z"/>
  <path fill="#FFF200" d="M571.3 245.3l20 5.5-4.2 13.9-15.8-2.4v-17zm-.6 24.8l18.2 5.5-7.9 15.2-14.2-1.8 3.9-18.9zm-7.9 27.9l13.9 9.1-8.5 14.5-11.5-8.5 6.1-15.1zm-10 21.2l10 12.5-15.8 14.8-4.2-14.8 10-12.5zm-14.6 35.1l-15.8 1.8v-14.4l15.8-5v17.6zm-24.5-17.5l-2.1 19.4-22.8-6.7 8.5-12.7h16.4zm-20.6-6.7l-14.5 11.7-10.9-14.7 10.9-5.5 14.5 8.5zm-15.2-65.4H464l7.9-16.4h12.4l-6.4 16.4zm7.9-24.8h-10.3l3-14 14.5 2.4-7.2 11.6zm-26.1 46.6l4.2-13.3h11.5v13.3h-15.7zm0 11.5h14.4l4.4 14.5-14.5 3.6-4.3-18.1zm135.2-55.6l-27.9-9.7s-1.6 114.8-60 96.8c-58.7-18.1 4-112.7 4-112.7h-35s-73.5 120.3 26.4 145.4c92.7 23.2 92.5-119.8 92.5-119.8"/>
  <g fill="#7F0">
    <path opacity=".7" d="M143.2 23.3c32.7-6.4 21.2 37.9 21.2 37.9s46.6-7.3 51.7 18.7c5.1 26-91 26.1-91 26.1s-14.6-76.3 18.1-82.7"/>
    <path opacity=".7" d="M124.8 104.5s-7-69.6-31.8-64.7c-24.8 4.9-7.5 47.3-7.5 47.3S45 101 48.6 119.5c3.7 18.5 76.2-15 76.2-15"/>
    <path opacity=".7" d="M125.1 106s24.9 88.2-9.5 85.8c-34.4-2.4-24.1-37.6-24.1-37.6s-36.9 14.7-47.9-7.6c-11-22.4 81.5-40.6 81.5-40.6"/>
    <path opacity=".7" d="M213.9 116.8c3.9 21.1-34.6 20.5-34.6 20.5s36.2 29.8-1.2 37.1C140.8 181.8 125 106 125 106s83.3-20.2 88.9 10.8"/>
    <path opacity=".7" d="M172.3 225.4l-48.2-118.6L158 231.4z"/>
  </g>
  <path fill="#EC008C" d="M623.8 156.5l-55.2 22.4s28.7 24.7 35.1 48.6c6.4 23.9-11.9 45.7-11.9 73.9 0 28.2 32 57.9 32 57.9s-1.6-62.9 5.8-75.4c7.3-12.5 20.2-41.2 13.8-69.7-6.6-28.5-19.6-57.7-19.6-57.7"/>
  <path fill="#BFD730" d="M544.7 164.2l20.8 27.8 66.1-27.8-5.8-35.6z"/>
  <path fill="#640C66" d="M236.5 89.2l-4.6 37.3h63.7l-51.1 132.4h39l59-169.7z"/>
  <path fill="none" stroke="#EC008C" stroke-width="34.872" d="M140.2 371.4s-8.1-63.5 28.5-99.1c36.6-35.6 86.1-59.1 86.1-59.1"/>
  <path fill="none" stroke="#BFD730" stroke-width="34.872" d="M116.8 372.3s-1.5-72.6 27.9-104.2C174.1 236.4 249 207 249 207"/>
  <path fill="none" stroke="#640C66" stroke-width="34.872" d="M94.8 369.2s-8.3-56.8 25-97.1 119.6-73.9 119.6-73.9"/>
  <path fill="#00C0F3" d="M54.3 361.4l34.9.8-17.4-.4 17.4.4c0-.6 2-58.9 36.2-94.4 36.6-37.9 109.4-67.2 110.1-67.5L222.6 168c-3.3 1.3-80.5 32.4-122.3 75.6-43.8 45.5-45.9 114.9-46 117.8z"/>
  <path fill="#FFF200" d="M186 180.3l2.5-19.5-10.6 12.8-13.2-4.1 7.1 11.4-7.2 8.6 12-3.4 7.1 13.3 1.5-12.7 8.8.4-8-6.8zm82 35.1l-8.1-6.7 2.5-19.5-10.6 12.8-13.2-4.1 7.1 11.4-7.2 8.6 12-3.4 7.1 13.3 1.5-12.7 8.9.3zm-44.2-37.8l3.6-27.6-15 18.1-18.6-5.8 10.1 16.1-10.2 12.2 17-4.8 10.1 18.8 2.1-17.9 12.4.5-11.5-9.6z"/>
  <path fill="#640C66" d="M265.6 305.1s31.9 6.5 59.1 4c27.2-2.5 54.4-11.3 54.4-11.3s17.5 8.1 20.8 40.9c3.3 32.9-30.7 43.4-61.7 43.7-31.1.3-81.7-7.6-81.9-31.1-.1-23.4 9.3-46.2 9.3-46.2"/>
  <defs>
    <path id="a" transform="matrix(.9999 -.01 .01 .9999 -2.95 3.28)" d="M264.2 249.8h124.4v93.3H264.2z"/>
  </defs>
  <clipPath id="b">
    <use xlink:href="#a" overflow="visible"/>
  </clipPath>
  <path clip-path="url(#b)" fill="#FFF200" d="M377.5 272.3c1.5-7.3 3-14.9 3-16.5 0-1.9-9.7 1.9-17.3 5.3-10.4-5.7-23.3-9-37.3-8.9-11.1.1-21.4 2.4-30.3 6.3l-22.5-7 .2 23.7c-5.2 6.7-8.1 14.4-8.1 22.6.2 24.8 27.8 44.6 61.6 44.3 33.8-.3 60.9-20.7 60.7-45.5-.1-9-3.8-17.3-10-24.3"/>
  <path fill="#009BDF" d="M302.3 287.8c3.3 0 6-2.7 5.9-6.1 0-3.3-2.7-6-6.1-5.9s-6 2.7-5.9 6.1c.1 3.3 2.8 6 6.1 5.9m41.4-.4c3.3 0 6-2.7 5.9-6.1 0-3.3-2.7-6-6.1-5.9-3.3 0-6 2.7-5.9 6.1 0 3.3 2.7 6 6.1 5.9M288.9 300l-1.6 3.6 24.9 6.2-26.8.3.1 3.3 24.7-.3-22.8 4.5.9 3.2 30.6-7.4-.1-3.3zm70.4-.7l2.1 3.9-26 6.7 29.4-.3.1 4-29.5.2 21.2 3.7-4.1 4.7-23.3-7.6V309z"/>
  <path fill="#FFF200" d="M433.2 278.4l11.5-47.6-48.3-12.1-5.2 49.9zm-42.8-2.4l-7 67.7 31 12.9 17.1-71.1z"/>
  <path fill="#009BDF" d="M403.8 255.8c3.8.6 7.6-3 8.5-8.2.9-5.2-1.5-9.9-5.3-10.6-3.8-.6-7.6 3-8.5 8.2s1.5 10 5.3 10.6"/>
  <path fill="#009BDF" d="M417.5 248.5c3.8.6 7.6-3 8.5-8.2.9-5.2-1.5-9.9-5.3-10.6-3.8-.6-7.6 3-8.5 8.2-.9 5.2 1.5 9.9 5.3 10.6m10.9 12c3.8.6 7.6-3 8.5-8.2.9-5.2-1.5-9.9-5.3-10.6-3.8-.6-7.6 3-8.5 8.2-.9 5.2 1.5 10 5.3 10.6"/>
  <path fill="#BFD730" d="M388.9 144.3c6.8-.4 7.1-7.4 6.8-14.9-6.6-.8-10.7-3.7-14.8-6.6.7 7.5-3.1 22.1 8 21.5m-8 45.2c7.2 1 16.2 0 25.1 0 8.7 0 18.1.8 25.5 0 11.2-1.3 20.2-9.3 21.3-18.9.7-6.8 0-14 0-20.6 0-6.8.8-14.1 0-20.6-.7-5.9-4.5-10.8-8.4-13.6-12.6-9-38.4-4-61.9-5.3-.5-.1-1.3 1-.4 1 2.1 6.5 7.1 11.4 15.6 12.3 6.3.7 29.7-2.5 29.6 3-.1 5.9-18 1.7-24.7 3-.4 5 .5 9.1-1.1 12.9-3.5 8.2-17 9.9-23.9 3.6-3.1 3.7-12.1 5.3-17.5 2.3-1.8 21.8.3 37.9 20.8 40.9m0-85c2.7.2 12.3 0 14.8 0 4.6-15.2-19.3-15.3-14.8 0M360 118.8c0 9.4-3.2 25.6 7.2 25.5 10-.1 7.2-14 7.2-24.2 0-12.1 3.2-29-8.4-27.5-9.2 1.2-6 14.4-6 26.2m43-13.9c1.2-.2 6.1-.7 9.1 0-1.9-4.8-6.4-10.3-9.5-15.3.2 5-.5 10.8.4 15.3m.7-51.4c-2.3-3.5-8.5-15.6-12.5-17.2-4.9-2-10.6.9-10.6 5.6 0 2.3 2.5 5.7 4.2 8.3 11.8 18.6 24.2 36.9 36.1 54.4 6.9-.3 13.5.9 18.6 1.7-11.5-16.5-23.9-35.2-35.8-52.8m12.9-26.2c-1.3-5.3-11-6.4-13.7-1.3-1.7 3.1-.2 9-.8 13.3 4.9 7 9.4 14.4 14.4 21.2-1.4-8.9 2.2-24.7.1-33.2m-39.1 63.3c3.5-3.5 12.6-5.5 18.2-2.3 1.4-8.7-1.9-12.5-5.7-18.2-2-3-3.9-6.3-5.7-9-4-6.2-10.4-12.4-10.6-18.9-.3-9.3 11.7-16 22-10.6-2.1-8 6.7-18.6 19.4-14.3 10.9 3.7 8.4 15.9 8.4 30.5 0 8.5-1 17.7 0 22.6.5 2.2 2.9 5 4.2 7 4 6 9.2 13.9 13.3 19.9 5.9 8.5 14.6 18.1 17.5 26.5 2.2 6.6 1.1 16.9 1.1 26.2 0 7.4.6 14.9 0 20.9-1.3 13.7-12.6 22.7-27.4 24.5-7 .9-16.6 0-25.5 0-17.2 0-31 1.1-40.6-5-5.8-3.7-10.4-9.1-12.2-15.3-2.9-10.3-.8-26.9-.8-39.8v-20.6c0-13.9-2.3-29.4 14.8-28.5 4.3.3 6.2 1.7 9.6 4.4"/>
  <path opacity=".7" fill="#EC008C" d="M338.8 163.3l102.7 16.8 33.7-119.6-119.6-22.7z"/>
  <path opacity=".5" fill="#BFD730" d="M388.9 144.3c6.8-.4 7.1-7.4 6.8-14.9-6.6-.8-10.7-3.7-14.8-6.6.7 7.5-3.1 22.1 8 21.5m-8 45.2c7.2 1 16.2 0 25.1 0 8.7 0 18.1.8 25.5 0 11.2-1.3 20.2-9.3 21.3-18.9.7-6.8 0-14 0-20.6 0-6.8.8-14.1 0-20.6-.7-5.9-4.5-10.8-8.4-13.6-12.6-9-38.4-4-61.9-5.3-.5-.1-1.3 1-.4 1 2.1 6.5 7.1 11.4 15.6 12.3 6.3.7 29.7-2.5 29.6 3-.1 5.9-18 1.7-24.7 3-.4 5 .5 9.1-1.1 12.9-3.5 8.2-17 9.9-23.9 3.6-3.1 3.7-12.1 5.3-17.5 2.3-1.8 21.8.3 37.9 20.8 40.9m0-85c2.7.2 12.3 0 14.8 0 4.6-15.2-19.3-15.3-14.8 0M360 118.8c0 9.4-3.2 25.6 7.2 25.5 10-.1 7.2-14 7.2-24.2 0-12.1 3.2-29-8.4-27.5-9.2 1.2-6 14.4-6 26.2m43-13.9c1.2-.2 6.1-.7 9.1 0-1.9-4.8-6.4-10.3-9.5-15.3.2 5-.5 10.8.4 15.3m.7-51.4c-2.3-3.5-8.5-15.6-12.5-17.2-4.9-2-10.6.9-10.6 5.6 0 2.3 2.5 5.7 4.2 8.3 11.8 18.6 24.2 36.9 36.1 54.4 6.9-.3 13.5.9 18.6 1.7-11.5-16.5-23.9-35.2-35.8-52.8m12.9-26.2c-1.3-5.3-11-6.4-13.7-1.3-1.7 3.1-.2 9-.8 13.3 4.9 7 9.4 14.4 14.4 21.2-1.4-8.9 2.2-24.7.1-33.2m-39.1 63.3c3.5-3.5 12.6-5.5 18.2-2.3 1.4-8.7-1.9-12.5-5.7-18.2-2-3-3.9-6.3-5.7-9-4-6.2-10.4-12.4-10.6-18.9-.3-9.3 11.7-16 22-10.6-2.1-8 6.7-18.6 19.4-14.3 10.9 3.7 8.4 15.9 8.4 30.5 0 8.5-1 17.7 0 22.6.5 2.2 2.9 5 4.2 7 4 6 9.2 13.9 13.3 19.9 5.9 8.5 14.6 18.1 17.5 26.5 2.2 6.6 1.1 16.9 1.1 26.2 0 7.4.6 14.9 0 20.9-1.3 13.7-12.6 22.7-27.4 24.5-7 .9-16.6 0-25.5 0-17.2 0-31 1.1-40.6-5-5.8-3.7-10.4-9.1-12.2-15.3-2.9-10.3-.8-26.9-.8-39.8v-20.6c0-13.9-2.3-29.4 14.8-28.5 4.3.3 6.2 1.7 9.6 4.4"/>
  <path fill="#00C0F3" d="M508.8 154.3l-17.2-27c11.5-7.3 38.8-20.4 50-25.8 37.1-17.6 40.7-18 43-18.2l3.4 31.9c1.5-.2 2.4-.5 2.5-.5-7.3 2.3-66 29.6-81.7 39.6z"/>
  <path fill="#FFF200" d="M484.5 143.4l-21.7 9 21.7 7.1v19.1l12.1-17.6 23.8 9.7-11.9-18.2 11.9-9.1h-17.9l-18-28.3z"/>
  <path opacity=".25" fill="#FF0C66" d="M293.2 338.5l74.9-12.1-12.1-74.9-74.9 12.1 12.1 74.9zm26.5-299.3l-70.5 11.4 11.5 71.3 38.1 118.3 33.4-5.4-1-124.2-11.5-71.4z"/>
  <path opacity=".4" fill="#FFFF4B" d="M181.6 383.1l50.9-33.4-33.5-50.9-50.9 33.5 33.5 50.8zm-78.9-227.9l-47.9 31.5 31.8 48.4 66.7 74.1 22.7-14.9-41.6-90.6-31.7-48.5z"/>
  <path opacity=".4" fill="#00009A" d="M479.2 336.2l68.6 17 17-68.6-68.6-17-17 68.6zM611.3 89.6l-64.5-16-16.2 65.2L520 254l30.6 7.6 44.5-106.8 16.2-65.2z"/>
  <path fill="#FFF" d="M82.1 78.7h4.4V86c-1.2.5-2.6.8-3.9.8-1.7 0-2.9-.6-3.8-1.9-.9-1.3-1.3-3.1-1.3-5.5 0-2.3.5-4.1 1.5-5.4 1-1.3 2.5-1.9 4.3-1.9 1.1 0 2.2.3 3.3.9l-.8 2.2c-.8-.5-1.6-.7-2.3-.7-1 0-1.8.5-2.4 1.4-.6.9-.9 2.1-.9 3.7s.2 2.8.6 3.7c.4.9 1 1.3 1.9 1.3.4 0 .9-.1 1.3-.2V81h-1.8v-2.3zm15.2.7c0 2.4-.4 4.2-1.3 5.4s-2.2 1.9-3.8 1.9c-1.7 0-2.9-.6-3.8-1.9-.9-1.3-1.3-3.1-1.3-5.5s.4-4.2 1.3-5.4 2.2-1.9 3.8-1.9c1.6 0 2.9.6 3.8 1.9.8 1.3 1.3 3.1 1.3 5.5zm-7.6 0c0 1.6.2 2.9.6 3.7.4.9 1 1.3 1.8 1.3 1.6 0 2.4-1.7 2.4-5s-.8-5-2.4-5c-.8 0-1.4.4-1.8 1.3s-.6 2.1-.6 3.7zm18.3 0c0 2.4-.4 4.2-1.3 5.4-.9 1.3-2.2 1.9-3.8 1.9-1.7 0-2.9-.6-3.8-1.9-.9-1.3-1.3-3.1-1.3-5.5s.4-4.2 1.3-5.4c.9-1.3 2.2-1.9 3.8-1.9 1.6 0 2.9.6 3.8 1.9.8 1.3 1.3 3.1 1.3 5.5zm-7.6 0c0 1.6.2 2.9.6 3.7.4.9 1 1.3 1.8 1.3 1.6 0 2.4-1.7 2.4-5s-.8-5-2.4-5c-.8 0-1.4.4-1.8 1.3s-.6 2.1-.6 3.7zm17.6-.1c0 2.4-.5 4.2-1.4 5.4-1 1.2-2.3 1.9-4.1 1.9H109V72.3h3.8c1.7 0 3 .6 3.9 1.8.8 1.3 1.3 3 1.3 5.2zm-2.8.1c0-3.2-.9-4.8-2.6-4.8h-1.1v9.7h.9c1 0 1.7-.4 2.1-1.2s.7-2.1.7-3.7zm7.6 7.2V72.3h2.7v12h3.7v2.3h-6.4zm15.8-14.3v9.2c0 1.7-.4 3-1.2 3.9-.8.9-1.9 1.3-3.3 1.3s-2.5-.4-3.2-1.3-1.1-2.2-1.1-3.9v-9.2h2.6v9.4c0 1.8.6 2.7 1.8 2.7.6 0 1-.2 1.3-.7.3-.5.5-1.1.5-2v-9.5h2.6zm6.2 2.1c-.8 0-1.4.4-1.8 1.3-.4.9-.7 2.1-.7 3.7 0 3.3.9 5 2.6 5 .8 0 1.5-.2 2.4-.7v2.4c-.7.5-1.6.7-2.7.7-1.6 0-2.8-.6-3.7-1.9s-1.3-3.1-1.3-5.4c0-2.3.4-4.1 1.3-5.4.9-1.3 2.1-1.9 3.7-1.9.5 0 1 .1 1.5.2s1 .4 1.5.8l-.9 2.2-.9-.6c-.3-.2-.6-.4-1-.4zm11.7 12.2h-2.8l-2.3-6.1-1.1 1.1v5h-2.7V72.3h2.7v7.1l.9-2.1 2.4-4.9h2.8l-3.3 6.2 3.4 8zm368.7 139.1l-2.7-12.2h-.1c.1.9.2 1.8.2 2.6v9.6h-2.5v-14.3h4.1l2.4 11.2h.1l2.4-11.2h4.1v14.3h-2.5V216c0-.8 0-1.6.1-2.5h-.1l-2.7 12.1h-2.8zm16.1 0l-.8-3.6h-3.7l-.8 3.6h-2.7l3.5-14.3h3.6l3.5 14.3h-2.6zm-1.3-5.9l-.8-3.3c0-.2-.1-.7-.3-1.5s-.3-1.4-.3-1.6c-.1.6-.2 1.2-.3 1.9s-.5 2.2-1 4.6h2.7zm13 5.9h-2.8l-2.3-6.1-1.1 1.1v5h-2.7v-14.3h2.7v7.1l.9-2.1 2.4-4.9h2.8l-3.3 6.2 3.4 8zm6.7 0h-6.4v-14.3h6.4v2.3h-3.8v3.4h3.5v2.3h-3.5v4h3.8v2.3zm11.4 0l-.8-3.6h-3.7l-.8 3.6h-2.7l3.5-14.3h3.6l3.5 14.3h-2.6zm-1.3-5.9l-.8-3.3c0-.2-.1-.7-.3-1.5s-.3-1.4-.3-1.6c-.1.6-.2 1.2-.3 1.9s-.5 2.2-1 4.6h2.7zm20 5.9h-3.3l-1.4-7.5c-.2-1-.4-2.2-.5-3.6l-.1.7-.4 2.9-1.4 7.4h-3.3l-2.6-14.3h2.6l1.3 8.1c.1.8.3 2.1.5 3.8.2-1.7.3-3 .5-3.7l1.5-8.1h2.8l1.5 8.1c.2 1.2.4 2.5.5 3.8.2-1.9.4-3.2.5-3.8l1.2-8.1h2.6l-2.5 14.3zm2.7 0v-14.3h2.5v14.3h-2.5zm10.8-3.9c0 1.3-.3 2.4-1 3.1s-1.6 1.1-2.9 1.1c-1.2 0-2.3-.2-3.2-.7v-2.6c1.1.7 2 1 2.9 1 .5 0 .9-.1 1.1-.4s.4-.7.4-1.1c0-.5-.2-.9-.5-1.3s-.8-.8-1.5-1.3c-.6-.4-1.1-.8-1.4-1.2s-.6-.8-.7-1.3-.3-1-.3-1.7c0-1.2.3-2.2 1-2.9s1.6-1.1 2.7-1.1 2.1.3 3.2.9l-.9 2.1c-.3-.2-.6-.3-1-.5s-.7-.2-1.1-.2c-.4 0-.8.1-1 .4s-.3.7-.3 1.2.1.9.4 1.3.8.8 1.5 1.2c.9.6 1.6 1.3 1.9 1.9s.7 1.3.7 2.1zm9.4 3.9H610v-6.3h-3.5v6.3h-2.7v-14.3h2.7v5.7h3.5v-5.7h2.7v14.3zm-361.8-46.4h-2.7V173h-3.5v6.3H242V165h2.7v5.7h3.5V165h2.7v14.3zm8.1 0l-.8-3.6h-3.7l-.8 3.6H251l3.5-14.3h3.6l3.5 14.3H259zm-1.3-6l-.8-3.3c0-.2-.1-.7-.3-1.5s-.3-1.4-.3-1.6c-.1.6-.2 1.2-.3 1.9s-.5 2.2-1 4.6h2.7zm9.3-8.3h2.7l-3.4 14.3h-3.4l-3.3-14.3h2.7l1.9 8.7c.2.7.3 1.8.5 3.2.1-1.2.3-2.2.5-3.2l1.8-8.7zm9.1 14.3h-6.4V165h6.4v2.3h-3.8v3.4h3.5v2.3h-3.5v4h3.8v2.3zm7.3 0h-2.6V165h6.4v2.3h-3.8v4h3.5v2.3h-3.5v5.7z"/>
  <path fill="#FFF" d="M293.4 179.3l-.8-3.6h-3.7l-.8 3.6h-2.7l3.5-14.3h3.6l3.5 14.3h-2.6zm-1.3-6l-.8-3.3c0-.2-.1-.7-.3-1.5s-.3-1.4-.3-1.6c-.1.6-.2 1.2-.3 1.9s-.5 2.2-1 4.6h2.7zm4.5 6V165h2.5v14.3h-2.5zm8.9 0h-2.6v-11.9h-2.7V165h8.1v2.3h-2.7v12zm12.1 0H315V173h-3.5v6.3h-2.7V165h2.7v5.7h3.5V165h2.7v14.3zm.8-1.4c0-.5.1-.9.4-1.2s.7-.4 1.2-.4.9.1 1.2.4.4.7.4 1.2-.1.9-.4 1.2-.7.4-1.2.4-.9-.1-1.2-.4-.4-.7-.4-1.2zm2.7-3.2H319l-.5-9.7h3.1l-.5 9.7zm-4.8 192.7h-2.7v-6.3h-3.5v6.3h-2.7v-14.3h2.7v5.7h3.5v-5.7h2.7v14.3zm11.2-7.2c0 2.4-.4 4.2-1.3 5.4-.9 1.3-2.2 1.9-3.8 1.9-1.7 0-2.9-.6-3.8-1.9s-1.3-3.1-1.3-5.5.4-4.2 1.3-5.4 2.2-1.9 3.8-1.9c1.6 0 2.9.6 3.8 1.9s1.3 3.2 1.3 5.5zm-7.6 0c0 1.6.2 2.9.6 3.7s1 1.3 1.8 1.3c1.6 0 2.4-1.7 2.4-5s-.8-5-2.4-5c-.8 0-1.4.4-1.8 1.3s-.6 2.1-.6 3.7zm16.4-2.7c0 1.5-.4 2.7-1.1 3.5-.8.8-1.9 1.2-3.3 1.2h-.7v5.2h-2.7v-14.3h3.6c2.9 0 4.2 1.5 4.2 4.4zm-5.1 2.4h.5c.7 0 1.1-.2 1.5-.5.3-.4.5-.9.5-1.8 0-.7-.1-1.3-.4-1.7s-.7-.5-1.4-.5h-.6v4.5zm12 7.5h-6.4v-14.3h6.4v2.3h-3.8v3.4h3.5v2.3h-3.5v4h3.8v2.3zm7.3 0h-2.6v-14.3h6.4v2.3h-3.8v4h3.5v2.3h-3.5v5.7zm14.1-7.2c0 2.4-.4 4.2-1.3 5.4s-2.2 1.9-3.8 1.9c-1.7 0-2.9-.6-3.8-1.9s-1.3-3.1-1.3-5.5.4-4.2 1.3-5.4 2.2-1.9 3.8-1.9c1.6 0 2.9.6 3.8 1.9s1.3 3.2 1.3 5.5zm-7.5 0c0 1.6.2 2.9.6 3.7s1 1.3 1.8 1.3c1.6 0 2.4-1.7 2.4-5s-.8-5-2.4-5c-.8 0-1.4.4-1.8 1.3s-.6 2.1-.6 3.7zm11.3 1.6v5.6h-2.7v-14.3h3.5c1.5 0 2.6.3 3.3 1s1 1.8 1 3.2c0 1.8-.6 3.1-1.8 3.8l2.7 6.3h-2.8l-2.3-5.6h-.9zm0-2.3h.7c.6 0 1.1-.2 1.3-.5s.4-.9.4-1.6c0-.7-.1-1.2-.4-1.6s-.7-.5-1.3-.5h-.7v4.2zm14.3 7.9H380v-11.9h-2.7v-2.3h8.1v2.3h-2.7v11.9zm12 0H392v-6.3h-3.5v6.3h-2.7v-14.3h2.7v5.7h3.5v-5.7h2.7v14.3zm8 0h-6.4v-14.3h6.4v2.3h-3.8v3.4h3.5v2.3h-3.5v4h3.8v2.3zm4.3-14.3h3.6c1.5 0 2.6.3 3.2.9.7.6 1 1.5 1 2.7 0 .8-.2 1.5-.5 2.1-.4.6-.8.9-1.5 1v.1c.8.2 1.4.6 1.7 1.1.4.6.5 1.3.5 2.2 0 1.3-.3 2.3-1 3s-1.6 1.1-2.8 1.1H407v-14.2zm2.5 5.7h1.2c.6 0 1-.1 1.2-.4.2-.3.3-.7.3-1.3s-.1-1-.4-1.3c-.3-.3-.7-.4-1.2-.4h-1.1v3.4zm0 2.3v4h1.3c.6 0 1-.2 1.2-.5.3-.3.4-.9.4-1.6 0-1.3-.6-1.9-1.7-1.9h-1.2zm13.1 6.3h-6.4v-14.3h6.4v2.3h-3.8v3.4h3.5v2.3h-3.5v4h3.8v2.3z"/>
  <path fill="#FFF" d="M429.5 363.4c0 1.3-.3 2.4-1 3.1s-1.6 1.1-2.9 1.1c-1.2 0-2.3-.2-3.2-.7v-2.6c1.1.7 2 1 2.9 1 .5 0 .9-.1 1.1-.4.3-.3.4-.7.4-1.1 0-.5-.2-.9-.5-1.3s-.8-.8-1.5-1.3c-.6-.4-1.1-.8-1.4-1.2-.3-.4-.6-.8-.7-1.3-.2-.5-.3-1-.3-1.7 0-1.2.3-2.2 1-2.9.7-.7 1.6-1.1 2.7-1.1s2.1.3 3.2.9l-.9 2.1c-.3-.2-.6-.3-1-.5s-.7-.2-1.1-.2c-.4 0-.8.1-1 .4-.2.3-.3.7-.3 1.2s.1.9.4 1.3c.3.4.8.8 1.4 1.2.9.6 1.6 1.3 1.9 1.9.7.6.8 1.3.8 2.1z"/>
  <path fill="#FFF" d="M434.5 367.4h-2.6v-11.9h-2.7v-2.3h8.1v2.3h-2.7v11.9z"/>
  <g fill="#FFF">
    <path d="M321.3 61h-2.6V46.7h6.4V49h-3.8v4h3.5v2.3h-3.5V61zm5.1 0V46.7h2.5V61h-2.5zm14.5 0h-3.2l-4.4-10.3h-.1c.2.8.2 1.6.2 2.5V61h-2.5V46.7h3.3l4.4 10.2h.1c-.1-.7-.2-1.5-.2-2.4v-7.8h2.4V61zm5.8-7.9h4.4v7.3c-1.2.5-2.6.8-3.9.8-1.7 0-2.9-.6-3.8-1.9s-1.3-3.1-1.3-5.5c0-2.3.5-4.1 1.5-5.4s2.5-1.9 4.3-1.9c1.1 0 2.2.3 3.3.9l-.8 2.2c-.8-.5-1.6-.7-2.3-.7-1 0-1.8.5-2.4 1.4s-.9 2.1-.9 3.7.2 2.8.6 3.7 1 1.3 1.9 1.3c.4 0 .9-.1 1.3-.2v-3.3h-1.8v-2.4zM358 61h-6.4V46.7h6.4V49h-3.8v3.4h3.5v2.3h-3.5v4h3.8V61zm3.5-5.5V61h-2.7V46.7h3.5c1.5 0 2.6.3 3.3 1 .7.7 1 1.8 1 3.2 0 1.8-.6 3.1-1.8 3.8l2.7 6.3h-2.8l-2.3-5.6h-.9zm0-2.3h.7c.6 0 1.1-.2 1.3-.5s.4-.9.4-1.6c0-.7-.1-1.2-.4-1.6-.3-.3-.7-.5-1.3-.5h-.7v4.2zM312.8 67c-.8 0-1.4.4-1.8 1.3s-.7 2.1-.7 3.7c0 3.3.9 5 2.6 5 .8 0 1.5-.2 2.4-.7v2.4c-.7.5-1.6.7-2.7.7-1.6 0-2.8-.6-3.7-1.9s-1.3-3.1-1.3-5.4.4-4.1 1.3-5.4 2.1-1.9 3.7-1.9c.5 0 1 .1 1.5.2s1 .4 1.5.8l-.9 2.2-.9-.6c-.3-.2-.6-.4-1-.4zm6 6.6v5.6h-2.7V64.9h3.5c1.5 0 2.6.3 3.3 1s1 1.8 1 3.2c0 1.8-.6 3.1-1.8 3.8l2.7 6.3H322l-2.3-5.6h-.9zm0-2.3h.7c.6 0 1.1-.2 1.3-.5s.4-.9.4-1.6c0-.7-.1-1.2-.4-1.6s-.7-.5-1.3-.5h-.7v4.2zm16.1.7c0 2.4-.4 4.2-1.3 5.4s-2.2 1.9-3.8 1.9c-1.7 0-2.9-.6-3.8-1.9s-1.3-3.1-1.3-5.5.4-4.2 1.3-5.4 2.2-1.9 3.8-1.9c1.6 0 2.9.6 3.8 1.9s1.3 3.2 1.3 5.5zm-7.5 0c0 1.6.2 2.9.6 3.7s1 1.3 1.8 1.3c1.6 0 2.4-1.7 2.4-5s-.8-5-2.4-5c-.8 0-1.4.4-1.8 1.3s-.6 2.1-.6 3.7zm15.1 3.3c0 1.3-.3 2.4-1 3.1s-1.6 1.1-2.9 1.1c-1.2 0-2.3-.2-3.2-.7V76c1.1.7 2 1 2.9 1 .5 0 .9-.1 1.1-.4s.4-.7.4-1.1c0-.5-.2-.9-.5-1.3s-.8-.8-1.5-1.3c-.6-.4-1.1-.8-1.4-1.2s-.6-.8-.7-1.3-.3-1-.3-1.7c0-1.2.3-2.2 1-2.9s1.6-1.1 2.7-1.1 2.1.3 3.2.9l-.9 2.1c-.3-.2-.6-.3-1-.5s-.7-.2-1.1-.2c-.4 0-.8.1-1 .4s-.3.7-.3 1.2.1.9.4 1.3.8.8 1.5 1.2c.9.6 1.6 1.3 1.9 1.9s.7 1.4.7 2.3z"/>
    <path d="M349.2 75.3c0 1.3-.3 2.4-1 3.1s-1.6 1.1-2.9 1.1c-1.2 0-2.3-.2-3.2-.7V76c1.1.7 2 1 2.9 1 .5 0 .9-.1 1.1-.4.3-.3.4-.7.4-1.1 0-.5-.2-.9-.5-1.3s-.8-.8-1.5-1.3c-.6-.4-1.1-.8-1.4-1.2-.3-.4-.6-.8-.7-1.3-.2-.5-.3-1-.3-1.7 0-1.2.3-2.2 1-2.9.7-.7 1.6-1.1 2.7-1.1s2.1.3 3.2.9l-.9 2.1c-.3-.2-.6-.3-1-.5s-.7-.2-1.1-.2c-.4 0-.8.1-1 .4-.2.3-.3.7-.3 1.2s.1.9.4 1.3c.3.4.8.8 1.4 1.2.9.6 1.6 1.3 1.9 1.9.6.7.8 1.4.8 2.3zm7 3.9h-6.4V64.9h6.4v2.3h-3.8v3.4h3.5v2.3h-3.5v4h3.8v2.3zm10-7.3c0 2.4-.5 4.2-1.4 5.4s-2.3 1.9-4.1 1.9h-3.5V64.9h3.8c1.7 0 3 .6 3.9 1.8s1.3 3 1.3 5.2zm-2.8.1c0-3.2-.9-4.8-2.6-4.8h-1.1v9.7h.9c1 0 1.7-.4 2.1-1.2s.7-2.1.7-3.7z"/>
  </g>
</svg>
