<svg xmlns="http://www.w3.org/2000/svg" viewBox=".445 595.14 400 400" class="brand_color">
  <path fill="#FFF" d="M209.5 663.842c11.079 0 22.159 4.363 30.725 13.05 17.131 17.37 17.132 45.162 0 62.533l-34.995 35.491-.283.283v-20.624c0-16.629-13.576-30.205-30.205-30.205v-.024c-18.382 0-30.205 13.947-30.205 30.206v21.214l-.778-.802-35.019-35.539c-17.132-17.371-17.131-45.165 0-62.533 8.567-8.691 19.604-12.979 30.7-12.979s22.181 4.292 30.747 12.979a6.042 6.042 0 0 0 8.59 0c8.565-8.687 19.645-13.05 30.723-13.05z"/>
  <path fill="none" d="M174.741 736.427c10.145 0 18.123 7.979 18.123 18.124v72.491a6.042 6.042 0 0 0 6.041 6.042h123.841c8.007 0 15.102 7.573 15.102 18.122v24.401a114.76 114.76 0 0 1-57.39 99.157c-35.515 20.505-79.237 20.496-114.755 0h-.023c-34.733-20.081-56.464-56.836-57.319-96.939 0-.003-.032-.324-.07-.614v-1.841c0-10.55 7.095-18.123 15.103-18.123h27.185a6.04 6.04 0 0 0 6.04-6.041v-96.655c-.002-10.145 7.978-18.124 18.122-18.124zm-1.658-136.287v50.428m-75.332 9.68L65.035 622.47m6.483 85.647l-49.158-8.996m262.715-76.651l-32.715 37.778m75.391 38.873l-49.158 8.996"/>
</svg>
