<svg xmlns="http://www.w3.org/2000/svg" viewBox="0 0 400 400" class="brand_color">
  <path fill="none" d="M310.5 33.665C310.5 17.871 297.629 5 281.836 5H118.165C102.37 5 89.5 17.871 89.5 33.665V366.4c0 15.729 12.87 28.601 28.665 28.601h163.734c9.101 0 26.601-7.75 26.601-28 0-18.501 2-333.336 2-333.336z"/>
  <path fill="none"  d="M102.501 36.999h195V366.5h-195z"/>
  <path fill="#FFF"  d="M198.765 222.958c12.705 0 24.017 4.803 32.848 13.635 8.677 8.677 13.324 20.142 13.324 32.693 0 12.707-4.493 23.86-13.168 32.383-9.144 8.986-20.917 13.789-33.004 13.789-12.24 0-23.707-4.803-32.538-13.632-8.831-8.835-13.789-20.455-13.789-32.54 0-12.241 4.958-23.859 13.789-32.849 8.676-8.831 19.834-13.479 32.538-13.479z"/>
  <path  stroke="none" fill="#0069cc" d="M152.772 89.519c.091-2.722.197-5.471.317-8.245.12-2.775.257-5.504.411-8.19.154-2.685.317-5.3.488-7.846.171-2.544.365-4.949.582-7.212h2.979a86.03 86.03 0 0 1 2.029 4.727 217.33 217.33 0 0 1 2.175 5.704c.725 1.983 1.427 3.966 2.106 5.949s1.298 3.795 1.858 5.438c.559-1.643 1.179-3.455 1.858-5.438a308.524 308.524 0 0 1 2.106-5.949 215.215 215.215 0 0 1 2.174-5.704 84.936 84.936 0 0 1 2.029-4.727h2.979a757.26 757.26 0 0 1 1.798 31.494h-3.339a990.105 990.105 0 0 0-.419-12.618 390.998 390.998 0 0 0-.625-11.618 74.383 74.383 0 0 0-.925 2.23c-.388.969-.805 2.068-1.25 3.296l-1.421 3.916a235.576 235.576 0 0 0-1.421 4.028c-.445 1.303-.862 2.512-1.25 3.629s-.696 2.038-.924 2.763h-2.74c-.229-.725-.537-1.645-.925-2.763a813.146 813.146 0 0 1-1.25-3.629 232.58 232.58 0 0 0-1.421-4.028l-1.421-3.916a127.59 127.59 0 0 0-1.241-3.296 45.23 45.23 0 0 0-.933-2.23 334.654 334.654 0 0 0-.634 11.618c-.16 4.166-.297 8.371-.411 12.618h-3.339zm28.459 0c.936-3.329 1.815-6.411 2.637-9.244a540.49 540.49 0 0 1 2.406-8.068 351.258 351.258 0 0 1 2.329-7.302 198.401 198.401 0 0 1 2.423-6.88h3.117a219.211 219.211 0 0 1 2.423 6.891 336.847 336.847 0 0 1 2.329 7.291 540.49 540.49 0 0 1 2.406 8.068 871.804 871.804 0 0 1 2.621 9.244h-3.717c-.4-1.362-.773-2.7-1.122-4.018-.349-1.317-.71-2.655-1.087-4.017h-11.01l-2.209 8.035h-3.546zm6.747-11.674h9.041a736.863 736.863 0 0 0-2.234-7.657 173.494 173.494 0 0 0-2.286-7.124 133.992 133.992 0 0 0-2.337 7.113 310.343 310.343 0 0 0-2.184 7.668zm19.23 11.163V58.469c.959-.296 2.028-.5 3.21-.61s2.264-.167 3.245-.167c1.986 0 3.811.326 5.471.977a11.169 11.169 0 0 1 4.281 2.963c1.192 1.325 2.115 2.993 2.766 5.005.651 2.013.976 4.38.976 7.102 0 2.723-.324 5.093-.976 7.113-.65 2.021-1.573 3.688-2.766 5.004a11.221 11.221 0 0 1-4.281 2.953c-1.66.651-3.484.976-5.471.976a37.27 37.27 0 0 1-3.245-.156c-1.182-.103-2.251-.311-3.21-.621zm3.406-3.218c.206.03.571.059 1.097.089.525.029 1.267.043 2.226.043 3.231 0 5.64-1.068 7.227-3.207 1.587-2.139 2.381-5.13 2.381-8.978 0-3.847-.794-6.839-2.381-8.978-1.587-2.137-3.995-3.207-7.227-3.207-.959 0-1.7.019-2.226.056-.525.037-.891.07-1.097.1V85.79zm21.595 3.729V58.025h14.828v3.729h-11.422v9.432h10.171v3.64h-10.171V85.79h12.312v3.729h-15.718zm-74.668 7.275h3.613l1.107 7.209c.369 2.399.728 4.732 1.075 6.999.349 2.267.713 4.375 1.096 6.325l1.068 5.457a659.061 659.061 0 0 0 2.986-10.476 252.585 252.585 0 0 0 2.952-11.787h2.952a221.061 221.061 0 0 0 2.994 11.791c1.081 3.804 2.091 7.298 3.03 10.481l1.013-5.186c.367-1.876.725-3.97 1.075-6.284l1.086-7.181 1.111-7.35h3.51a243.58 243.58 0 0 1-2.786 16.101c-1.11 5.346-2.173 10.478-3.19 15.392h-3.408c-1.027-3.269-2.032-6.635-3.014-10.098s-1.963-7.22-2.945-11.274c-.982 4.054-1.975 7.812-2.979 11.274s-2.009 6.829-3.014 10.098h-3.407l-3.081-14.697c-1.068-5.098-2.016-10.695-2.844-16.794zm34.606 31.493V96.794h3.408v31.493h-3.408zm6.97-27.631v-3.862h18.682v3.862h-7.638v27.631h-3.407v-27.631h-7.637zm22.26 27.631V96.794h3.408v13.095h11.884V96.794h3.407v31.493h-3.407V113.75h-11.884v14.537h-3.408zm-103.211 22.99c0-2.634.308-4.972.924-7.013.617-2.043 1.453-3.763 2.509-5.161 1.056-1.398 2.283-2.459 3.682-3.184a9.622 9.622 0 0 1 4.495-1.088c1.004 0 1.91.093 2.714.278s1.504.396 2.098.632c.593.237 1.079.477 1.456.721.376.244.633.425.771.543l-.976 3.64c-.206-.178-.508-.374-.908-.588-.4-.214-.851-.429-1.353-.644a9.338 9.338 0 0 0-1.653-.521 8.316 8.316 0 0 0-1.806-.2c-1.291 0-2.449.289-3.476.866-1.027.577-1.904 1.409-2.628 2.496-.726 1.088-1.279 2.413-1.661 3.973-.383 1.561-.574 3.311-.574 5.25 0 1.878.168 3.592.505 5.137.336 1.546.844 2.874 1.524 3.984.679 1.11 1.526 1.968 2.543 2.575 1.016.607 2.203.91 3.562.91 1.563 0 2.859-.214 3.887-.644 1.027-.429 1.798-.806 2.312-1.132l.89 3.64c-.16.148-.454.337-.882.566-.428.229-.956.447-1.584.654a16.82 16.82 0 0 1-2.208.544c-.845.155-1.758.233-2.74.233-1.712 0-3.268-.366-4.667-1.098-1.398-.732-2.6-1.794-3.604-3.186-1.004-1.391-1.781-3.106-2.329-5.149-.55-2.04-.823-4.386-.823-7.034zm22.705 15.78v-31.05c.959-.295 2.029-.499 3.21-.61a34.932 34.932 0 0 1 3.245-.167c3.424 0 6.033.837 7.825 2.508 1.792 1.673 2.688 4.159 2.688 7.458 0 2.086-.431 3.873-1.293 5.359s-2.126 2.594-3.792 3.319c.378.606.857 1.401 1.437 2.385a59.315 59.315 0 0 1 1.777 3.274 104.187 104.187 0 0 1 1.799 3.751 44.068 44.068 0 0 1 1.524 3.773h-3.716a80.64 80.64 0 0 0-1.527-3.506 80.58 80.58 0 0 0-1.664-3.385 67.025 67.025 0 0 0-1.673-3.019 117.656 117.656 0 0 0-1.484-2.452c-.309.03-.62.043-.934.043h-4.015v12.318h-3.407zm3.408-15.958h2.415c1.164 0 2.214-.074 3.15-.221.936-.148 1.727-.436 2.372-.865.645-.43 1.141-1.029 1.49-1.798.348-.769.522-1.79.522-3.063 0-1.183-.174-2.17-.522-2.962-.349-.791-.819-1.413-1.413-1.865-.594-.451-1.296-.769-2.106-.954a11.604 11.604 0 0 0-2.586-.277c-1.45 0-2.558.052-3.322.155v11.85zm18.647 15.958v-31.493h14.829v3.728h-11.421v9.433h10.171v3.64h-10.171v10.964h12.312v3.729h-15.72zm17.278 0c.936-3.329 1.815-6.41 2.637-9.244a536.733 536.733 0 0 1 2.406-8.067 349.351 349.351 0 0 1 2.329-7.302 198.401 198.401 0 0 1 2.423-6.88h3.116c.845 2.279 1.653 4.576 2.423 6.892s1.546 4.746 2.329 7.291a533.266 533.266 0 0 1 2.406 8.067 856.242 856.242 0 0 1 2.62 9.244h-3.716a153.36 153.36 0 0 1-1.122-4.018 377.82 377.82 0 0 0-1.087-4.016h-11.01l-2.209 8.034h-3.545zm6.747-11.674h9.041a722.788 722.788 0 0 0-2.234-7.657 174.044 174.044 0 0 0-2.286-7.125c-.822 2.279-1.601 4.65-2.337 7.114s-1.465 5.019-2.184 7.668zm16.78-15.958v-3.862h18.683v3.862h-7.638v27.631h-3.408v-27.631h-7.637zm22.26 27.632v-31.493h3.409v31.493h-3.409zm6.747-31.494h3.768c1.267 4.794 2.506 9.399 3.717 13.815a239.343 239.343 0 0 0 3.749 12.439c1.29-3.846 2.54-7.989 3.751-12.428 1.208-4.439 2.437-9.048 3.681-13.827h3.648c-.891 3.329-1.739 6.41-2.544 9.244s-1.593 5.523-2.363 8.067a343.866 343.866 0 0 1-2.294 7.292 352.399 352.399 0 0 1-2.338 6.891h-3.186a359.18 359.18 0 0 1-2.337-6.891 418.07 418.07 0 0 1-2.312-7.292c-.782-2.544-1.584-5.233-2.406-8.067s-1.666-5.913-2.534-9.243zm25.669 31.494v-31.493h14.829v3.728h-11.422v9.433h10.171v3.64h-10.171v10.964h12.312v3.729h-15.719zm-147.305 22.989c0-2.633.308-4.972.924-7.014.617-2.042 1.453-3.762 2.509-5.16 1.056-1.398 2.283-2.459 3.682-3.185a9.633 9.633 0 0 1 4.495-1.086c1.004 0 1.91.092 2.714.277s1.504.396 2.098.632c.593.237 1.079.478 1.456.721.376.245.633.427.771.544l-.976 3.64c-.206-.178-.508-.374-.908-.588-.4-.215-.851-.429-1.353-.644a9.437 9.437 0 0 0-1.652-.521 8.323 8.323 0 0 0-1.807-.199c-1.291 0-2.449.289-3.476.865-1.027.578-1.904 1.41-2.628 2.498-.726 1.087-1.279 2.412-1.661 3.973-.383 1.561-.574 3.311-.574 5.249 0 1.879.168 3.592.505 5.138.336 1.547.844 2.874 1.524 3.984.679 1.11 1.526 1.968 2.543 2.575 1.016.606 2.203.91 3.562.91 1.564 0 2.859-.214 3.887-.645 1.027-.428 1.798-.806 2.312-1.132l.89 3.641c-.16.148-.454.336-.882.565a10.01 10.01 0 0 1-1.583.655 16.69 16.69 0 0 1-2.209.543c-.845.155-1.758.233-2.74.233-1.712 0-3.268-.366-4.667-1.099s-2.6-1.794-3.604-3.185-1.781-3.107-2.329-5.149c-.549-2.043-.823-4.388-.823-7.036zm21.73 0c0-2.693.309-5.068.927-7.125.618-2.057 1.461-3.776 2.531-5.16 1.07-1.383 2.314-2.422 3.732-3.118a10.114 10.114 0 0 1 4.514-1.042c1.562 0 3.04.347 4.431 1.042 1.392.696 2.613 1.735 3.662 3.118 1.049 1.384 1.885 3.104 2.507 5.16.622 2.057.933 4.431.933 7.125s-.311 5.071-.933 7.135c-.622 2.065-1.458 3.788-2.507 5.172s-2.27 2.422-3.662 3.118a9.785 9.785 0 0 1-4.431 1.043c-1.59 0-3.095-.348-4.514-1.043-1.418-.696-2.663-1.734-3.732-3.118s-1.914-3.107-2.531-5.172c-.619-2.064-.927-4.442-.927-7.135zm3.613 0c0 1.908.185 3.644.556 5.204.371 1.562.901 2.89 1.591 3.984.69 1.095 1.531 1.939 2.523 2.531s2.11.888 3.353.888c1.243 0 2.352-.296 3.327-.888.975-.592 1.808-1.436 2.498-2.531.689-1.094 1.223-2.422 1.599-3.984.376-1.561.564-3.296.564-5.204 0-1.909-.188-3.644-.564-5.205-.376-1.561-.91-2.885-1.599-3.973-.69-1.088-1.525-1.927-2.506-2.52-.981-.591-2.087-.887-3.318-.887-1.243 0-2.361.296-3.353.887-.992.592-1.833 1.431-2.523 2.52-.689 1.087-1.22 2.412-1.591 3.973-.372 1.561-.557 3.296-.557 5.205zm23.972 15.779c.091-2.722.197-5.471.317-8.244.12-2.774.257-5.504.411-8.19.154-2.686.316-5.301.488-7.846.171-2.544.365-4.949.583-7.213h2.979a85.76 85.76 0 0 1 2.029 4.728c.725 1.82 1.45 3.721 2.175 5.704a306.064 306.064 0 0 1 2.106 5.948c.679 1.983 1.299 3.795 1.858 5.438.559-1.643 1.179-3.455 1.858-5.438a310.85 310.85 0 0 1 2.106-5.948 210.448 210.448 0 0 1 2.175-5.704 85.325 85.325 0 0 1 2.029-4.728h2.979a757.31 757.31 0 0 1 1.798 31.493h-3.339a990.558 990.558 0 0 0-.419-12.617 387.896 387.896 0 0 0-.625-11.619 74.383 74.383 0 0 0-.925 2.23c-.388.97-.805 2.068-1.25 3.296l-1.421 3.917a229.622 229.622 0 0 0-1.421 4.027 699.747 699.747 0 0 1-1.25 3.629 101.346 101.346 0 0 0-.925 2.763h-2.74c-.229-.725-.537-1.646-.925-2.763a699.747 699.747 0 0 1-1.25-3.629 229.622 229.622 0 0 0-1.421-4.027l-1.421-3.917a123.762 123.762 0 0 0-1.242-3.296 45.23 45.23 0 0 0-.933-2.23 334.856 334.856 0 0 0-.634 11.619c-.16 4.165-.297 8.372-.411 12.617h-3.339zm30.532 0c.091-2.722.197-5.471.317-8.244.12-2.774.257-5.504.411-8.19.154-2.686.316-5.301.488-7.846.171-2.544.365-4.949.583-7.213h2.979a85.76 85.76 0 0 1 2.029 4.728c.725 1.82 1.45 3.721 2.175 5.704a312.915 312.915 0 0 1 2.107 5.948c.679 1.983 1.297 3.795 1.857 5.438.559-1.643 1.178-3.455 1.857-5.438a317.867 317.867 0 0 1 2.106-5.948 213.894 213.894 0 0 1 2.174-5.704 86.032 86.032 0 0 1 2.03-4.728h2.979a759.04 759.04 0 0 1 1.798 31.493H213.5a972.225 972.225 0 0 0-.421-12.617 384.75 384.75 0 0 0-.624-11.619 74.383 74.383 0 0 0-.925 2.23c-.389.97-.805 2.068-1.25 3.296-.445 1.229-.92 2.533-1.421 3.917a221.929 221.929 0 0 0-1.422 4.027 699.747 699.747 0 0 1-1.25 3.629 104.955 104.955 0 0 0-.925 2.763h-2.739c-.229-.725-.537-1.646-.925-2.763a616.563 616.563 0 0 1-1.25-3.629 229.622 229.622 0 0 0-1.421-4.027l-1.421-3.917a123.762 123.762 0 0 0-1.242-3.296 45.23 45.23 0 0 0-.933-2.23 334.856 334.856 0 0 0-.634 11.619c-.16 4.165-.297 8.372-.411 12.617h-3.337zm30.223-15.779c0-2.693.31-5.068.927-7.125s1.462-3.776 2.531-5.16c1.069-1.383 2.314-2.422 3.732-3.118a10.116 10.116 0 0 1 4.513-1.042c1.563 0 3.04.347 4.433 1.042 1.392.696 2.612 1.735 3.662 3.118 1.049 1.384 1.884 3.104 2.506 5.16.623 2.057.933 4.431.933 7.125s-.31 5.071-.933 7.135c-.622 2.065-1.457 3.788-2.506 5.172-1.05 1.384-2.271 2.422-3.662 3.118a9.794 9.794 0 0 1-4.433 1.043 10.13 10.13 0 0 1-4.513-1.043c-1.418-.696-2.663-1.734-3.732-3.118s-1.914-3.107-2.531-5.172c-.618-2.064-.927-4.442-.927-7.135zm3.613 0c0 1.908.186 3.644.556 5.204.371 1.562.9 2.89 1.591 3.984.689 1.095 1.531 1.939 2.523 2.531s2.108.888 3.352.888 2.354-.296 3.328-.888c.974-.592 1.807-1.436 2.497-2.531.69-1.094 1.223-2.422 1.599-3.984.377-1.561.565-3.296.565-5.204 0-1.909-.188-3.644-.565-5.205-.376-1.561-.908-2.885-1.599-3.973-.69-1.088-1.526-1.927-2.506-2.52-.98-.591-2.087-.887-3.319-.887-1.243 0-2.359.296-3.352.887-.992.592-1.834 1.431-2.523 2.52-.69 1.087-1.22 2.412-1.591 3.973-.37 1.561-.556 3.296-.556 5.205zm24.641 15.779v-31.493h2.705c1.097 1.51 2.27 3.274 3.519 5.294a227.14 227.14 0 0 1 3.717 6.226 192.73 192.73 0 0 1 3.476 6.292 121.297 121.297 0 0 1 2.748 5.493v-23.304h3.34v31.493h-2.843a230.6 230.6 0 0 0-1.772-3.773 180.924 180.924 0 0 0-2.158-4.338 291.477 291.477 0 0 0-2.397-4.572 185.45 185.45 0 0 0-4.863-8.534 92.868 92.868 0 0 0-2.132-3.374v24.591h-3.34zm23.665-1.579l1.01-3.628c.536.397 1.355.836 2.458 1.314 1.101.48 2.445.72 4.032.72 3.55 0 5.325-1.571 5.325-4.711 0-.973-.157-1.798-.472-2.477a5.654 5.654 0 0 0-1.275-1.769c-.536-.501-1.149-.933-1.841-1.294s-1.425-.718-2.2-1.073a20.037 20.037 0 0 1-2.526-1.348 9.112 9.112 0 0 1-2.062-1.771c-.582-.677-1.045-1.484-1.387-2.421-.343-.936-.514-2.068-.514-3.395 0-2.76.724-4.917 2.175-6.467 1.449-1.552 3.452-2.326 6.01-2.326 1.478 0 2.821.206 4.03.617 1.209.412 2.094.864 2.655 1.359l-1.106 3.61c-.491-.397-1.225-.785-2.197-1.16-.974-.376-2.1-.564-3.382-.564-.65 0-1.258.092-1.824.276a4.337 4.337 0 0 0-1.48.818 3.76 3.76 0 0 0-1.001 1.383c-.246.56-.369 1.216-.369 1.968 0 .84.129 1.548.385 2.123.258.575.62 1.08 1.088 1.515.468.436 1.014.833 1.636 1.195s1.304.727 2.046 1.094a46.548 46.548 0 0 1 2.902 1.637 9.897 9.897 0 0 1 2.301 1.947c.648.751 1.147 1.647 1.498 2.686.35 1.04.525 2.304.525 3.793 0 2.761-.78 4.887-2.338 6.379-1.56 1.491-3.76 2.237-6.601 2.237-.959 0-1.841-.087-2.646-.257a16.608 16.608 0 0 1-2.157-.607 11.442 11.442 0 0 1-1.635-.73 8.398 8.398 0 0 1-1.063-.673zm-101.46 64.074c0-2.791.423-5.27 1.271-7.435.847-2.164 1.996-3.987 3.446-5.47a14.61 14.61 0 0 1 5.058-3.376c1.921-.768 3.98-1.152 6.176-1.152 1.38 0 2.623.098 3.729.294s2.066.42 2.882.671 1.482.505 2 .764.871.451 1.059.577l-1.341 3.858c-.283-.188-.698-.396-1.247-.624a27.344 27.344 0 0 0-1.858-.682 15.799 15.799 0 0 0-2.271-.554 14.677 14.677 0 0 0-2.482-.211c-1.772 0-3.364.306-4.776.917a9.922 9.922 0 0 0-3.611 2.646c-.996 1.153-1.757 2.557-2.282 4.212-.525 1.654-.788 3.509-.788 5.563 0 1.992.231 3.808.694 5.446.463 1.64 1.161 3.047 2.094 4.224a9.416 9.416 0 0 0 3.494 2.729c1.396.644 3.027.965 4.894.965 2.148 0 3.929-.228 5.34-.683 1.412-.454 2.47-.854 3.176-1.199l1.223 3.858c-.22.156-.624.356-1.211.6-.588.243-1.314.475-2.176.694-.863.219-1.875.411-3.035.576s-2.416.247-3.764.247c-2.353 0-4.49-.389-6.411-1.165a13.73 13.73 0 0 1-4.953-3.376c-1.38-1.474-2.447-3.293-3.2-5.458-.753-2.162-1.13-4.648-1.13-7.456zm29.855 0c0-2.791.424-5.27 1.271-7.435.847-2.164 1.995-3.987 3.446-5.47a14.594 14.594 0 0 1 5.059-3.376c1.921-.768 3.979-1.152 6.176-1.152 1.38 0 2.623.098 3.729.294s2.066.42 2.882.671 1.482.505 2 .764.87.451 1.059.577l-1.341 3.858c-.282-.188-.698-.396-1.247-.624a27.545 27.545 0 0 0-1.858-.682 15.799 15.799 0 0 0-2.271-.554 14.677 14.677 0 0 0-2.482-.211c-1.772 0-3.364.306-4.775.917a9.93 9.93 0 0 0-3.611 2.646c-.996 1.153-1.757 2.557-2.282 4.212-.525 1.654-.788 3.509-.788 5.563 0 1.992.231 3.808.694 5.446.462 1.64 1.16 3.047 2.094 4.224a9.43 9.43 0 0 0 3.493 2.729c1.396.644 3.027.965 4.894.965 2.148 0 3.93-.228 5.341-.683 1.411-.454 2.471-.854 3.176-1.199l1.224 3.858c-.22.156-.623.356-1.212.6-.588.243-1.313.475-2.176.694-.863.219-1.874.411-3.035.576s-2.415.247-3.764.247c-2.354 0-4.49-.389-6.411-1.165a13.727 13.727 0 0 1-4.952-3.376c-1.381-1.474-2.447-3.293-3.2-5.458-.756-2.162-1.133-4.648-1.133-7.456z"/>
</svg>
