<svg xmlns="http://www.w3.org/2000/svg" viewBox="0.445 595.14 400 400" class="brand_color">
  <path fill="none" d="M220.258 601.135a193.896 193.896 0 0 1 43.953 9.671M138.651 610.135a193.798 193.798 0 0 1 38.949-8.67M298.286 626.426c58.098 33.765 97.158 96.678 97.158 168.715 0 107.696-87.304 195-195 195-107.695 0-195-87.304-195-195 0-70.448 37.358-132.171 93.343-166.438"/>
  <path fill="none" d="M253.669 865.717c0-1.869.898-6.077 2.418-7.172 35.395-25.453 51.439-71.913 39.924-115.607-11.973-45.429-51.429-77.156-95.952-77.156-44.508.004-83.955 31.729-95.925 77.156-11.519 43.696 4.526 90.154 39.92 115.607 1.519 1.095 2.418 5.303 2.418 7.172h107.197z"/>
  <path fill="none" d="M146.84 876.815s-.008 22.484-.021 22.675c1.967 28.465 24.979 50.843 52.554 51.097.072-.004.146-.004.218-.004h.244c27.631 0 51.047-22.36 53.116-50.912v-23.384"/>
  <path fill="none"  d="M200.445 589.64v40.5M286.219 608.898l-18.85 35.389M131.909 645.006l-19.842-34.888"/>
</svg>
