<svg xmlns="http://www.w3.org/2000/svg" viewBox="0.445 595.14 400 400" class="brand_color icon--tools">
  <path d="M200.627 666.135c41.36 0 78.181 15.637 106.932 44.387 28.244 28.248 43.373 65.568 43.373 106.428 0 41.363-14.626 77.674-42.867 105.418-29.763 29.252-68.091 44.889-107.438 44.889-39.848 0-77.173-15.637-105.923-44.381-28.749-28.756-44.89-66.586-44.89-105.926 0-39.848 16.141-77.674 44.89-106.932 28.246-28.749 64.565-43.883 105.923-43.883z"/>
  <path d="M198.253 786.359c-10.398-18.965-28.141-26.508-48.737-26.508-29.979 0-53.838 21.203-53.838 57.098 0 36.504 22.433 57.102 54.859 57.102 20.801 0 38.543-11.422 48.331-28.756l-22.84-11.623c-5.102 12.236-12.849 15.902-22.638 15.902-16.927 0-24.674-14.07-24.674-32.625 0-18.559 6.524-32.633 24.674-32.633 4.893 0 14.683 2.656 20.394 14.889l24.469-12.846zm106.203 0c-10.398-18.965-28.142-26.508-48.734-26.508-29.979 0-53.841 21.203-53.841 57.098 0 36.504 22.432 57.102 54.861 57.102 20.8 0 38.54-11.422 48.327-28.756l-22.841-11.623c-5.095 12.236-12.846 15.902-22.637 15.902-16.919 0-24.674-14.07-24.674-32.625 0-18.559 6.53-32.633 24.674-32.633 4.894 0 14.682 2.656 20.401 14.889l24.464-12.846z"/>
  <path fill="#0069cc" stroke="none" d="M48.661 904.955a242.377 242.377 0 0 1-10.053 4.109c.305-.475.76-1.119 1.365-1.932.606-.816 1.303-1.717 2.092-2.707l2.515-3.156a192.155 192.155 0 0 1 2.607-3.203c.851-1.02 1.64-1.971 2.365-2.852a78.42 78.42 0 0 1 1.816-2.143l-1.466-2.971c-.729.053-1.663.1-2.805.139-1.143.041-2.376.088-3.703.143-1.327.057-2.703.098-4.129.123l-4.035.076a89.742 89.742 0 0 1-3.424.008 64.638 64.638 0 0 1-2.359-.082c2.859-1.75 5.986-3.574 9.38-5.473s6.835-3.787 10.324-5.662l-1.786-3.619a545.391 545.391 0 0 0-25.369 14.945l1.594 3.23c1.449.131 3.129.213 5.038.248s3.887.035 5.932.002c2.046-.033 4.079-.09 6.1-.172 2.021-.084 3.868-.16 5.541-.232-1.074 1.285-2.258 2.705-3.553 4.258a258.075 258.075 0 0 0-3.847 4.738c-1.27 1.604-2.472 3.174-3.605 4.711s-2.089 2.92-2.867 4.15l1.595 3.229a185.98 185.98 0 0 0 6.342-2.346c2.22-.865 4.493-1.77 6.82-2.709 2.328-.943 4.684-1.92 7.067-2.936s4.738-2.035 7.063-3.061l-1.786-3.619c-3.61 1.633-7.2 3.221-10.769 4.766zm-11.862-31.748c3.082.312 6.429.633 10.039.963l-1.203-4.545-8.696-.729-3.734-14.117c1.219-.84 2.42-1.654 3.604-2.447a124.93 124.93 0 0 0 3.594-2.488l-1.261-4.764a740.784 740.784 0 0 0-8.256 5.777 482.475 482.475 0 0 0-7.164 5.195c-2.252 1.67-4.393 3.301-6.422 4.895s-4.027 3.23-5.995 4.91l1.057 3.996c2.526.49 5.069.926 7.628 1.307 2.56.379 5.23.738 8.013 1.074 2.782.336 5.715.662 8.796.973zm-19.953-6.561c1.987-1.605 4.078-3.205 6.272-4.795s4.467-3.213 6.816-4.869L33 868.574a270.028 270.028 0 0 1-8.326-.791c-2.685-.301-5.295-.68-7.828-1.137zm21.856-28.797a64.19 64.19 0 0 0-.145-4.303c-.187-2.629-.688-5.018-1.509-7.168s-1.958-3.967-3.414-5.449c-1.455-1.484-3.244-2.584-5.366-3.297-2.123-.717-4.573-.975-7.353-.779-2.778.197-5.164.799-7.157 1.805s-3.609 2.348-4.85 4.02c-1.24 1.674-2.114 3.633-2.624 5.877-.509 2.244-.671 4.682-.484 7.309.092 1.299.249 2.727.474 4.281.224 1.555.531 2.955.923 4.203l31.171-2.205c.228-1.292.339-2.721.334-4.294zm-3.937.018l-24.578 1.738a29.5 29.5 0 0 1-.205-1.443 58.298 58.298 0 0 1-.265-2.939c-.303-4.273.563-7.537 2.598-9.793 2.034-2.252 5.014-3.518 8.94-3.795 3.927-.279 7.055.555 9.386 2.5s3.647 5.055 3.949 9.328c.09 1.27.145 2.252.163 2.947.02.697.024 1.184.012 1.457zm4.864-48.252l-3.796-.391-1.666 16.244-11.16-1.145 1.376-13.418-3.705-.381-1.376 13.42-9.601-.984 1.545-15.068-3.796-.391-2.006 19.564 32.057 3.287 2.128-20.737zm4.47-19.072l1.639-4.213a582.742 582.742 0 0 0-8.18-7.473 222.307 222.307 0 0 0-9.317-7.867c4.338.291 8.394.473 12.168.545 3.773.072 7.467.08 11.079.023l1.639-4.211c-4.197-3.082-8.578-6.301-13.143-9.656a198.383 198.383 0 0 0-14.014-9.42l-1.688 4.34 6.475 4.1 6.324 4.008a123.029 123.029 0 0 1 5.476 3.66l4.457 3.178c-3.486-.021-7.304-.07-11.451-.146s-8.376-.301-12.684-.674l-1.42 3.646c3.426 2.637 6.698 5.311 9.818 8.023s5.971 5.238 8.553 7.58l-5.717-.705c-2.044-.254-4.23-.584-6.559-.996-2.329-.41-4.726-.832-7.191-1.268-2.465-.436-4.935-.871-7.407-1.307l-1.737 4.465c6.213 1.24 12.008 2.146 17.383 2.719s10.541 1.121 15.497 1.649zm-12.745-49.934l27.722 16.432 2.305-3.889-27.723-16.432-2.304 3.889zm24.121-27.783l-3.149-2.387-14.965 19.746 3.149 2.389 6.117-8.072 22.534 17.076 2.729-3.604-22.534-17.076 6.119-8.072zm17.727-22.895l9.134 9.805-11.532 10.742-9.133-9.803-3.307 3.08 21.966 23.578 3.307-3.078-10.14-10.885 11.532-10.744 10.14 10.885 3.307-3.08-21.966-23.58-3.308 3.08zm54.153-2.082c-.978 1.045-2.374 2.07-4.187 3.078-1.575.875-3.103 1.369-4.582 1.48a9.079 9.079 0 0 1-4.227-.664c-1.34-.555-2.588-1.416-3.747-2.582s-2.205-2.59-3.139-4.271c-.963-1.732-1.611-3.422-1.943-5.064-.332-1.641-.349-3.182-.048-4.623a9.56 9.56 0 0 1 1.806-3.926c.905-1.178 2.104-2.182 3.6-3.014.702-.389 1.434-.717 2.194-.984s1.485-.467 2.175-.598c.688-.131 1.318-.23 1.889-.295.569-.066 1.018-.086 1.344-.061l-.677-3.883c-.218-.018-.605-.014-1.164.01-.558.025-1.239.121-2.046.293a23.4 23.4 0 0 0-2.746.785c-1.024.352-2.12.852-3.284 1.498-1.853 1.031-3.41 2.32-4.671 3.869s-2.156 3.289-2.686 5.221c-.529 1.93-.644 4.008-.344 6.23s1.104 4.514 2.413 6.869c1.315 2.369 2.799 4.289 4.449 5.764 1.649 1.473 3.402 2.508 5.258 3.105s3.776.773 5.762.527 3.971-.92 5.955-2.023a25.659 25.659 0 0 0 3.062-1.973c.901-.684 1.665-1.318 2.29-1.908s1.129-1.125 1.511-1.605c.383-.482.63-.84.742-1.076l-2.842-2.682c-.434.623-1.14 1.456-2.117 2.503zm25.57-13.884c-1.162-.893-2.272-1.688-3.329-2.385s-1.925-1.256-2.604-1.678c1.842-1.43 3.052-3.051 3.63-4.863.578-1.814.515-3.729-.189-5.744-1.113-3.186-3.073-5.197-5.882-6.027-2.808-.832-6.356-.5-10.644.998-1.229.43-2.565.955-4.007 1.58-1.441.623-2.713 1.289-3.814 1.994l10.474 29.994 4.267-1.49-4.154-11.9 3.815-1.332 1.212-.422a17.34 17.34 0 0 0 1.153-.451c.779.482 1.674 1.055 2.686 1.721 1.012.664 2.05 1.393 3.113 2.184s2.139 1.639 3.225 2.543a71.406 71.406 0 0 1 3.096 2.719l4.652-1.625a40.248 40.248 0 0 0-3.181-2.979 95.214 95.214 0 0 0-3.519-2.837zm-6.651-9.946c-.177.896-.597 1.691-1.259 2.389-.663.697-1.556 1.32-2.678 1.871-1.122.553-2.412 1.084-3.87 1.594l-3.023 1.055-3.998-11.449c.923-.434 2.292-.967 4.107-1.602a19.85 19.85 0 0 1 3.331-.863c1.077-.174 2.063-.174 2.959.002s1.694.57 2.398 1.184c.702.611 1.254 1.49 1.653 2.633.429 1.229.555 2.292.38 3.186zm20.705 10.698l-1.913-11.055 13.293-2.299-.635-3.67-13.292 2.299-1.646-9.512 14.926-2.582-.65-3.758-19.379 3.352 5.493 31.754 20.542-3.553-.65-3.76-16.089 2.784zm40.718-17.286a282.434 282.434 0 0 0-3.209-7.408 189.476 189.476 0 0 0-3.327-6.998l-4.133.066c-1.083 2.334-2.115 4.699-3.099 7.092s-1.973 4.9-2.968 7.52a474.939 474.939 0 0 0-3.057 8.307 1019.072 1019.072 0 0 0-3.343 9.514l4.7-.076 2.796-8.268 14.601-.236a330.754 330.754 0 0 1 1.509 4.086c.483 1.34 1.001 2.703 1.554 4.086l4.928-.078c-1.282-3.387-2.491-6.521-3.628-9.402s-2.245-5.617-3.324-8.205zm-14.382 6.004a262.908 262.908 0 0 1 2.768-7.893c.936-2.537 1.93-4.979 2.981-7.328a148.394 148.394 0 0 1 3.149 7.24 614.96 614.96 0 0 1 3.091 7.785l-11.989.196zm50.777-15.824l-24.452-3.996-.638 3.898 9.996 1.635-4.562 27.902 4.46.73 4.562-27.904 9.996 1.635.638-3.9zm-1.561 33.205l4.348 1.232 8.792-31.002-4.349-1.232-8.791 31.002zm47.746-16.383l-4.449-1.898a1077.29 1077.29 0 0 1-10.044 11.096c-3.259 3.547-6.448 6.795-9.566 9.744-.018-4.32.124-8.873.422-13.66.298-4.785.638-9.766 1.017-14.936l-4.595-1.963a296.15 296.15 0 0 0-.621 10.02c-.136 3.096-.238 6.043-.307 8.846s-.104 5.49-.108 8.064c-.005 2.574.023 5.143.083 7.703l3.885 1.658a294.949 294.949 0 0 0 11.347-10.936 417.17 417.17 0 0 0 6.123-6.363 526.923 526.923 0 0 0 6.813-7.375zm21.838 18.264l2.062-3.211-16.547-10.629-17.417 27.111 17.539 11.27 2.062-3.211-13.737-8.824 6.063-9.439 11.35 7.291 2.013-3.135-11.35-7.289 5.218-8.121 12.744 8.187zm7.68 29.305c.817-1.428 1.913-2.812 3.285-4.158 1.417-1.389 2.872-2.461 4.369-3.217 1.495-.756 2.977-1.18 4.444-1.271a9.553 9.553 0 0 1 4.265.701c1.376.561 2.662 1.449 3.859 2.672a14.13 14.13 0 0 1 1.531 1.855c.459.662.844 1.309 1.153 1.938.309.629.57 1.211.785 1.742.214.533.352.959.413 1.281l3.565-1.682c-.04-.215-.146-.588-.317-1.121-.172-.531-.446-1.162-.824-1.895a23.594 23.594 0 0 0-1.485-2.439c-.611-.895-1.385-1.818-2.316-2.77-1.483-1.514-3.14-2.674-4.968-3.479s-3.743-1.207-5.745-1.207c-2.002.002-4.035.441-6.1 1.32s-4.059 2.262-5.983 4.148c-1.936 1.896-3.395 3.836-4.378 5.816-.984 1.98-1.518 3.945-1.602 5.895a13.255 13.255 0 0 0 1.019 5.693c.763 1.85 1.939 3.586 3.529 5.207.911.932 1.815 1.74 2.713 2.428a27.685 27.685 0 0 0 2.448 1.703c.734.447 1.384.791 1.949 1.031.564.242.976.385 1.232.43l1.833-3.449c-.715-.254-1.706-.713-2.974-1.379s-2.627-1.738-4.078-3.221c-1.261-1.287-2.142-2.629-2.642-4.025s-.659-2.814-.479-4.252c.183-1.436.681-2.87 1.499-4.295zm31.294 43.092c2.216-.48 4.472-1.48 6.769-3.004s4.094-3.209 5.393-5.059c1.298-1.852 2.152-3.748 2.563-5.689a13.62 13.62 0 0 0-.024-5.811c-.428-1.932-1.214-3.762-2.358-5.488-1.166-1.758-2.565-3.225-4.198-4.4-1.633-1.174-3.431-1.961-5.395-2.361s-4.05-.359-6.256.119c-2.207.48-4.458 1.482-6.755 3.006-2.296 1.523-4.099 3.207-5.406 5.059-1.307 1.85-2.158 3.756-2.554 5.721a13.883 13.883 0 0 0 .076 5.891c.446 1.961 1.253 3.82 2.418 5.578 1.146 1.727 2.524 3.164 4.138 4.309s3.394 1.906 5.343 2.285c1.947.375 4.03.324 6.246-.156zm-12.484-8.7c-.911-1.373-1.479-2.775-1.7-4.207a9.254 9.254 0 0 1 .309-4.221c.428-1.381 1.172-2.719 2.231-4.01 1.06-1.293 2.403-2.479 4.031-3.559 1.628-1.078 3.243-1.855 4.846-2.328s3.121-.637 4.554-.488c1.433.146 2.766.604 3.997 1.365s2.304 1.83 3.215 3.203c.902 1.361 1.461 2.752 1.675 4.17a9.375 9.375 0 0 1-.312 4.195c-.422 1.377-1.16 2.715-2.216 4.014s-2.396 2.488-4.024 3.566c-1.628 1.08-3.245 1.854-4.853 2.318-1.607.469-3.13.631-4.569.486s-2.77-.588-3.988-1.33c-1.221-.742-2.285-1.799-3.196-3.174zm15.891 15.616a703.143 703.143 0 0 0-8.044 2.58l1.561 4.145a898.03 898.03 0 0 1 12.274-4.039 263.988 263.988 0 0 1 11.423-3.4 42.038 42.038 0 0 1-1.7 1.961c-.75.824-1.607 1.734-2.576 2.73s-1.997 2.053-3.087 3.176a217.811 217.811 0 0 1-3.194 3.217 747.71 747.71 0 0 0-2.891 2.859c-.889.883-1.627 1.6-2.214 2.143l1.28 3.4c.801.023 1.827.074 3.078.152s2.604.16 4.059.244c1.455.084 2.963.188 4.522.311 1.559.125 3.031.242 4.415.354 1.384.109 2.631.23 3.74.363 1.109.131 1.965.246 2.568.344a304.2 304.2 0 0 1-10.834 4.963 791.207 791.207 0 0 1-11.888 5.07l1.561 4.145c10.199-4.406 19.972-8.934 29.318-13.586l-1.392-3.697c-1.568-.301-3.394-.57-5.475-.814a188.327 188.327 0 0 0-6.479-.643c-2.238-.186-4.465-.342-6.681-.471s-4.241-.244-6.075-.346c1.312-1.287 2.758-2.709 4.34-4.266a286.305 286.305 0 0 0 4.712-4.758 191.535 191.535 0 0 0 4.445-4.756c1.404-1.557 2.598-2.965 3.579-4.225l-1.392-3.697c-2.27.547-4.663 1.174-7.18 1.877a606.847 606.847 0 0 0-7.741 2.225 455.95 455.95 0 0 0-8.032 2.439zm21.903 37.933c-2.752.129-5.547.287-8.384.473s-5.646.387-8.426.604l.536 4.396c4.331-.375 8.625-.717 12.881-1.021 4.257-.305 8.225-.506 11.903-.604-.487.379-1.192.879-2.115 1.504a114.95 114.95 0 0 1-3.148 2.043l-3.751 2.355a197.623 197.623 0 0 1-3.863 2.369 602.81 602.81 0 0 0-3.485 2.096 96.317 96.317 0 0 1-2.658 1.559l.439 3.607c.773.211 1.758.502 2.955.875s2.492.771 3.887 1.197c1.394.424 2.834.881 4.319 1.371l4.207 1.387a98.57 98.57 0 0 1 3.548 1.236c1.047.393 1.852.705 2.415.943a310.787 310.787 0 0 1-11.701 2.262 784.61 784.61 0 0 1-12.749 2.113l.536 4.396c10.951-1.869 21.519-3.959 31.7-6.268l-.479-3.922c-1.453-.662-3.162-1.357-5.127-2.086s-4.013-1.447-6.143-2.158c-2.13-.709-4.257-1.387-6.38-2.035s-4.062-1.24-5.821-1.773c1.579-.939 3.32-1.979 5.225-3.119a270.307 270.307 0 0 0 5.704-3.508c1.897-1.201 3.712-2.391 5.444-3.57s3.225-2.266 4.476-3.256l-.478-3.924a210.26 210.26 0 0 0-7.42.127c-2.612.091-5.294.2-8.047.331zm15.288 46.756c-1.265-1.555-2.902-2.846-4.913-3.873-2.012-1.027-4.388-1.682-7.129-1.959-2.741-.279-5.204-.117-7.388.484s-4.052 1.537-5.604 2.807a13.895 13.895 0 0 0-3.675 4.602c-.897 1.799-1.453 3.748-1.666 5.848-.21 2.062-.054 4.047.468 5.955.521 1.908 1.416 3.627 2.684 5.154s2.91 2.809 4.929 3.842c2.018 1.033 4.397 1.689 7.139 1.969 2.741.277 5.2.113 7.377-.494 2.178-.609 4.04-1.533 5.59-2.775a13.584 13.584 0 0 0 3.665-4.508c.894-1.766 1.446-3.68 1.655-5.74.213-2.098.061-4.119-.457-6.062a13.892 13.892 0 0 0-2.675-5.25zm-.79 10.82c-.165 1.625-.615 3.055-1.349 4.287a9.362 9.362 0 0 1-2.9 3.047c-1.199.797-2.619 1.363-4.258 1.699-1.64.334-3.432.404-5.374.207-1.943-.197-3.685-.625-5.223-1.283-1.539-.658-2.819-1.498-3.842-2.521s-1.769-2.209-2.241-3.559c-.472-1.348-.624-2.84-.457-4.48.166-1.641.617-3.084 1.353-4.332s1.707-2.271 2.914-3.066c1.206-.799 2.63-1.359 4.269-1.688s3.43-.393 5.372-.195c1.943.197 3.685.621 5.224 1.271 1.54.65 2.817 1.486 3.832 2.51a9.325 9.325 0 0 1 2.226 3.588c.468 1.371.62 2.877.454 4.515zm-33.054 21.557l23.983 7.613a96.61 96.61 0 0 1-4.146 1.65 192.88 192.88 0 0 1-4.92 1.762 174.122 174.122 0 0 1-5.354 1.744c-1.84.566-3.647 1.105-5.421 1.615-1.773.508-3.474.971-5.098 1.383a215.18 215.18 0 0 1-4.391 1.074l-1.141 3.592 30.715 9.75 1.341-4.221-22.729-7.215c1.856-.443 4.01-1.035 6.46-1.773s4.961-1.555 7.531-2.445a234.95 234.95 0 0 0 7.562-2.77c2.472-.955 4.663-1.893 6.574-2.811l1.086-3.42-30.715-9.75-1.337 4.222zm12.65 35.988c-1.204-.629-2.336-.961-3.396-1.002a7.801 7.801 0 0 0-3.047.486c-.973.365-1.929.895-2.87 1.592a29.587 29.587 0 0 0-2.771 2.334c-.798.744-1.571 1.438-2.322 2.08s-1.518 1.16-2.302 1.553c-.783.395-1.579.617-2.387.666s-1.653-.158-2.537-.617c-2.85-1.484-3.188-4.314-1.012-8.492.972-1.865 2.013-3.334 3.122-4.402 1.11-1.068 2.011-1.826 2.7-2.27l-2.674-2.902c-.331.203-.752.514-1.262.93-.512.416-1.065.943-1.664 1.578a26.776 26.776 0 0 0-1.873 2.252 21.605 21.605 0 0 0-1.854 2.99c-1.741 3.344-2.412 6.283-2.014 8.822.399 2.537 1.852 4.459 4.357 5.766 1.352.703 2.605 1.094 3.764 1.174a7.89 7.89 0 0 0 3.357-.494c1.079-.408 2.138-1.002 3.175-1.785a66.449 66.449 0 0 0 3.264-2.639 54.646 54.646 0 0 1 2.247-1.891 12.296 12.296 0 0 1 2.086-1.357c.681-.346 1.361-.533 2.041-.562.679-.031 1.399.152 2.162.551.683.354 1.203.809 1.561 1.363.358.553.571 1.164.642 1.83a6.376 6.376 0 0 1-.165 2.129 9.908 9.908 0 0 1-.867 2.275c-.785 1.508-1.646 2.746-2.583 3.713-.938.965-1.737 1.645-2.4 2.035l2.6 3.008c.792-.426 1.745-1.254 2.859-2.48 1.114-1.229 2.124-2.711 3.029-4.449 1.567-3.008 2.091-5.73 1.571-8.17-.519-2.439-2.032-4.312-4.537-5.615z"/>
</svg>
