<?xml version="1.0" encoding="utf-8"?>
<!-- Generator: Adobe Illustrator 15.0.0, SVG Export Plug-In . SVG Version: 6.00 Build 0)  -->
<!DOCTYPE svg PUBLIC "-//W3C//DTD SVG 1.1//EN" "http://www.w3.org/Graphics/SVG/1.1/DTD/svg11.dtd">
<svg version="1.1" xmlns="http://www.w3.org/2000/svg" xmlns:xlink="http://www.w3.org/1999/xlink" x="0px" y="0px" width="400px"
	 height="400px" viewBox="0 0 400 400" enable-background="new 0 0 400 400" xml:space="preserve">
<g id="Layer_2">
</g>
<g id="Layer_1">
	<path fill="none" stroke="#000000" stroke-width="4" stroke-miterlimit="10" d="M286.266,27.018
		c-2.736-14.605-16.868-24.279-31.473-21.542L103.43,33.826C88.821,36.562,79.147,50.695,81.883,65.3l57.636,307.714
		c2.727,14.546,16.858,24.223,31.466,21.484l151.421-28.362c8.416-1.575,23.259-11.776,19.751-30.5
		C338.95,318.524,286.266,27.018,286.266,27.018L286.266,27.018z"/>
	<path fill="#FFFFFF" stroke="#000000" stroke-width="4" stroke-miterlimit="10" d="M94.483,66.133l180.336-33.778l57.077,304.721
		l-180.338,33.779L94.483,66.133z"/>
	<g>
		<path d="M159.137,120.55c-0.33-2.164-0.654-4.351-0.97-6.56c-0.317-2.21-0.609-4.385-0.886-6.53
			c-0.277-2.144-0.534-4.233-0.776-6.27c-0.24-2.035-0.443-3.963-0.608-5.782l2.354-0.441c0.802,1.121,1.568,2.266,2.302,3.433
			c0.873,1.382,1.726,2.776,2.561,4.185c0.869,1.458,1.715,2.921,2.544,4.387c0.832,1.466,1.588,2.806,2.272,4.02
			c0.201-1.379,0.42-2.902,0.665-4.569c0.244-1.674,0.505-3.344,0.781-5.01c0.269-1.615,0.56-3.223,0.873-4.83
			c0.261-1.352,0.563-2.699,0.904-4.032l2.354-0.442c2.197,8.16,4.224,16.365,6.078,24.611l-2.636,0.494
			c-0.712-3.307-1.445-6.608-2.197-9.905c-0.693-3.04-1.433-6.067-2.214-9.084c-0.143,0.631-0.278,1.263-0.401,1.898
			c-0.163,0.822-0.33,1.752-0.499,2.788l-0.543,3.303c-0.187,1.13-0.361,2.26-0.524,3.392c-0.161,1.096-0.313,2.112-0.453,3.052
			c-0.14,0.939-0.249,1.711-0.319,2.32l-2.164,0.404c-0.288-0.54-0.669-1.221-1.141-2.046c-0.51-0.893-1.018-1.787-1.524-2.681
			c-0.564-0.996-1.137-1.987-1.718-2.973l-1.704-2.882c-0.477-0.813-0.967-1.621-1.466-2.42c-0.341-0.55-0.698-1.091-1.065-1.623
			c0.351,3.098,0.756,6.188,1.216,9.271c0.49,3.314,1.007,6.655,1.543,10.027L159.137,120.55L159.137,120.55z"/>
		<path d="M196.101,106.067c-1.017-2.013-2.047-4.019-3.093-6.018c-0.953-1.815-1.926-3.619-2.918-5.412
			c-0.95-1.71-1.928-3.406-2.935-5.085l-2.461,0.461c-0.334,1.925-0.635,3.856-0.896,5.793c-0.276,2.034-0.529,4.072-0.763,6.11
			c-0.251,2.243-0.487,4.485-0.706,6.73c-0.229,2.359-0.468,4.925-0.715,7.693l2.804-0.526l0.556-6.673l8.695-1.629
			c0.499,1.021,0.983,2.025,1.451,3.013c0.473,0.989,0.965,1.991,1.483,3.008l2.935-0.549
			C198.405,110.671,197.261,108.367,196.101,106.067z M185.217,106.12c0.171-2.128,0.367-4.256,0.593-6.379
			c0.207-1.996,0.473-3.984,0.794-5.965c0.99,1.742,1.944,3.506,2.857,5.289c0.978,1.902,1.942,3.807,2.899,5.717L185.217,106.12z"
			/>
		<path d="M213.736,91.613c-0.814-1.492-1.788-2.673-2.927-3.543c-1.121-0.86-2.429-1.446-3.82-1.706
			c-1.405-0.27-2.896-0.257-4.466,0.037c-0.772,0.145-1.62,0.351-2.539,0.612c-0.915,0.261-1.729,0.581-2.444,0.957l4.521,24.124
			c0.802,0.1,1.677,0.107,2.625,0.014c0.867-0.081,1.731-0.2,2.586-0.356c1.571-0.293,2.964-0.821,4.178-1.579
			c1.201-0.746,2.208-1.761,2.945-2.967c0.745-1.216,1.23-2.669,1.445-4.362c0.215-1.692,0.119-3.612-0.282-5.762
			C215.154,94.931,214.547,93.109,213.736,91.613z M212.153,105.057c-0.938,1.925-2.687,3.125-5.234,3.602
			c-0.759,0.143-1.346,0.24-1.768,0.296c-0.418,0.055-0.71,0.085-0.877,0.092l-3.565-19.022c0.16-0.054,0.442-0.136,0.852-0.241
			c0.412-0.107,0.992-0.232,1.753-0.374c2.553-0.478,4.612,0.011,6.181,1.463c1.57,1.456,2.641,3.7,3.208,6.74
			C213.272,100.652,213.089,103.132,212.153,105.057z"/>
		<polygon points="221.883,108.796 217.221,83.92 228.934,81.727 229.485,84.672 220.466,86.362 221.861,93.813 229.895,92.307 
			230.434,95.182 222.4,96.688 224.021,105.349 233.744,103.528 234.298,106.471 		"/>
		<path d="M163.98,125.591l2.854-0.534l1.94,5.53c0.647,1.84,1.275,3.63,1.884,5.37c0.614,1.738,1.211,3.348,1.805,4.834
			l1.647,4.152c0.295-2.905,0.564-5.811,0.809-8.718c0.275-3.243,0.472-6.493,0.589-9.746l2.331-0.438
			c1.289,2.994,2.661,5.952,4.111,8.871c1.416,2.844,2.731,5.455,3.943,7.831l0.033-4.246c0.013-1.536-0.015-3.243-0.079-5.122
			l-0.207-5.834l-0.209-5.97l2.771-0.519c0.207,4.374,0.268,8.752,0.18,13.13c-0.083,4.386-0.162,8.597-0.24,12.629l-2.692,0.506
			c-1.295-2.433-2.586-4.943-3.872-7.532c-1.291-2.591-2.621-5.412-3.998-8.47c-0.174,3.348-0.403,6.464-0.683,9.347
			c-0.282,2.882-0.577,5.69-0.888,8.421l-2.69,0.504l-4.608-11.152C167.111,134.565,165.536,130.286,163.98,125.591L163.98,125.591z
			"/>
		
			<rect x="182.336" y="131.288" transform="matrix(0.1841 0.9829 -0.9829 0.1841 289.4904 -83.4184)" width="25.308" height="2.737"/>
		<polygon points="197.392,122.49 196.819,119.44 211.576,116.675 212.148,119.726 206.114,120.856 210.202,142.681 
			207.512,143.187 203.422,121.36 197.392,122.49 		"/>
		<polygon points="219.062,141.021 214.402,116.146 217.095,115.642 219.033,125.985 228.42,124.226 226.481,113.884 
			229.172,113.379 233.832,138.256 231.14,138.76 228.99,127.277 219.604,129.035 221.753,140.519 		"/>
		<path d="M140.939,174.45c-0.389-2.08-0.493-3.972-0.31-5.675c0.188-1.705,0.592-3.187,1.22-4.448
			c0.627-1.261,1.439-2.28,2.436-3.061c0.99-0.776,2.151-1.299,3.391-1.523c0.794-0.148,1.522-0.21,2.187-0.183
			c0.66,0.028,1.245,0.091,1.751,0.188c0.501,0.101,0.923,0.218,1.257,0.355c0.332,0.138,0.56,0.243,0.688,0.315l-0.232,3.02
			c-0.188-0.11-0.455-0.221-0.804-0.331c-0.347-0.11-0.735-0.213-1.163-0.308c-0.456-0.099-0.917-0.153-1.383-0.168
			c-0.489-0.017-0.978,0.021-1.458,0.11c-1.02,0.191-1.889,0.59-2.615,1.199c-0.727,0.608-1.295,1.395-1.707,2.36
			c-0.413,0.967-0.653,2.095-0.725,3.384c-0.07,1.291,0.036,2.699,0.322,4.232c0.279,1.483,0.666,2.812,1.161,3.983
			c0.493,1.172,1.09,2.146,1.792,2.922c0.699,0.776,1.495,1.329,2.39,1.657c0.892,0.329,1.876,0.394,2.949,0.192
			c1.232-0.232,2.227-0.592,2.975-1.084c0.747-0.491,1.301-0.904,1.656-1.236l1.242,2.743c-0.102,0.14-0.309,0.332-0.611,0.579
			c-0.303,0.242-0.691,0.493-1.155,0.75c-0.537,0.288-1.095,0.543-1.663,0.755c-0.646,0.248-1.355,0.445-2.13,0.591
			c-1.352,0.251-2.637,0.194-3.85-0.18c-1.214-0.37-2.316-1.031-3.317-1.979c-1-0.954-1.865-2.191-2.603-3.725
			C141.894,178.356,141.332,176.543,140.939,174.45z"/>
		<path d="M173.996,178.078c-0.64-0.915-1.3-1.812-1.977-2.699c-0.605-0.793-1.232-1.568-1.888-2.324
			c-0.605-0.692-1.099-1.247-1.487-1.672c1.207-0.819,2.043-1.879,2.502-3.181c0.464-1.301,0.539-2.776,0.23-4.425
			c-0.489-2.604-1.564-4.437-3.228-5.491c-1.663-1.056-3.846-1.332-6.553-0.824c-0.854,0.164-1.702,0.369-2.535,0.612
			c-0.919,0.262-1.733,0.582-2.448,0.956l4.596,24.526l2.689-0.504l-1.823-9.729l3.173-0.595c0.247-0.046,0.493-0.102,0.731-0.172
			c0.518,0.565,1.031,1.138,1.533,1.717c0.609,0.695,1.198,1.411,1.771,2.137c0.623,0.796,1.229,1.604,1.813,2.427
			c0.598,0.834,1.17,1.683,1.726,2.544l2.937-0.549C175.212,179.887,174.625,178.965,173.996,178.078z M167.646,168.415
			c-0.445,0.435-1.028,0.78-1.744,1.035c-0.717,0.253-1.535,0.469-2.455,0.641l-1.908,0.358l-1.755-9.362
			c0.589-0.194,1.458-0.4,2.603-0.615c0.685-0.132,1.385-0.186,2.084-0.164c0.667,0.028,1.271,0.174,1.805,0.443
			c0.537,0.271,0.999,0.69,1.392,1.263c0.393,0.575,0.675,1.33,0.85,2.264c0.19,1.006,0.203,1.837,0.044,2.496
			C168.396,167.433,168.093,167.98,167.646,168.415z"/>
		<polygon points="178.629,180.293 173.971,155.417 185.685,153.223 186.233,156.167 177.213,157.857 178.607,165.31 
			186.644,163.804 187.18,166.68 179.146,168.184 180.77,176.845 190.495,175.023 191.046,177.968 178.629,180.294 		"/>
		<path d="M206.762,167.467c-1.017-2.016-2.047-4.019-3.093-6.017c-0.997-1.896-1.968-3.699-2.921-5.415
			c-0.95-1.715-1.93-3.41-2.932-5.085l-2.461,0.46c-0.334,1.927-0.635,3.857-0.896,5.794c-0.277,2.035-0.528,4.072-0.76,6.111
			c-0.253,2.242-0.491,4.486-0.708,6.728c-0.23,2.361-0.468,4.924-0.715,7.693v0.002l2.801-0.525l0.554-6.674l8.697-1.629
			c0.491,1.002,0.976,2.006,1.454,3.012c0.479,1.011,0.974,2.014,1.481,3.01l2.935-0.551
			C209.065,172.07,207.921,169.765,206.762,167.467z M195.88,167.518c0.175-2.199,0.374-4.326,0.589-6.38
			c0.217-2.055,0.482-4.042,0.796-5.964c0.99,1.743,1.942,3.506,2.857,5.289c0.978,1.901,1.942,3.808,2.899,5.718L195.88,167.518z"
			/>
		<polygon points="206.772,152.431 206.2,149.38 220.959,146.614 221.531,149.665 215.495,150.796 219.585,172.621 216.893,173.126 
			212.805,151.299 		"/>
		
			<rect x="214.806" y="156.901" transform="matrix(0.1841 0.9829 -0.9829 0.1841 341.1597 -94.4337)" width="25.307" height="2.741"/>
		<path d="M229.113,145.087l2.975-0.557c1.711,3.599,3.371,7.053,4.979,10.361c1.517,3.133,3.116,6.224,4.805,9.272
			c0.446-3.23,0.822-6.685,1.121-10.372c0.299-3.686,0.587-7.508,0.863-11.467l2.882-0.54c-0.213,2.762-0.428,5.321-0.644,7.679
			c-0.215,2.358-0.438,4.597-0.672,6.721c-0.222,2.035-0.466,4.07-0.731,6.1c-0.257,1.931-0.534,3.861-0.829,5.788l-2.517,0.472
			c-0.974-1.689-1.926-3.389-2.866-5.096c-0.985-1.797-1.953-3.603-2.903-5.418c-0.994-1.896-2.026-3.898-3.096-6.016
			C231.413,149.898,230.29,147.591,229.113,145.087L229.113,145.087z"/>
		<polygon points="254.049,166.166 249.389,141.291 261.103,139.097 261.652,142.042 252.633,143.732 254.028,151.183 
			262.06,149.679 262.599,152.554 254.567,154.058 256.188,162.717 265.913,160.897 266.465,163.842 254.049,166.168 		"/>
		<path d="M141.094,206.119c-0.389-2.08-0.488-3.974-0.307-5.677c0.186-1.705,0.591-3.187,1.218-4.446
			c0.629-1.263,1.441-2.28,2.439-3.061c0.99-0.776,2.151-1.298,3.388-1.523c0.794-0.149,1.522-0.212,2.185-0.183
			c0.662,0.026,1.245,0.089,1.751,0.188c0.505,0.099,0.923,0.218,1.257,0.353c0.335,0.14,0.562,0.246,0.689,0.316l-0.231,3.02
			c-0.19-0.11-0.458-0.221-0.805-0.331c-0.347-0.11-0.734-0.212-1.165-0.307c-0.455-0.1-0.917-0.154-1.381-0.168
			c-0.486-0.016-0.976,0.019-1.456,0.11c-1.019,0.19-1.893,0.592-2.619,1.199c-0.725,0.607-1.295,1.395-1.704,2.361
			c-0.414,0.966-0.656,2.093-0.728,3.382c-0.07,1.289,0.038,2.703,0.324,4.232c0.277,1.484,0.666,2.813,1.159,3.984
			c0.495,1.172,1.091,2.145,1.797,2.921c0.697,0.776,1.493,1.329,2.385,1.657c0.895,0.329,1.878,0.395,2.949,0.193
			c1.236-0.232,2.229-0.596,2.975-1.087c0.748-0.49,1.304-0.901,1.66-1.234l1.241,2.743c-0.104,0.141-0.308,0.334-0.612,0.576
			c-0.363,0.283-0.748,0.534-1.155,0.752c-0.536,0.289-1.092,0.543-1.664,0.756c-0.644,0.248-1.354,0.443-2.131,0.59
			c-1.35,0.252-2.636,0.193-3.848-0.178c-1.213-0.371-2.318-1.031-3.316-1.983c-1.001-0.951-1.867-2.188-2.603-3.722
			S141.486,208.211,141.094,206.119z"/>
		<path d="M174.823,193.977c-0.794-1.534-1.711-2.766-2.745-3.706c-1.031-0.936-2.149-1.576-3.354-1.92
			c-1.198-0.344-2.419-0.398-3.651-0.166c-1.238,0.225-2.406,0.735-3.412,1.489c-1.018,0.76-1.847,1.766-2.486,3.015
			c-0.641,1.252-1.053,2.734-1.236,4.45c-0.184,1.716-0.077,3.637,0.321,5.763c0.399,2.13,0.995,3.962,1.788,5.501
			c0.794,1.54,1.717,2.776,2.766,3.709c1.049,0.935,2.185,1.57,3.409,1.911c1.222,0.338,2.463,0.391,3.718,0.154
			c1.216-0.223,2.362-0.729,3.346-1.479c0.999-0.756,1.808-1.756,2.432-3.005c0.627-1.246,1.03-2.731,1.216-4.454
			c0.188-1.723,0.079-3.646-0.317-5.774C176.214,197.338,175.619,195.509,174.823,193.977z M174.084,204.193
			c-0.065,1.29-0.289,2.42-0.673,3.383c-0.385,0.969-0.915,1.758-1.601,2.371c-0.681,0.611-1.514,1.009-2.496,1.192
			c-0.981,0.185-1.906,0.117-2.779-0.204c-0.869-0.322-1.659-0.863-2.367-1.627c-0.708-0.76-1.322-1.733-1.844-2.911
			c-0.524-1.179-0.928-2.519-1.212-4.028c-0.282-1.508-0.393-2.906-0.33-4.193c0.062-1.288,0.286-2.413,0.669-3.374
			c0.384-0.962,0.927-1.75,1.62-2.363c0.698-0.613,1.536-1.012,2.52-1.197c0.969-0.183,1.888-0.113,2.751,0.209
			c0.862,0.325,1.646,0.866,2.354,1.62c0.704,0.757,1.32,1.726,1.849,2.902c0.528,1.176,0.934,2.52,1.216,4.028
			C174.042,201.511,174.15,202.904,174.084,204.193z"/>
		<path d="M182.384,211.286c-0.334-2.164-0.655-4.351-0.971-6.559s-0.612-4.383-0.888-6.529c-0.275-2.146-0.535-4.235-0.775-6.27
			c-0.24-2.036-0.442-3.962-0.605-5.785l2.354-0.44c0.798,1.122,1.566,2.269,2.302,3.435c0.842,1.332,1.693,2.726,2.561,4.184
			c0.864,1.453,1.711,2.915,2.542,4.386c0.831,1.466,1.59,2.806,2.274,4.021c0.196-1.381,0.422-2.904,0.664-4.57
			c0.242-1.673,0.502-3.342,0.781-5.01c0.268-1.614,0.56-3.222,0.873-4.828c0.264-1.354,0.562-2.699,0.904-4.034l2.353-0.441
			c2.199,8.161,4.226,16.365,6.08,24.609l-2.636,0.494c-0.715-3.305-1.445-6.606-2.197-9.903c-0.693-3.041-1.431-6.069-2.215-9.085
			c-0.144,0.631-0.275,1.262-0.4,1.898c-0.163,0.823-0.33,1.752-0.499,2.787l-0.544,3.306c-0.186,1.129-0.361,2.258-0.528,3.39
			c-0.146,1.02-0.296,2.035-0.446,3.053c-0.119,0.771-0.228,1.543-0.324,2.318l-2.162,0.406c-0.288-0.539-0.668-1.222-1.143-2.045
			c-0.509-0.894-1.017-1.787-1.522-2.683c-0.563-0.995-1.136-1.985-1.719-2.97l-1.702-2.883c-0.477-0.813-0.97-1.622-1.469-2.421
			c-0.341-0.55-0.697-1.093-1.067-1.623c0.354,3.098,0.759,6.189,1.22,9.271c0.489,3.313,1.003,6.657,1.542,10.026L182.384,211.286
			L182.384,211.286z"/>
		<path d="M206.501,206.77c-0.334-2.164-0.656-4.352-0.97-6.559c-0.317-2.208-0.613-4.384-0.89-6.53
			c-0.275-2.146-0.534-4.234-0.774-6.27c-0.24-2.035-0.445-3.962-0.608-5.784l2.356-0.442c0.802,1.122,1.568,2.269,2.302,3.436
			c0.84,1.331,1.696,2.724,2.561,4.184c0.865,1.454,1.713,2.915,2.544,4.387c0.832,1.465,1.588,2.804,2.273,4.021
			c0.196-1.381,0.417-2.904,0.662-4.57c0.244-1.674,0.505-3.344,0.783-5.01c0.267-1.612,0.56-3.223,0.873-4.828
			c0.259-1.354,0.563-2.697,0.904-4.035l2.354-0.44c2.193,8.16,4.222,16.367,6.078,24.61l-2.638,0.494
			c-0.712-3.306-1.443-6.607-2.199-9.903c-0.691-3.041-1.429-6.07-2.21-9.086c-0.146,0.632-0.28,1.264-0.403,1.899
			c-0.163,0.823-0.328,1.752-0.499,2.789c-0.169,1.036-0.351,2.137-0.543,3.304c-0.186,1.128-0.361,2.259-0.526,3.39
			c-0.146,1.02-0.299,2.036-0.451,3.053c-0.117,0.77-0.226,1.543-0.322,2.318l-2.163,0.404c-0.289-0.537-0.669-1.22-1.141-2.044
			c-0.51-0.893-1.018-1.786-1.523-2.682c-0.562-0.997-1.136-1.985-1.719-2.969l-1.7-2.885c-0.48-0.813-0.969-1.622-1.471-2.42
			c-0.34-0.551-0.697-1.093-1.064-1.624c0.351,3.097,0.758,6.189,1.215,9.272c0.493,3.313,1.007,6.655,1.546,10.026L206.501,206.77
			L206.501,206.77z"/>
		<path d="M244.6,180.906c-0.798-1.533-1.709-2.766-2.74-3.704c-1.036-0.937-2.153-1.577-3.354-1.922
			c-1.203-0.343-2.421-0.398-3.657-0.167c-1.234,0.227-2.404,0.736-3.411,1.49c-1.018,0.761-1.847,1.765-2.485,3.015
			c-0.64,1.253-1.053,2.734-1.237,4.451c-0.182,1.715-0.075,3.637,0.322,5.765c0.398,2.128,0.994,3.96,1.788,5.499
			c0.793,1.54,1.717,2.776,2.766,3.71c1.048,0.934,2.185,1.569,3.408,1.911c1.212,0.337,2.485,0.392,3.718,0.154
			c1.218-0.224,2.364-0.729,3.351-1.478c0.994-0.757,1.805-1.757,2.432-3.006c0.622-1.248,1.025-2.732,1.211-4.455
			c0.188-1.722,0.08-3.646-0.317-5.774C245.993,184.269,245.397,182.438,244.6,180.906z M243.86,191.124
			c-0.062,1.29-0.288,2.421-0.673,3.384c-0.384,0.969-0.915,1.757-1.596,2.371c-0.683,0.611-1.517,1.009-2.498,1.192
			c-0.984,0.184-1.909,0.116-2.778-0.206c-0.873-0.321-1.662-0.861-2.368-1.627c-0.708-0.759-1.322-1.733-1.847-2.911
			c-0.524-1.177-0.928-2.519-1.209-4.028c-0.282-1.507-0.396-2.906-0.333-4.193c0.063-1.287,0.284-2.412,0.669-3.373
			c0.384-0.963,0.925-1.75,1.621-2.363c0.697-0.614,1.537-1.014,2.515-1.197c0.976-0.183,1.895-0.112,2.755,0.21
			c0.86,0.324,1.646,0.864,2.352,1.62c0.709,0.756,1.325,1.724,1.854,2.901c0.526,1.176,0.932,2.52,1.215,4.028
			C243.818,188.44,243.927,189.836,243.86,191.124z"/>
		<path d="M252.689,198.118l-4.66-24.876l2.137-0.401c1.091,1.029,2.277,2.25,3.563,3.663c1.31,1.434,2.595,2.891,3.855,4.367
			c1.256,1.462,2.479,2.946,3.679,4.456c1.027,1.286,2.021,2.597,2.982,3.932l-3.448-18.407l2.638-0.494l4.658,24.875l-2.243,0.42
			c-0.644-0.911-1.297-1.817-1.957-2.716c-0.771-1.047-1.552-2.082-2.346-3.108c-0.849-1.093-1.704-2.177-2.573-3.257
			c-1.646-2.051-3.349-4.058-5.101-6.02c-0.711-0.798-1.439-1.583-2.186-2.35l3.639,19.423L252.689,198.118L252.689,198.118z"/>
		<path d="M271.147,193.368l0.264-3.014c0.48,0.235,1.192,0.462,2.135,0.674c0.939,0.218,2.038,0.209,3.291-0.026
			c2.804-0.525,3.974-2.03,3.51-4.509c-0.145-0.77-0.389-1.397-0.742-1.886c-0.338-0.483-0.771-0.892-1.268-1.209
			c-0.497-0.315-1.049-0.566-1.644-0.75c-0.6-0.182-1.234-0.357-1.898-0.523c-0.744-0.179-1.479-0.406-2.193-0.69
			c-0.684-0.269-1.32-0.636-1.893-1.093c-0.56-0.449-1.045-1.016-1.454-1.706s-0.71-1.558-0.906-2.606
			c-0.409-2.182-0.154-3.993,0.761-5.432c0.914-1.438,2.381-2.348,4.402-2.727c1.168-0.218,2.261-0.253,3.275-0.108
			c1.016,0.147,1.779,0.374,2.298,0.68l-0.341,3.017c-0.444-0.24-1.084-0.439-1.907-0.592c-0.822-0.153-1.741-0.133-2.753,0.056
			c-0.514,0.096-0.979,0.259-1.399,0.487c-0.405,0.217-0.76,0.513-1.05,0.866c-0.287,0.363-0.487,0.789-0.585,1.241
			c-0.111,0.479-0.111,1.014,0,1.609c0.123,0.662,0.33,1.203,0.616,1.62c0.292,0.416,0.651,0.76,1.084,1.035
			c0.434,0.277,0.925,0.51,1.47,0.702c0.546,0.194,1.139,0.381,1.778,0.561c0.854,0.259,1.7,0.547,2.535,0.865
			c0.759,0.29,1.469,0.692,2.105,1.196c0.623,0.499,1.149,1.132,1.579,1.903c0.431,0.77,0.756,1.741,0.976,2.918
			c0.407,2.179,0.108,3.976-0.902,5.384c-1.011,1.409-2.638,2.322-4.884,2.743c-0.758,0.142-1.468,0.203-2.128,0.189
			c-0.598-0.012-1.199-0.067-1.792-0.161c-0.477-0.073-0.944-0.186-1.399-0.334C271.764,193.643,271.452,193.517,271.147,193.368
			L271.147,193.368z"/>
	</g>
	<path fill="none" stroke="#000000" stroke-width="4" stroke-miterlimit="10" d="M219.647,235.801
		c8.323-1.559,16.321,0.2,23.189,4.898c6.746,4.621,11.195,11.559,12.735,19.779c1.558,8.323-0.015,16.178-4.652,22.825
		c-4.886,7.005-12.008,11.596-19.922,13.08c-8.017,1.502-16.119-0.241-22.984-4.937c-6.868-4.702-11.541-11.703-13.026-19.621
		c-1.499-8.018,0.322-16.234,5.005-23.205C204.59,241.77,211.328,237.359,219.647,235.801L219.647,235.801z"/>
	<path d="M207.44,268.838c-0.342-1.828-0.367-3.502-0.079-5.025c0.29-1.522,0.819-2.855,1.588-4.004
		c0.756-1.139,1.742-2.104,2.898-2.834c1.162-0.736,2.465-1.241,3.902-1.512c0.902-0.168,1.729-0.257,2.478-0.264
		c0.749-0.008,1.407,0.021,1.97,0.084c0.567,0.066,1.033,0.15,1.405,0.258c0.367,0.105,0.627,0.186,0.765,0.248l-0.405,2.691
		c-0.209-0.089-0.506-0.174-0.895-0.258c-0.43-0.087-0.864-0.159-1.299-0.217c-0.518-0.068-1.036-0.095-1.554-0.084
		c-0.556,0.007-1.111,0.063-1.654,0.166c-1.161,0.218-2.164,0.613-3.017,1.184c-0.835,0.561-1.533,1.309-2.038,2.176
		c-0.512,0.881-0.838,1.893-0.979,3.04c-0.143,1.149-0.086,2.396,0.167,3.741c0.244,1.305,0.62,2.466,1.123,3.482
		c0.504,1.018,1.135,1.854,1.891,2.51c0.752,0.656,1.65,1.121,2.621,1.355c0.994,0.253,2.1,0.262,3.323,0.031
		c1.408-0.262,2.547-0.629,3.413-1.098c0.871-0.472,1.515-0.865,1.935-1.179l1.274,2.377c-0.126,0.13-0.364,0.311-0.719,0.544
		c-0.355,0.23-0.803,0.473-1.341,0.723c-0.539,0.247-1.179,0.496-1.918,0.748c-0.739,0.248-1.55,0.459-2.434,0.623
		c-1.541,0.29-2.988,0.296-4.342,0.021c-1.324-0.258-2.573-0.805-3.658-1.6c-1.084-0.799-2.007-1.859-2.765-3.186
		C208.339,272.261,207.787,270.678,207.44,268.838z"/>
	<path d="M226.996,265.176c-0.343-1.828-0.37-3.503-0.08-5.025c0.288-1.521,0.814-2.855,1.584-4.004
		c0.758-1.139,1.746-2.104,2.9-2.834c1.164-0.737,2.465-1.242,3.902-1.512c0.906-0.168,1.731-0.258,2.479-0.264
		c0.752-0.01,1.403,0.02,1.972,0.082c0.563,0.067,1.031,0.152,1.401,0.26c0.372,0.104,0.624,0.186,0.767,0.248l-0.405,2.689
		c-0.209-0.088-0.51-0.174-0.894-0.256c-0.431-0.088-0.865-0.16-1.3-0.217c-0.518-0.069-1.036-0.094-1.558-0.085
		c-0.554,0.007-1.105,0.065-1.65,0.166c-1.161,0.218-2.166,0.613-3.017,1.185c-0.835,0.561-1.533,1.307-2.038,2.176
		c-0.51,0.88-0.84,1.893-0.978,3.039c-0.143,1.148-0.086,2.396,0.167,3.742c0.242,1.303,0.616,2.464,1.119,3.481
		c0.506,1.017,1.137,1.853,1.891,2.51c0.754,0.652,1.652,1.122,2.621,1.356c0.994,0.253,2.104,0.261,3.325,0.031
		c1.408-0.264,2.547-0.631,3.415-1.1c0.867-0.471,1.513-0.863,1.933-1.178l1.274,2.377c-0.126,0.131-0.363,0.311-0.719,0.544
		c-0.355,0.231-0.802,0.473-1.341,0.722c-0.539,0.248-1.179,0.497-1.918,0.748s-1.55,0.46-2.436,0.625
		c-1.541,0.288-2.986,0.295-4.34,0.021c-1.322-0.26-2.569-0.805-3.657-1.601c-1.089-0.799-2.008-1.858-2.766-3.187
		C227.892,268.598,227.338,267.015,226.996,265.176L226.996,265.176z"/>
</g>
</svg>
