<svg xmlns="http://www.w3.org/2000/svg"  viewBox="0 0 400 400" class="brand_color">
  <path fill="none" d="M326.276 57.754c2.093-14.898-8.34-28.743-23.236-30.837L148.661 5.22c-14.898-2.094-28.744 8.34-30.838 23.237L73.715 342.302c-2.085 14.837 8.348 28.684 23.247 30.777L251.4 394.783c8.585 1.207 26.118-3.783 28.803-22.884 2.452-17.449 46.073-314.145 46.073-314.145z"/>
  <path fill="none" d="M313.57 59.175l-43.688 310.803-183.936-25.854L129.634 33.32z"/>
  <path fill="#FFF" d="M195.792 221.488c11.984 1.685 22.016 7.714 29.175 17.215 7.034 9.335 9.897 20.765 8.233 32.604-1.685 11.985-7.401 21.91-16.712 28.799-9.816 7.265-21.558 10.234-32.958 8.632-11.545-1.623-21.725-7.673-28.884-17.172-7.159-9.503-10.295-21.121-8.692-32.521 1.623-11.546 7.839-21.847 17.361-29.155 9.353-7.18 20.493-10.086 32.477-8.402z"/>
  <path d="M171.07 92.531c.354-1.909.723-3.835 1.107-5.777.385-1.941.781-3.849 1.188-5.724.407-1.875.815-3.7 1.225-5.473.409-1.774.825-3.446 1.248-5.015l2.724.383c.442 1.02.904 2.218 1.387 3.596.482 1.377.957 2.812 1.423 4.304a183.56 183.56 0 0 1 1.336 4.467c.424 1.486.811 2.845 1.16 4.075.674-1.087 1.42-2.286 2.238-3.598.817-1.312 1.656-2.62 2.517-3.925a129.29 129.29 0 0 1 2.554-3.745 54.4 54.4 0 0 1 2.323-3.075l2.726.383a418.518 418.518 0 0 1-1.479 22.452l-3.053-.43c.316-3.011.605-5.996.867-8.956.262-2.959.455-5.719.581-8.278-.26.337-.616.821-1.067 1.456a66.295 66.295 0 0 0-1.47 2.165l-1.688 2.582c-.597.911-1.164 1.798-1.699 2.659a622.01 622.01 0 0 1-1.503 2.399c-.466.739-.84 1.35-1.12 1.832l-2.505-.353a63.96 63.96 0 0 0-.572-2.069c-.245-.837-.505-1.744-.783-2.721a146.36 146.36 0 0 0-.9-3.025c-.323-1.04-.626-2.022-.911-2.946a79.094 79.094 0 0 0-.809-2.485 28.598 28.598 0 0 0-.632-1.693 183.655 183.655 0 0 0-1.731 8.116 572.36 572.36 0 0 0-1.626 8.85l-3.056-.431zm26.026 3.658a709.153 709.153 0 0 1 3.328-6.184 305.734 305.734 0 0 1 3.001-5.383 209.275 209.275 0 0 1 2.853-4.853c.936-1.54 1.901-3.055 2.898-4.543l2.851.401a129.716 129.716 0 0 1 1.531 5.174c.476 1.733.943 3.547 1.407 5.443.463 1.896.93 3.896 1.4 6 .47 2.105.964 4.391 1.479 6.859l-3.398-.477a95.1 95.1 0 0 1-.628-2.979c-.188-.973-.386-1.964-.595-2.974l-10.069-1.415-2.817 5.385-3.241-.454zm7.328-7.369l8.268 1.162a440.283 440.283 0 0 0-1.284-5.69c-.429-1.838-.89-3.611-1.384-5.32a80.608 80.608 0 0 0-2.843 4.719 181.81 181.81 0 0 0-2.757 5.129zm16.477 10.347l3.028-21.546a18.573 18.573 0 0 1 2.997-.018 40.8 40.8 0 0 1 2.982.3c1.817.255 3.452.719 4.907 1.392 1.455.673 2.662 1.553 3.621 2.641.959 1.088 1.637 2.384 2.033 3.887.396 1.503.457 3.215.188 5.136-.271 1.92-.803 3.552-1.597 4.894-.796 1.341-1.806 2.4-3.026 3.175-1.221.777-2.623 1.288-4.208 1.533-1.583.246-3.284.241-5.1-.015a44.149 44.149 0 0 1-2.952-.526 17.166 17.166 0 0 1-2.873-.853zm3.436-1.833c.185.047.516.115.992.204.479.088 1.154.194 2.032.317 2.955.415 5.263-.029 6.926-1.334 1.664-1.304 2.687-3.314 3.067-6.028.382-2.714-.047-4.927-1.287-6.64-1.239-1.712-3.335-2.776-6.291-3.192a41.254 41.254 0 0 0-2.041-.247 22.04 22.04 0 0 0-1.012-.07l-2.386 16.99zm19.376 5.407l3.123-22.221 13.561 1.906-.369 2.631-10.445-1.468-.936 6.654 9.301 1.308-.36 2.567-9.301-1.307-1.088 7.735 11.26 1.582-.369 2.632-14.377-2.019zm-69.003-4.463l3.304.464.298 5.229.289 5.076c.094 1.645.218 3.179.375 4.604l.436 3.987c1.174-2.125 2.43-4.46 3.77-7.008a148.573 148.573 0 0 0 3.869-7.936l2.7.379c.434 2.979.958 5.88 1.569 8.704s1.188 5.418 1.731 7.784l1.441-3.528a84.261 84.261 0 0 0 1.606-4.296l1.705-4.925 1.745-5.043 3.21.451a138.12 138.12 0 0 1-4.145 11.002c-1.545 3.629-3.026 7.113-4.444 10.45l-3.116-.438a220.523 220.523 0 0 1-1.755-7.512 175.562 175.562 0 0 1-1.575-8.333 154.602 154.602 0 0 1-3.843 7.572 406.779 406.779 0 0 1-3.757 6.738l-3.116-.438-1.359-10.766c-.473-3.736-.786-7.808-.938-12.217zm28.525 26.668l3.122-22.221 3.116.438-3.123 22.221-3.115-.438zm9.112-18.6l.384-2.726 17.084 2.401-.383 2.726-6.984-.981-2.74 19.496-3.115-.438 2.739-19.495-6.985-.983zm17.618 22.356l3.123-22.22 3.116.438-1.299 9.239 10.866 1.527 1.299-9.239 3.116.437-3.123 22.221-3.116-.438 1.442-10.257-10.867-1.527-1.442 10.257-3.115-.438zm-96.665 2.955c.261-1.858.775-3.468 1.541-4.83.766-1.361 1.701-2.468 2.806-3.318a9.784 9.784 0 0 1 3.683-1.774c1.351-.332 2.757-.396 4.218-.19.918.129 1.737.311 2.455.544.717.234 1.336.473 1.855.716a9.1 9.1 0 0 1 1.259.695c.32.221.538.382.651.483l-1.253 2.443a5.11 5.11 0 0 0-.771-.532 18.175 18.175 0 0 0-1.173-.627c-.439-.216-.924-.41-1.459-.582a10.092 10.092 0 0 0-1.632-.373c-1.18-.166-2.268-.111-3.265.165-.997.274-1.88.75-2.651 1.423-.771.674-1.409 1.538-1.913 2.59-.504 1.053-.853 2.262-1.045 3.629-.187 1.327-.203 2.556-.047 3.69.154 1.135.487 2.137.999 3.007a6.328 6.328 0 0 0 2.07 2.143c.869.559 1.924.926 3.167 1.1 1.43.201 2.636.217 3.618.045.982-.17 1.724-.337 2.227-.501l.453 2.683c-.161.083-.448.179-.862.285-.415.107-.919.194-1.514.259s-1.286.099-2.074.1-1.63-.062-2.528-.188c-1.566-.22-2.952-.678-4.158-1.374a9.258 9.258 0 0 1-2.981-2.71c-.781-1.11-1.32-2.422-1.619-3.933-.302-1.509-.32-3.199-.057-5.068zm19.199 14.052l3.079-21.907a18.926 18.926 0 0 1 2.997-.018c1.091.073 2.086.173 2.984.299 3.131.44 5.434 1.366 6.907 2.776 1.473 1.41 2.046 3.279 1.719 5.606-.207 1.473-.778 2.678-1.714 3.616-.936.938-2.201 1.557-3.797 1.854.286.478.645 1.1 1.077 1.868.432.769.865 1.615 1.3 2.538a70.21 70.21 0 0 1 1.274 2.878c.413.995.753 1.948 1.019 2.858l-3.398-.478a50.105 50.105 0 0 0-1.049-2.67 52.92 52.92 0 0 0-1.187-2.603 45.583 45.583 0 0 0-1.23-2.344 82.14 82.14 0 0 0-1.114-1.921 12.596 12.596 0 0 1-.858-.088l-.884-.125-2.787-.392-1.222 8.692-3.116-.439zm4.699-10.821l2.208.311a24.14 24.14 0 0 0 2.903.248c.87.017 1.623-.085 2.254-.306a3.308 3.308 0 0 0 1.541-1.077c.395-.498.655-1.195.781-2.094.117-.834.056-1.554-.184-2.157a3.56 3.56 0 0 0-1.107-1.497c-.499-.395-1.109-.709-1.832-.945a13.803 13.803 0 0 0-2.337-.527c-1.326-.187-2.343-.292-3.053-.317l-1.174 8.361zm15.469 13.655l3.123-22.22 13.561 1.906-.37 2.63-10.445-1.468-.936 6.655 9.302 1.307-.361 2.568-9.302-1.307-1.087 7.735 11.259 1.582-.37 2.63-14.374-2.018zm15.801 2.222a683.165 683.165 0 0 1 3.328-6.184 312.498 312.498 0 0 1 3-5.383 209.218 209.218 0 0 1 2.854-4.853c.935-1.54 1.9-3.054 2.898-4.543l2.85.401a131.415 131.415 0 0 1 1.532 5.174c.476 1.733.944 3.547 1.406 5.443.464 1.896.931 3.896 1.401 6a489.1 489.1 0 0 1 1.479 6.859l-3.397-.477a89.697 89.697 0 0 1-.628-2.979c-.188-.973-.387-1.964-.596-2.974l-10.069-1.415-2.817 5.385-3.241-.454zm7.327-7.37l8.268 1.162a440.576 440.576 0 0 0-1.283-5.69 106.677 106.677 0 0 0-1.384-5.32 80.062 80.062 0 0 0-2.843 4.719 180.605 180.605 0 0 0-2.758 5.129zm16.928-9.103l.384-2.724 17.085 2.401-.383 2.725-6.985-.982-2.739 19.496-3.118-.437 2.74-19.497-6.984-.982zm17.617 22.357l3.123-22.22 3.117.438-3.124 22.221-3.116-.439zm9.293-21.353l3.444.483a938.498 938.498 0 0 0 2.028 10.226 144.92 144.92 0 0 0 2.195 9.259 135.041 135.041 0 0 0 4.663-8.287 746.818 746.818 0 0 0 4.736-9.283l3.337.47a375.362 375.362 0 0 1-3.243 6.195 291.42 291.42 0 0 1-2.96 5.389 203.33 203.33 0 0 1-5.643 9.411l-2.911-.409c-.506-1.71-.99-3.431-1.454-5.163a234.867 234.867 0 0 1-1.391-5.441 296.642 296.642 0 0 1-1.401-6.001 206.628 206.628 0 0 1-1.4-6.849zm20.35 25.519l3.123-22.221 13.561 1.906-.37 2.632-10.445-1.468-.935 6.654 9.302 1.307-.361 2.568-9.302-1.307-1.088 7.735 11.261 1.583-.371 2.631-14.375-2.02zm-136.986-2.712c.261-1.857.774-3.467 1.541-4.829.766-1.361 1.701-2.468 2.806-3.318 1.104-.851 2.332-1.442 3.682-1.774s2.756-.396 4.218-.19c.918.129 1.737.311 2.455.544a16.4 16.4 0 0 1 1.855.716c.52.244.94.476 1.26.696.321.221.538.381.651.483l-1.254 2.443a4.994 4.994 0 0 0-.771-.531 17.93 17.93 0 0 0-1.173-.628c-.438-.216-.925-.41-1.459-.582a9.885 9.885 0 0 0-1.632-.373c-1.18-.166-2.268-.11-3.265.165a6.68 6.68 0 0 0-2.651 1.423c-.771.674-1.409 1.538-1.913 2.59-.505 1.053-.853 2.262-1.045 3.629-.187 1.327-.202 2.556-.047 3.69.154 1.135.487 2.137.999 3.007.51.87 1.2 1.584 2.07 2.143.869.558 1.924.925 3.167 1.1 1.43.201 2.636.217 3.618.045.982-.17 1.724-.337 2.227-.501l.454 2.683c-.162.084-.449.18-.863.287a11.22 11.22 0 0 1-1.514.258 19.55 19.55 0 0 1-2.074.1c-.788.001-1.63-.062-2.528-.188-1.566-.22-2.953-.678-4.159-1.374a9.255 9.255 0 0 1-2.98-2.71c-.781-1.111-1.32-2.421-1.619-3.933-.302-1.512-.32-3.202-.056-5.071zm19.871 2.793c.267-1.9.785-3.537 1.554-4.908.769-1.371 1.711-2.477 2.827-3.316a9.68 9.68 0 0 1 3.722-1.72 11.676 11.676 0 0 1 4.231-.156c1.429.201 2.746.636 3.949 1.306a9.462 9.462 0 0 1 3.039 2.671c.822 1.111 1.416 2.432 1.781 3.962.364 1.531.413 3.247.146 5.146-.267 1.9-.787 3.539-1.561 4.914-.774 1.377-1.708 2.486-2.805 3.327a9.455 9.455 0 0 1-3.658 1.729 11.285 11.285 0 0 1-4.155.167 11.688 11.688 0 0 1-4.024-1.316 9.63 9.63 0 0 1-3.104-2.68c-.841-1.113-1.442-2.438-1.802-3.974-.361-1.534-.407-3.252-.14-5.152zm3.304.464c-.189 1.346-.192 2.594-.008 3.743.185 1.15.538 2.154 1.06 3.016a6.428 6.428 0 0 0 2.057 2.109c.848.546 1.841.898 2.978 1.058 1.137.16 2.18.094 3.131-.198a6.499 6.499 0 0 0 2.534-1.464c.739-.685 1.358-1.553 1.857-2.606.499-1.052.843-2.253 1.033-3.599.189-1.347.189-2.594 0-3.745-.189-1.149-.545-2.152-1.069-3.008a6.528 6.528 0 0 0-2.041-2.099c-.838-.543-1.821-.895-2.947-1.053-1.137-.16-2.188-.094-3.154.195a6.522 6.522 0 0 0-2.558 1.453c-.738.679-1.354 1.545-1.848 2.599-.495 1.052-.836 2.252-1.025 3.599zm20.357 14.215c.354-1.91.723-3.835 1.108-5.777.384-1.942.78-3.85 1.188-5.725a432.69 432.69 0 0 1 1.224-5.472c.409-1.774.825-3.445 1.248-5.015l2.725.382a54.697 54.697 0 0 1 1.387 3.597c.482 1.377.957 2.811 1.423 4.304.466 1.492.912 2.98 1.336 4.467.424 1.486.811 2.844 1.16 4.075.674-1.086 1.42-2.285 2.238-3.597a181.292 181.292 0 0 1 2.516-3.926 130.68 130.68 0 0 1 2.554-3.745 54.99 54.99 0 0 1 2.324-3.075l2.725.383a417.485 417.485 0 0 1-1.479 22.452l-3.054-.429c.317-3.011.605-5.997.868-8.957.262-2.96.455-5.719.581-8.278-.261.336-.616.821-1.067 1.455a66.174 66.174 0 0 0-1.47 2.164l-1.688 2.582a138.58 138.58 0 0 0-1.699 2.659c-.536.862-1.037 1.662-1.502 2.4a63.979 63.979 0 0 0-1.12 1.831l-2.505-.352a65.903 65.903 0 0 0-.572-2.069c-.245-.838-.505-1.745-.783-2.721a146.36 146.36 0 0 0-.9-3.025l-.912-2.947c-.285-.924-.554-1.751-.808-2.484s-.465-1.298-.632-1.694a183.655 183.655 0 0 0-1.731 8.116 591.446 591.446 0 0 0-1.627 8.85l-3.056-.429zm27.921 3.924c.353-1.909.723-3.835 1.107-5.777.384-1.941.781-3.85 1.188-5.724.407-1.875.815-3.699 1.224-5.473.409-1.774.825-3.445 1.248-5.015l2.725.383a55.22 55.22 0 0 1 1.387 3.596c.481 1.376.956 2.812 1.423 4.304.466 1.492.912 2.981 1.337 4.468.424 1.485.811 2.843 1.16 4.075.673-1.087 1.419-2.287 2.237-3.598.817-1.312 1.656-2.62 2.517-3.925a128.73 128.73 0 0 1 2.554-3.746 53.358 53.358 0 0 1 2.325-3.074l2.724.383a416.422 416.422 0 0 1-1.479 22.451l-3.054-.429c.317-3.011.605-5.996.867-8.957.262-2.959.456-5.719.581-8.278a63.717 63.717 0 0 0-2.536 3.621c-.528.809-1.093 1.669-1.688 2.58-.598.913-1.164 1.799-1.699 2.659-.536.862-1.037 1.663-1.504 2.4a57.743 57.743 0 0 0-1.118 1.832l-2.505-.353a69.68 69.68 0 0 0-.572-2.068c-.245-.837-.505-1.744-.783-2.721a146.36 146.36 0 0 0-.9-3.025l-.912-2.946c-.285-.923-.554-1.752-.808-2.485s-.466-1.296-.633-1.694a184.022 184.022 0 0 0-1.731 8.117 576.642 576.642 0 0 0-1.626 8.849l-3.056-.43zm29.202-7.249c.268-1.9.785-3.537 1.555-4.908.768-1.372 1.71-2.477 2.826-3.316a9.672 9.672 0 0 1 3.723-1.72 11.648 11.648 0 0 1 4.23-.156c1.429.201 2.745.636 3.949 1.306a9.473 9.473 0 0 1 3.04 2.67c.821 1.111 1.414 2.433 1.78 3.962.365 1.531.413 3.248.146 5.147-.268 1.9-.786 3.538-1.561 4.914-.774 1.376-1.709 2.485-2.805 3.327a9.477 9.477 0 0 1-3.658 1.729 11.27 11.27 0 0 1-4.156.167 11.704 11.704 0 0 1-4.023-1.316 9.631 9.631 0 0 1-3.104-2.68c-.841-1.113-1.442-2.438-1.802-3.974-.359-1.535-.405-3.253-.14-5.152zm3.304.464c-.188 1.346-.191 2.594-.007 3.743s.537 2.154 1.059 3.016a6.454 6.454 0 0 0 2.057 2.108c.849.545 1.841.898 2.978 1.058 1.137.16 2.182.094 3.132-.198a6.518 6.518 0 0 0 2.534-1.464c.739-.685 1.359-1.552 1.856-2.606.5-1.052.844-2.253 1.033-3.599.189-1.347.189-2.595 0-3.745-.189-1.149-.546-2.152-1.068-3.008a6.524 6.524 0 0 0-2.042-2.1c-.838-.543-1.82-.895-2.947-1.053-1.137-.16-2.188-.095-3.153.195a6.51 6.51 0 0 0-2.558 1.453c-.738.679-1.354 1.545-1.848 2.599-.495 1.054-.836 2.254-1.026 3.601zm20.969 14.301l3.123-22.221 2.475.348a63.724 63.724 0 0 1 2.692 4.187 161.35 161.35 0 0 1 2.782 4.87c.909 1.662 1.762 3.29 2.554 4.886a82.243 82.243 0 0 1 1.969 4.229l2.311-16.442 3.054.429-3.122 22.221-2.601-.366a126.91 126.91 0 0 0-1.247-2.89c-.472-1.067-.986-2.18-1.542-3.338-.555-1.158-1.135-2.336-1.739-3.534s-1.21-2.355-1.819-3.474a128.333 128.333 0 0 0-1.782-3.172 65.673 65.673 0 0 0-1.614-2.655l-2.438 17.351-3.056-.429zm21.798 1.926l1.284-2.431c.451.35 1.157.766 2.116 1.245.96.479 2.165.821 3.616 1.025 3.246.457 5.025-.423 5.337-2.639.097-.687.035-1.29-.185-1.809a4.278 4.278 0 0 0-.991-1.413 8.1 8.1 0 0 0-1.555-1.149 49.684 49.684 0 0 0-1.906-1.04c-.774-.394-1.5-.82-2.177-1.276a8.186 8.186 0 0 1-1.71-1.514 5.387 5.387 0 0 1-1.029-1.887c-.22-.704-.264-1.524-.133-2.461.274-1.947 1.149-3.375 2.63-4.283 1.479-.908 3.389-1.197 5.728-.869 1.351.189 2.56.509 3.624.953 1.064.447 1.829.879 2.293 1.3l-1.369 2.406c-.41-.344-1.042-.712-1.895-1.103-.853-.39-1.864-.667-3.036-.833a6.894 6.894 0 0 0-1.696-.039 4.454 4.454 0 0 0-1.435.387 2.844 2.844 0 0 0-1.054.847c-.279.363-.457.811-.531 1.34-.084.594-.036 1.11.141 1.548.179.439.46.841.845 1.208.385.367.845.719 1.378 1.053.533.336 1.12.68 1.762 1.036a47.558 47.558 0 0 1 2.492 1.527 8.934 8.934 0 0 1 1.91 1.669c.52.613.888 1.311 1.104 2.088.217.778.251 1.693.103 2.744-.273 1.948-1.196 3.348-2.77 4.2-1.574.852-3.659 1.096-6.259.73a15.022 15.022 0 0 1-2.393-.522 18.225 18.225 0 0 1-1.914-.705 12.316 12.316 0 0 1-1.422-.725 8.104 8.104 0 0 1-.903-.608zm-105.538 71.738c.37-2.633 1.098-4.914 2.184-6.845 1.085-1.928 2.411-3.496 3.976-4.701a13.878 13.878 0 0 1 5.219-2.514c1.914-.47 3.907-.561 5.978-.269 1.302.183 2.461.439 3.479.771 1.017.331 1.894.67 2.629 1.014.736.346 1.331.673 1.785.986.454.312.761.54.922.685l-1.777 3.462c-.241-.216-.606-.467-1.093-.754a26.223 26.223 0 0 0-1.663-.89 15.177 15.177 0 0 0-2.068-.823 14.182 14.182 0 0 0-2.313-.528c-1.672-.234-3.214-.157-4.626.232a9.445 9.445 0 0 0-3.757 2.017c-1.092.957-1.996 2.18-2.711 3.671s-1.208 3.205-1.481 5.143c-.265 1.88-.286 3.622-.067 5.229.219 1.608.69 3.028 1.416 4.263a8.965 8.965 0 0 0 2.933 3.035c1.231.793 2.728 1.312 4.488 1.56 2.026.284 3.735.306 5.127.064 1.392-.241 2.443-.479 3.155-.711l.642 3.802c-.228.118-.636.254-1.222.405-.587.15-1.302.273-2.145.366s-1.823.14-2.939.141a25.45 25.45 0 0 1-3.583-.265c-2.218-.312-4.183-.962-5.893-1.95a13.077 13.077 0 0 1-4.223-3.841c-1.106-1.572-1.872-3.43-2.294-5.571-.425-2.141-.45-4.536-.078-7.184zm28.16 3.958c.371-2.633 1.099-4.914 2.184-6.845 1.086-1.929 2.411-3.496 3.976-4.703a13.896 13.896 0 0 1 5.22-2.513c1.912-.469 3.905-.56 5.977-.269 1.303.184 2.462.44 3.479.771 1.017.332 1.894.67 2.629 1.015.736.346 1.332.673 1.785.986.454.312.761.54.922.685l-1.776 3.461c-.24-.215-.605-.466-1.093-.753s-1.043-.584-1.662-.89a14.937 14.937 0 0 0-2.069-.823 13.855 13.855 0 0 0-2.313-.528c-1.671-.235-3.213-.158-4.625.231a9.46 9.46 0 0 0-3.757 2.018c-1.093.956-1.997 2.179-2.711 3.671-.715 1.49-1.209 3.205-1.481 5.143-.264 1.88-.286 3.622-.066 5.229.218 1.607.69 3.027 1.415 4.261a8.978 8.978 0 0 0 2.932 3.037c1.232.793 2.729 1.311 4.489 1.559 2.025.284 3.735.307 5.127.064 1.392-.241 2.444-.479 3.155-.71l.643 3.802c-.228.118-.636.254-1.224.405a15.78 15.78 0 0 1-2.144.365c-.844.094-1.822.14-2.938.142a25.436 25.436 0 0 1-3.583-.266c-2.221-.312-4.184-.961-5.894-1.949a13.077 13.077 0 0 1-4.223-3.841c-1.107-1.572-1.872-3.431-2.294-5.571-.426-2.141-.452-4.537-.08-7.184z"/>
</svg>
