<svg xmlns="http://www.w3.org/2000/svg" viewBox="0 0 600 400" class="brand_color icon--tools">

    <path fill="#FFF" d="M219.162 91.004l328.027 42.438L522.225 326.4l-328.027-42.438z"/>
    <path fill="none" d="M387.631 343.321l-.624 4.824a4.86 4.86 0 0 1-5.449 4.2l-57.888-7.488a4.858 4.858 0 0 1-4.199-5.448l.623-4.823-207.437-26.833-1.248 9.648s-1.872 14.472 12.6 16.344l453.466 58.657c14.473 1.872 16.344-12.601 16.344-12.601l1.248-9.647-207.436-26.833zM554.53 114.766L216.844 71.085c-7.998-1.035-15.311 4.606-16.345 12.601l-.624 4.823-25.585 197.788c-1.034 7.993 4.603 15.311 12.601 16.345l4.824.624L519.754 345.7l4.824.623c7.988 1.034 15.311-4.607 16.344-12.601l25.585-197.788.624-4.823c1.033-7.995-4.608-15.312-12.601-16.345z"/>

  <path fill="none" d="M128.294 62.046c-1.612-8.605-9.939-14.304-18.543-12.692L20.572 66.057C11.966 67.669 6.267 75.995 7.879 84.6l33.958 181.294c1.605 8.57 9.931 14.271 18.537 12.658l89.212-16.71c4.958-.929 13.703-6.938 11.636-17.971-1.888-10.08-32.928-181.825-32.928-181.825z"/>
  <path fill="#FFF" d="M15.303 85.091L121.551 65.19l33.627 179.531L48.93 264.622 15.303 85.091z"/>
  <path fill="none" d="M463.068 178.389c11.418 1.477 21.025 7.109 27.935 16.071 6.79 8.808 9.633 19.651 8.174 30.931-1.478 11.421-6.812 20.922-15.599 27.572-9.263 7.012-20.402 9.963-31.264 8.558-11-1.423-20.748-7.075-27.657-16.034-6.91-8.966-10.016-19.986-8.61-30.848 1.423-11.001 7.229-20.866 16.211-27.918 8.823-6.931 19.391-9.809 30.81-8.332z"/>

  <path  fill="#0069cc" stroke="none" d="M270.986 156.507c.398-2.437.813-4.895 1.243-7.373.431-2.48.872-4.917 1.321-7.313.451-2.395.902-4.727 1.352-6.994.449-2.267.902-4.406 1.36-6.414l2.678.346c.47 1.482.895 2.977 1.274 4.484.455 1.786.886 3.58 1.291 5.379.422 1.866.822 3.73 1.201 5.591.381 1.861.725 3.562 1.038 5.102.693-1.41 1.46-2.967 2.302-4.67a293.62 293.62 0 0 1 2.584-5.102c.85-1.637 1.723-3.262 2.617-4.874a77.385 77.385 0 0 1 2.373-4.013l2.677.346a684.546 684.546 0 0 1-2.045 28.514l-3-.388c.387-3.794.751-7.591 1.089-11.389.315-3.5.578-7.006.789-10.513a72.226 72.226 0 0 0-1.091 1.896c-.46.825-.964 1.766-1.505 2.817l-1.734 3.354a218.964 218.964 0 0 0-1.744 3.455 710.606 710.606 0 0 1-1.545 3.116c-.479.959-.863 1.75-1.152 2.377l-2.462-.318a93.531 93.531 0 0 0-.511-2.592 760.88 760.88 0 0 1-.701-3.407 207.233 207.233 0 0 0-.809-3.785l-.822-3.684c-.229-1.04-.473-2.075-.732-3.106a39.97 39.97 0 0 0-.578-2.112c-.7 3.444-1.342 6.9-1.922 10.367-.627 3.726-1.238 7.488-1.836 11.292l-3-.389zm44.688-2.667a504.414 504.414 0 0 0-1.224-7.531c-.39-2.278-.804-4.553-1.245-6.822a201.945 201.945 0 0 0-1.377-6.476l-2.801-.362a182.005 182.005 0 0 0-2.979 5.902 332.63 332.63 0 0 0-2.941 6.291 492.61 492.61 0 0 0-3.1 6.972 1057.29 1057.29 0 0 0-3.445 8.001l3.188.413 2.919-6.965 9.896 1.28c.18 1.269.35 2.513.509 3.737.161 1.224.341 2.471.542 3.741l3.34.432a835.237 835.237 0 0 0-1.282-8.613zm-11.692-3.732a288.125 288.125 0 0 1 2.854-6.638 123.435 123.435 0 0 1 2.927-6.121c.457 2.213.867 4.437 1.228 6.668.386 2.379.758 4.758 1.118 7.141l-8.127-1.05zm35.639-5.632c-.354-1.884-.988-3.49-1.905-4.82a10.124 10.124 0 0 0-3.503-3.159c-1.416-.779-3.02-1.284-4.804-1.515a32.472 32.472 0 0 0-2.935-.228 14.394 14.394 0 0 0-2.956.175l-3.55 27.446c.826.39 1.762.701 2.812.931.957.215 1.926.388 2.896.518 1.787.231 3.465.15 5.031-.241a10.178 10.178 0 0 0 4.191-2.156c1.224-1.044 2.248-2.435 3.068-4.176.819-1.74 1.386-3.832 1.702-6.278s.303-4.613-.047-6.497zm-6.379 13.866c-1.674 1.739-3.965 2.417-6.868 2.042a40.28 40.28 0 0 1-1.995-.296 14.169 14.169 0 0 1-.977-.208l2.799-21.644c.19-.003.522.009.999.038.476.028 1.146.098 2.007.209 2.906.376 4.945 1.617 6.123 3.722 1.176 2.106 1.542 4.887 1.095 8.345s-1.509 6.055-3.183 7.792zm9.135 7.399l3.661-28.304 13.325 1.724-.433 3.352-10.264-1.328-1.096 8.477 9.141 1.182-.422 3.271-9.143-1.182-1.274 9.854 11.064 1.431-.434 3.35zm-67.95-2.141l3.246.42.157 6.607c.053 2.198.104 4.337.152 6.415.051 2.078.132 4.014.25 5.812l.325 5.028a579.364 579.364 0 0 0 3.901-9.068 225.105 225.105 0 0 0 4.023-10.25l2.653.343c.339 3.66.78 7.31 1.319 10.946.529 3.543 1.031 6.801 1.504 9.771l1.514-4.543a135.297 135.297 0 0 0 1.698-5.521l1.81-6.328 1.854-6.476 3.154.408a222.442 222.442 0 0 1-4.375 14.146c-1.62 4.675-3.171 9.164-4.656 13.462l-3.062-.396c-.543-3.058-1.056-6.2-1.535-9.426a273.718 273.718 0 0 1-1.336-10.475 237.541 237.541 0 0 1-3.989 9.787 605.145 605.145 0 0 1-3.882 8.725l-3.062-.396-1.061-13.566c-.367-4.708-.567-9.848-.602-15.425zm34.165 4.404l-3.662 28.303-3.062-.396 3.662-28.303zm2.751 3.899l.448-3.47 16.79 2.171-.449 3.471-6.864-.888-3.212 24.834-3.062-.396 3.212-24.834-6.863-.888zm16.794 27.421l3.66-28.303 3.062.396-1.521 11.768 10.68 1.381 1.521-11.768 3.063.396-3.662 28.304-3.061-.396 1.689-13.065-10.679-1.382-1.69 13.066zm-95.431 8.662c.306-2.367.854-4.432 1.646-6.195.793-1.763 1.742-3.212 2.855-4.347 1.111-1.133 2.338-1.945 3.679-2.434a8.709 8.709 0 0 1 4.165-.455c.902.117 1.707.305 2.408.565.701.26 1.306.53 1.811.812.506.283.916.554 1.227.817.309.265.519.457.629.579l-1.301 3.157c-.164-.184-.412-.395-.747-.634-.335-.24-.715-.485-1.142-.736a8.5 8.5 0 0 0-1.425-.662 7.596 7.596 0 0 0-1.6-.389c-1.159-.15-2.233-.025-3.224.375-.991.399-1.875 1.044-2.652 1.938-.779.894-1.431 2.02-1.955 3.377-.525 1.358-.9 2.908-1.126 4.651-.219 1.688-.266 3.248-.144 4.676.123 1.428.424 2.682.906 3.758.48 1.076 1.143 1.947 1.986 2.609.843.664 1.873 1.074 3.095 1.232 1.405.182 2.595.141 3.569-.127.973-.266 1.71-.516 2.208-.748l.378 3.373c-.161.116-.448.25-.859.408-.41.154-.91.289-1.498.402a15.19 15.19 0 0 1-2.049.232c-.777.04-1.607.006-2.49-.109-1.537-.199-2.893-.707-4.066-1.529-1.17-.82-2.127-1.914-2.867-3.281-.74-1.369-1.24-2.998-1.494-4.898-.258-1.897-.231-4.036.077-6.417zm34.194 15.397a93.152 93.152 0 0 0-1.181-3.582 54.284 54.284 0 0 0-1.217-3.149c-.407-.952-.745-1.721-1.014-2.311 1.581-.458 2.847-1.306 3.793-2.542.948-1.234 1.543-2.791 1.785-4.666.384-2.964-.134-5.303-1.549-7.014-1.416-1.71-3.663-2.766-6.741-3.165a32.01 32.01 0 0 0-2.936-.227 14.454 14.454 0 0 0-2.955.175l-3.609 27.904 3.061.396 1.432-11.07 3.609.467c.282.037.562.061.845.068.358.788.709 1.58 1.048 2.377.41.959.795 1.93 1.153 2.907a72.883 72.883 0 0 1 1.103 3.235c.348 1.103.668 2.212.965 3.328l3.34.433a40.037 40.037 0 0 0-.932-3.564zm-3.446-12.574c-.63.311-1.374.479-2.231.502a18.442 18.442 0 0 1-2.857-.167l-2.171-.281 1.378-10.65c.699-.003 1.699.078 3.004.247a10.62 10.62 0 0 1 2.292.549c.706.262 1.301.629 1.781 1.104.481.475.831 1.088 1.054 1.84.22.752.262 1.658.123 2.723-.147 1.145-.422 2.041-.824 2.691-.404.65-.919 1.131-1.549 1.442zm7.644 16.562l3.662-28.303 13.326 1.724-.434 3.351-10.263-1.329-1.098 8.479 9.142 1.182-.423 3.272-9.142-1.183-1.274 9.854 11.065 1.431-.433 3.35-14.128-1.827zm34.638-3.965a489.55 489.55 0 0 0-1.224-7.529 314.812 314.812 0 0 0-1.245-6.824 198.295 198.295 0 0 0-1.377-6.475l-2.801-.363a182.985 182.985 0 0 0-2.977 5.902 312.37 312.37 0 0 0-2.942 6.291 486.167 486.167 0 0 0-3.101 6.97 1075.095 1075.095 0 0 0-3.445 8.001v.002l3.187.412 2.919-6.965 9.895 1.28c.178 1.245.348 2.49.512 3.736.162 1.25.343 2.497.541 3.741l3.34.433a783.811 783.811 0 0 0-1.282-8.612zm-11.689-3.733a287.82 287.82 0 0 1 2.854-6.638 120.934 120.934 0 0 1 2.928-6.121c.456 2.215.865 4.438 1.227 6.668.385 2.379.758 4.76 1.117 7.143l-8.126-1.052zm16.935-12.392l.449-3.47 16.792 2.171-.45 3.471-6.865-.888-3.213 24.833-3.061-.396 3.212-24.833zm23.532-.491l-3.662 28.302-3.062-.396 3.661-28.302zm2.986.393l3.386.438c.583 4.456 1.16 8.738 1.734 12.848a215.276 215.276 0 0 0 1.925 11.616 208.462 208.462 0 0 0 4.814-10.733c1.604-3.85 3.242-7.85 4.916-12l3.278.424c-1.188 2.89-2.31 5.56-3.36 8.014a444.386 444.386 0 0 1-3.062 6.975 305.353 305.353 0 0 1-2.908 6.287 327.32 327.32 0 0 1-2.902 5.921l-2.863-.37a324.192 324.192 0 0 1-1.3-6.465c-.431-2.27-.841-4.545-1.229-6.822a491.513 491.513 0 0 1-1.225-7.529c-.411-2.644-.811-5.51-1.204-8.604zm19.409 31.288l3.661-28.303 13.326 1.724-.433 3.35-10.264-1.328-1.097 8.479 9.14 1.181-.424 3.273-9.139-1.183-1.275 9.854 11.064 1.43-.434 3.351-14.126-1.826zm-135.059 3.537c.307-2.366.856-4.434 1.646-6.197.793-1.764 1.744-3.211 2.855-4.344 1.111-1.136 2.338-1.944 3.68-2.436a8.705 8.705 0 0 1 4.165-.453c.901.117 1.706.303 2.407.564.701.26 1.305.53 1.812.811a8.11 8.11 0 0 1 1.226.816c.309.266.518.459.63.58l-1.302 3.158c-.163-.184-.412-.396-.746-.635-.335-.24-.717-.482-1.142-.735a8.724 8.724 0 0 0-1.425-.66 7.552 7.552 0 0 0-1.6-.39c-1.161-.15-2.236-.023-3.226.374-.99.399-1.875 1.046-2.652 1.939-.778.894-1.429 2.018-1.954 3.378-.525 1.356-.902 2.908-1.127 4.65-.219 1.688-.266 3.248-.144 4.676.123 1.43.425 2.681.907 3.758.48 1.077 1.143 1.945 1.986 2.611.843.661 1.875 1.074 3.095 1.232 1.405.182 2.595.137 3.568-.13.973-.267 1.71-.515 2.21-.748l.377 3.375c-.162.114-.447.25-.859.405a8.978 8.978 0 0 1-1.498.404c-.678.123-1.361.202-2.048.23-.778.042-1.608.006-2.491-.108-1.538-.199-2.893-.71-4.066-1.53-1.172-.822-2.127-1.914-2.867-3.281-.741-1.367-1.24-2.998-1.495-4.898-.256-1.899-.229-4.037.078-6.416zm40.403-1.285c-.319-1.921-.872-3.562-1.653-4.928-.783-1.365-1.758-2.44-2.93-3.229a8.869 8.869 0 0 0-3.859-1.451 9.17 9.17 0 0 0-4.178.411c-1.355.462-2.595 1.251-3.717 2.368-1.123 1.121-2.08 2.566-2.875 4.343-.793 1.776-1.349 3.875-1.662 6.296-.312 2.422-.312 4.594.005 6.521.315 1.928.874 3.573 1.673 4.942.801 1.366 1.799 2.445 2.992 3.235a9.192 9.192 0 0 0 3.936 1.461 8.837 8.837 0 0 0 4.102-.421c1.334-.464 2.551-1.256 3.654-2.376 1.105-1.123 2.057-2.573 2.855-4.356.799-1.782 1.354-3.883 1.668-6.305.312-2.42.309-4.591-.011-6.511zm-4.349 10.703c-.52 1.359-1.154 2.493-1.899 3.393-.749.906-1.596 1.567-2.54 1.986-.945.419-1.977.555-3.094.41s-2.088-.539-2.91-1.187-1.479-1.503-1.973-2.569c-.493-1.061-.814-2.318-.967-3.765s-.117-3.024.105-4.741c.222-1.716.59-3.254 1.105-4.612.516-1.36 1.146-2.489 1.893-3.386.746-.899 1.6-1.557 2.56-1.972.959-.416 1.999-.553 3.116-.409 1.106.145 2.066.539 2.88 1.185.812.647 1.465 1.499 1.959 2.556.493 1.059.818 2.311.976 3.758.155 1.444.122 3.026-.1 4.742-.222 1.716-.591 3.251-1.111 4.611zm6.432 10.495c.398-2.437.812-4.894 1.243-7.372s.87-4.915 1.321-7.312c.451-2.396.9-4.729 1.352-6.994.449-2.268.903-4.405 1.362-6.416l2.678.346a77.617 77.617 0 0 1 1.273 4.486c.44 1.721.87 3.512 1.292 5.379.419 1.86.82 3.722 1.199 5.591.381 1.86.729 3.562 1.039 5.103.693-1.412 1.462-2.969 2.303-4.67.844-1.711 1.705-3.41 2.584-5.102a191.581 191.581 0 0 1 2.617-4.873 77.442 77.442 0 0 1 2.373-4.015l2.678.347a686.221 686.221 0 0 1-2.046 28.513l-3.001-.388c.387-3.793.752-7.59 1.09-11.389.316-3.5.58-7.006.79-10.514a68.402 68.402 0 0 0-1.091 1.896 97.715 97.715 0 0 0-1.507 2.817l-1.732 3.356a206.55 206.55 0 0 0-1.745 3.452 474.79 474.79 0 0 1-1.545 3.116c-.396.786-.78 1.577-1.152 2.375l-2.462-.318a95.672 95.672 0 0 0-.512-2.59c-.236-1.135-.47-2.27-.7-3.407a190.007 190.007 0 0 0-.811-3.783l-.82-3.686c-.23-1.039-.475-2.076-.733-3.107a42.158 42.158 0 0 0-.579-2.111c-.7 3.443-1.342 6.9-1.92 10.367-.629 3.725-1.24 7.49-1.836 11.292l-3.002-.389zm27.44 3.55c.397-2.438.812-4.895 1.243-7.372.43-2.479.87-4.915 1.32-7.313.451-2.396.901-4.728 1.351-6.994.45-2.268.903-4.404 1.363-6.416l2.678.347a77.007 77.007 0 0 1 1.272 4.485c.44 1.721.871 3.513 1.293 5.379.42 1.861.82 3.723 1.201 5.592.381 1.859.725 3.561 1.037 5.103.693-1.412 1.46-2.969 2.301-4.671a290.18 290.18 0 0 1 2.584-5.102c.85-1.637 1.722-3.261 2.617-4.873a78.732 78.732 0 0 1 2.375-4.014l2.678.346a687.877 687.877 0 0 1-2.047 28.514l-3-.389c.387-3.793.75-7.589 1.088-11.388.316-3.501.58-7.007.791-10.515a67.371 67.371 0 0 0-1.092 1.896 97.408 97.408 0 0 0-1.508 2.816c-.541 1.053-1.121 2.17-1.73 3.357a185.823 185.823 0 0 0-1.746 3.451 695.028 695.028 0 0 1-1.545 3.117 91.166 91.166 0 0 0-1.153 2.374l-2.462-.318a90.849 90.849 0 0 0-.51-2.59 540.55 540.55 0 0 1-.701-3.407 197.255 197.255 0 0 0-.811-3.782l-.82-3.687c-.23-1.038-.475-2.076-.732-3.107a43.268 43.268 0 0 0-.58-2.111c-.701 3.443-1.341 6.9-1.921 10.367a992.909 992.909 0 0 0-1.835 11.292l-2.999-.387zm49.87-14.479c-.321-1.921-.87-3.562-1.652-4.928-.784-1.365-1.759-2.44-2.929-3.229a8.894 8.894 0 0 0-3.863-1.451 9.173 9.173 0 0 0-4.178.411c-1.355.462-2.594 1.251-3.715 2.368-1.123 1.121-2.082 2.566-2.875 4.343-.794 1.776-1.35 3.875-1.662 6.296-.313 2.422-.312 4.594.004 6.521.314 1.928.873 3.573 1.674 4.942.8 1.367 1.797 2.445 2.99 3.235a9.17 9.17 0 0 0 3.936 1.46 8.836 8.836 0 0 0 4.105-.42c1.332-.464 2.548-1.256 3.654-2.376 1.104-1.122 2.052-2.573 2.853-4.356.8-1.782 1.354-3.883 1.667-6.304.312-2.42.312-4.591-.009-6.512zm-4.351 10.703c-.518 1.359-1.152 2.493-1.9 3.394-.748.905-1.593 1.567-2.537 1.985-.945.419-1.977.555-3.095.41s-2.086-.539-2.909-1.187c-.822-.647-1.481-1.504-1.973-2.569-.495-1.061-.814-2.318-.967-3.765-.152-1.445-.117-3.024.105-4.74.222-1.716.59-3.255 1.104-4.613.516-1.36 1.146-2.49 1.893-3.386.746-.899 1.6-1.557 2.561-1.972.961-.416 1.998-.554 3.115-.409 1.107.145 2.068.539 2.88 1.185.811.647 1.464 1.499 1.958 2.556.496 1.059.82 2.311.977 3.758.157 1.444.123 3.026-.1 4.742-.221 1.717-.591 3.252-1.112 4.611zm7.034 10.574l3.661-28.304 2.432.314c.811 1.484 1.659 3.206 2.547 5.168a197.11 197.11 0 0 1 2.616 6.027 171.604 171.604 0 0 1 2.393 6.059 108.497 108.497 0 0 1 1.831 5.256l2.709-20.943 3.002.389-3.661 28.302-2.554-.33c-.374-1.203-.76-2.402-1.154-3.597-.461-1.39-.938-2.772-1.435-4.149a265.29 265.29 0 0 0-1.624-4.388 169.304 169.304 0 0 0-3.377-8.235 85.399 85.399 0 0 0-1.525-3.279l-2.858 22.1-3.003-.39zm21.454 1.33l1.327-3.141c.436.418 1.12.908 2.057 1.466.933.56 2.114.931 3.54 1.115 3.19.413 4.97-.793 5.334-3.614.113-.874.068-1.634-.138-2.28a5.104 5.104 0 0 0-.939-1.738 7.573 7.573 0 0 0-1.504-1.376 43.909 43.909 0 0 0-1.853-1.223 17.935 17.935 0 0 1-2.114-1.505 8.264 8.264 0 0 1-1.646-1.83 6.98 6.98 0 0 1-.967-2.337c-.197-.881-.221-1.919-.066-3.11.321-2.481 1.223-4.336 2.706-5.561s3.372-1.688 5.672-1.391c1.329.172 2.511.513 3.55 1.021 1.038.511 1.781 1.021 2.228 1.53l-1.412 3.116c-.396-.413-1.012-.848-1.841-1.299-.83-.451-1.822-.75-2.973-.898a5.408 5.408 0 0 0-1.671.035c-.51.093-.993.285-1.427.564a3.415 3.415 0 0 0-1.06 1.125c-.286.475-.473 1.05-.561 1.727-.098.755-.064 1.404.099 1.953.166.547.432 1.041.801 1.486.37.447.815.868 1.333 1.266.517.397 1.086.804 1.711 1.22a43.33 43.33 0 0 1 2.418 1.81 8.949 8.949 0 0 1 1.842 2.017c.494.751.839 1.614 1.032 2.589.195.975.204 2.13.031 3.47-.321 2.48-1.268 4.302-2.842 5.461-1.575 1.159-3.639 1.572-6.192 1.242a11.681 11.681 0 0 1-2.349-.539 14.719 14.719 0 0 1-1.867-.795 10.254 10.254 0 0 1-1.385-.846 7.631 7.631 0 0 1-.874-.73zM53.394 117.151a395.972 395.972 0 0 1-.571-3.865c-.186-1.302-.36-2.584-.522-3.847s-.315-2.494-.457-3.694a120.362 120.362 0 0 1-.358-3.407l1.387-.26c.472.66.924 1.335 1.356 2.023a104.74 104.74 0 0 1 1.51 2.465c.51.859 1.009 1.721 1.499 2.584l1.338 2.368.391-2.692c.144-.986.297-1.97.461-2.952.158-.951.33-1.899.515-2.845.153-.797.331-1.59.532-2.376l1.386-.26a357.375 357.375 0 0 1 3.582 14.5l-1.554.291a463.244 463.244 0 0 0-1.295-5.835 184.56 184.56 0 0 0-1.304-5.352 47.677 47.677 0 0 0-.53 2.762l-.32 1.946c-.109.665-.212 1.332-.31 1.998a425.77 425.77 0 0 1-.266 1.798 48.576 48.576 0 0 0-.189 1.367l-1.274.239a49.96 49.96 0 0 0-.672-1.206l-.898-1.58c-.332-.586-.669-1.17-1.012-1.75l-1.003-1.699c-.281-.479-.57-.955-.864-1.425-.201-.325-.41-.644-.628-.957.208 1.825.446 3.646.717 5.462.29 1.953.592 3.921.909 5.908l-1.556.291zm21.778-8.532a257.371 257.371 0 0 0-1.823-3.545 163.125 163.125 0 0 0-1.719-3.189 102.42 102.42 0 0 0-1.729-2.996l-1.45.271a93.388 93.388 0 0 0-.528 3.413 167.718 167.718 0 0 0-.448 3.601 263.597 263.597 0 0 0-.416 3.965c-.135 1.39-.275 2.902-.421 4.532l1.65-.31.328-3.932 5.124-.959c.293.602.579 1.192.855 1.775.277.583.568 1.173.873 1.772l1.729-.324a416.936 416.936 0 0 0-2.025-4.074zm-6.412.031c.1-1.254.216-2.507.348-3.759.123-1.176.279-2.347.468-3.514a82.683 82.683 0 0 1 1.685 3.116 366.85 366.85 0 0 1 1.708 3.369l-4.209.788zm16.802-8.546c-.479-.879-1.054-1.575-1.724-2.088a5.286 5.286 0 0 0-2.25-1.004c-.829-.159-1.708-.151-2.632.021-.456.085-.955.207-1.496.36-.54.154-1.02.342-1.44.564l2.662 14.212c.474.06.989.063 1.548.008.511-.047 1.02-.117 1.523-.209.925-.173 1.746-.484 2.461-.931a5.31 5.31 0 0 0 1.735-1.748c.44-.716.725-1.573.852-2.57.126-.997.071-2.128-.167-3.395-.237-1.267-.594-2.34-1.072-3.22zm-.934 7.919c-.552 1.134-1.581 1.841-3.083 2.122-.446.084-.793.142-1.04.175-.247.032-.419.05-.519.054l-2.1-11.208c.094-.032.261-.08.502-.142a16.21 16.21 0 0 1 1.032-.22c1.504-.282 2.718.006 3.642.862.925.857 1.555 2.18 1.89 3.971.337 1.792.228 3.253-.324 4.386zm5.733 2.204l-2.745-14.656 6.9-1.293.325 1.736-5.315.995.823 4.389 4.733-.886.317 1.694-4.733.887.956 5.102 5.729-1.073.325 1.735zm-34.113 9.894l1.681-.315 1.144 3.258 1.11 3.164c.36 1.024.712 1.973 1.062 2.849l.972 2.446c.173-1.711.332-3.423.477-5.136.162-1.911.277-3.825.346-5.742l1.374-.258a103.87 103.87 0 0 0 2.421 5.227 523.35 523.35 0 0 0 2.323 4.613l.019-2.502c.008-.904-.008-1.91-.046-3.018l-.121-3.437-.124-3.517 1.634-.306c.122 2.577.157 5.156.106 7.736-.051 2.584-.098 5.065-.143 7.441l-1.586.297a181.797 181.797 0 0 1-2.283-4.437 144.159 144.159 0 0 1-2.354-4.99 125.503 125.503 0 0 1-.404 5.507c-.166 1.698-.34 3.353-.522 4.962l-1.586.297-2.715-6.571c-.94-2.28-1.868-4.802-2.785-7.568zm17.69-3.313l2.745 14.656-1.585.297-2.745-14.657zm1.995 1.486l-.337-1.797 8.694-1.628.336 1.797-3.554.666 2.408 12.858-1.585.298-2.409-12.859-3.553.665zM88.7 129.213l-2.745-14.656 1.586-.297 1.142 6.094 5.53-1.037-1.142-6.093 1.586-.297 2.745 14.656-1.586.297-1.267-6.765-5.53 1.036 1.267 6.765zm-46.028 19.695c-.229-1.225-.29-2.34-.181-3.344.109-1.004.348-1.877.718-2.62.37-.743.848-1.344 1.436-1.803a4.541 4.541 0 0 1 1.997-.898 5.724 5.724 0 0 1 1.288-.107c.39.016.734.053 1.031.111a4.067 4.067 0 0 1 1.147.395l-.136 1.779a2.456 2.456 0 0 0-.475-.195 7.9 7.9 0 0 0-.686-.181 4.364 4.364 0 0 0-1.673-.035c-.6.112-1.114.348-1.542.706s-.763.822-1.005 1.391c-.244.57-.385 1.234-.427 1.993-.042.76.021 1.59.19 2.493a11.5 11.5 0 0 0 .683 2.347c.292.69.643 1.264 1.056 1.721s.882.783 1.409.977c.525.194 1.104.232 1.736.113.728-.136 1.312-.349 1.753-.639.44-.289.767-.532.976-.728L52.7 154a2.251 2.251 0 0 1-.361.341 4.844 4.844 0 0 1-.68.442 7.85 7.85 0 0 1-.98.445c-.38.146-.798.262-1.255.348-.796.149-1.552.115-2.268-.105-.714-.218-1.366-.607-1.955-1.167-.589-.561-1.1-1.291-1.533-2.194-.433-.902-.765-1.969-.996-3.202zm19.477 2.137a47.615 47.615 0 0 0-1.165-1.59 28.623 28.623 0 0 0-1.112-1.369 61.106 61.106 0 0 0-.876-.985c.711-.482 1.204-1.107 1.475-1.875.272-.767.317-1.636.135-2.606-.288-1.535-.921-2.614-1.901-3.236-.979-.621-2.267-.784-3.86-.485-.504.097-1.003.217-1.495.361a7.53 7.53 0 0 0-1.44.563l2.707 14.449 1.584-.297-1.074-5.732 1.869-.35c.146-.027.29-.061.431-.102.305.333.607.671.904 1.012.358.41.706.831 1.042 1.259a39.046 39.046 0 0 1 2.086 2.929l1.729-.324c-.323-.556-.669-1.1-1.039-1.622zm-3.741-5.693c-.263.256-.606.459-1.028.61a9.755 9.755 0 0 1-1.446.377l-1.125.211-1.033-5.515c.347-.114.858-.236 1.533-.362a5.55 5.55 0 0 1 1.227-.097c.393.017.748.103 1.063.261.316.159.588.407.82.744.231.339.397.783.5 1.333.111.593.119 1.083.025 1.471a1.963 1.963 0 0 1-.536.967zm6.47 6.998l-2.745-14.656 6.901-1.293.325 1.735-5.316.996.823 4.39 4.734-.887.317 1.694-4.734.887.956 5.102 5.73-1.073.325 1.735-7.316 1.371zm16.575-7.557a257.371 257.371 0 0 0-1.823-3.545 154.628 154.628 0 0 0-1.72-3.19 100.443 100.443 0 0 0-1.729-2.996l-1.45.271a93.716 93.716 0 0 0-.527 3.413 161.591 161.591 0 0 0-.448 3.601c-.149 1.32-.289 2.642-.417 3.963a563.193 563.193 0 0 0-.421 4.532v.001l1.65-.309.327-3.932 5.124-.96c.289.591.575 1.182.856 1.774.282.596.573 1.186.873 1.773l1.729-.324a405.49 405.49 0 0 0-2.024-4.072zm-6.412.03a150.1 150.1 0 0 1 .348-3.759c.128-1.211.284-2.382.468-3.514a82.661 82.661 0 0 1 1.684 3.116 366.85 366.85 0 0 1 1.708 3.369l-4.208.788zm6.417-8.889l-.336-1.797 8.695-1.629.337 1.797-3.556.666 2.409 12.859-1.586.297-2.408-12.859zm11.61-4.036l2.745 14.656-1.586.298-2.745-14.656zm1.553-.29l1.753-.328a748.445 748.445 0 0 0 2.934 6.105 112.394 112.394 0 0 0 2.83 5.462c.264-1.903.485-3.939.661-6.111.176-2.171.346-4.423.508-6.756l1.698-.318a314.507 314.507 0 0 1-.378 4.524c-.127 1.389-.26 2.708-.397 3.959a161.49 161.49 0 0 1-.431 3.594 171.694 171.694 0 0 1-.488 3.411l-1.483.278a177.12 177.12 0 0 1-3.399-6.195 244 244 0 0 1-1.823-3.544 166.08 166.08 0 0 1-1.985-4.081zm14.691 12.419l-2.745-14.656 6.901-1.292.325 1.734-5.315.996.822 4.39 4.733-.887.317 1.695-4.732.886.955 5.102 5.729-1.073.325 1.736-7.315 1.37zm-66.548 23.539c-.229-1.226-.289-2.341-.181-3.345.109-1.004.349-1.877.718-2.619.37-.744.849-1.344 1.437-1.804a4.538 4.538 0 0 1 1.997-.896 5.667 5.667 0 0 1 1.287-.108c.39.016.734.052 1.032.111.297.059.543.128.74.208.197.082.332.145.407.187l-.137 1.779a2.416 2.416 0 0 0-.474-.195 8.472 8.472 0 0 0-.686-.182 4.56 4.56 0 0 0-.814-.099 4.038 4.038 0 0 0-.858.064 3.302 3.302 0 0 0-1.542.707 3.627 3.627 0 0 0-1.005 1.391c-.243.57-.385 1.233-.427 1.994-.042.759.021 1.592.19 2.493a11.5 11.5 0 0 0 .683 2.347c.291.69.643 1.263 1.057 1.721a3.52 3.52 0 0 0 1.407.977c.526.194 1.105.232 1.737.114.728-.137 1.312-.351 1.753-.641.44-.289.767-.531.978-.728l.731 1.617a2.192 2.192 0 0 1-.362.339 4.64 4.64 0 0 1-.68.443 7.85 7.85 0 0 1-.98.445c-.38.147-.798.262-1.255.348-.796.149-1.553.114-2.268-.104a4.905 4.905 0 0 1-1.955-1.169c-.589-.561-1.099-1.29-1.533-2.193-.434-.903-.766-1.97-.997-3.202zm19.872-7.154c-.469-.903-1.008-1.629-1.617-2.183-.608-.552-1.267-.929-1.976-1.132a4.634 4.634 0 0 0-2.152-.098 4.799 4.799 0 0 0-2.01.877c-.599.448-1.087 1.041-1.465 1.777-.377.738-.62 1.61-.728 2.622-.108 1.011-.045 2.143.189 3.396.235 1.254.586 2.333 1.054 3.24.467.907 1.011 1.635 1.628 2.185.618.551 1.288.925 2.009 1.126.72.199 1.451.23 2.191.091a4.636 4.636 0 0 0 1.971-.871c.588-.446 1.065-1.035 1.433-1.771.368-.734.606-1.609.716-2.625.11-1.015.047-2.148-.188-3.402-.235-1.251-.587-2.33-1.055-3.232zm-.435 6.02c-.039.759-.171 1.425-.396 1.993-.226.571-.541 1.036-.942 1.397-.402.36-.893.594-1.471.703a3.029 3.029 0 0 1-1.637-.121 3.592 3.592 0 0 1-1.395-.959c-.417-.447-.778-1.021-1.087-1.715-.309-.694-.546-1.484-.713-2.373-.166-.888-.231-1.712-.194-2.471s.168-1.422.394-1.988a3.6 3.6 0 0 1 .955-1.393 3.04 3.04 0 0 1 1.483-.705 2.987 2.987 0 0 1 1.622.124c.508.191.97.509 1.386.954.416.446.779 1.017 1.09 1.71.311.693.549 1.485.716 2.373.164.889.227 1.711.189 2.471zm4.889 4.178a339.593 339.593 0 0 1-1.094-7.711 389.055 389.055 0 0 1-.457-3.694 115.982 115.982 0 0 1-.357-3.408l1.386-.26c.472.661.925 1.336 1.356 2.024.497.784.999 1.605 1.509 2.465.509.856 1.008 1.717 1.498 2.585.489.863.936 1.652 1.339 2.369.116-.814.248-1.711.391-2.693.143-.986.297-1.969.461-2.952.158-.95.33-1.898.514-2.844.154-.797.331-1.59.533-2.377l1.386-.259a359.43 359.43 0 0 1 3.583 14.499l-1.554.291c-.42-1.947-.851-3.893-1.295-5.834a180.63 180.63 0 0 0-1.303-5.353c-.085.372-.164.744-.237 1.119a50.71 50.71 0 0 0-.294 1.643l-.32 1.947c-.109.665-.212 1.331-.311 1.997a259.13 259.13 0 0 1-.265 1.798c-.07.454-.134.909-.19 1.366l-1.275.239a48.664 48.664 0 0 0-.672-1.205c-.301-.526-.6-1.052-.897-1.58a113.34 113.34 0 0 0-1.013-1.75l-1.002-1.699a55.768 55.768 0 0 0-.866-1.426 21.884 21.884 0 0 0-.628-.957c.208 1.825.446 3.646.717 5.462.288 1.952.592 3.922.909 5.907l-1.552.291zm14.209-2.661a371.378 371.378 0 0 1-.571-3.864c-.186-1.301-.36-2.583-.523-3.847a359.032 359.032 0 0 1-.457-3.694 115.982 115.982 0 0 1-.357-3.408l1.387-.26c.472.661.924 1.336 1.356 2.024.496.784 1 1.605 1.509 2.465.509.856 1.008 1.717 1.499 2.584.489.863.935 1.652 1.338 2.369.117-.813.247-1.711.391-2.692.144-.986.298-1.97.461-2.952.159-.95.33-1.898.515-2.844.154-.797.332-1.589.533-2.377l1.386-.26a361.16 361.16 0 0 1 3.582 14.5l-1.554.291a485.787 485.787 0 0 0-1.295-5.835 185.41 185.41 0 0 0-1.303-5.353c-.085.372-.164.744-.237 1.119a53.382 53.382 0 0 0-.295 1.643l-.319 1.947c-.11.665-.213 1.331-.311 1.997a259.13 259.13 0 0 1-.265 1.798c-.07.454-.133.909-.189 1.366l-1.275.239a45.573 45.573 0 0 0-.672-1.205c-.3-.526-.6-1.052-.897-1.58a113.28 113.28 0 0 0-1.012-1.75l-1.003-1.699c-.282-.479-.57-.956-.865-1.426a22.86 22.86 0 0 0-.629-.957c.208 1.825.447 3.646.717 5.462.289 1.952.592 3.922.909 5.907l-1.554.292zm22.447-15.238c-.47-.903-1.006-1.63-1.615-2.183-.61-.551-1.268-.929-1.976-1.132a4.642 4.642 0 0 0-2.154-.098 4.788 4.788 0 0 0-2.01.878c-.6.448-1.087 1.04-1.464 1.776-.377.738-.621 1.611-.728 2.622-.108 1.011-.046 2.143.189 3.396.235 1.254.586 2.333 1.054 3.24.467.907 1.01 1.636 1.628 2.186.619.551 1.287.925 2.008 1.126.713.199 1.464.23 2.191.091a4.644 4.644 0 0 0 1.973-.871c.587-.446 1.063-1.035 1.433-1.771.367-.735.604-1.609.715-2.625.11-1.015.047-2.148-.188-3.402-.236-1.252-.586-2.33-1.056-3.233zm-.435 6.02c-.039.76-.171 1.426-.398 1.993-.225.571-.539 1.036-.94 1.397-.402.36-.893.594-1.472.703a3.039 3.039 0 0 1-1.637-.121 3.588 3.588 0 0 1-1.396-.959c-.417-.447-.778-1.021-1.087-1.715a10.616 10.616 0 0 1-.712-2.373 10.62 10.62 0 0 1-.195-2.471c.037-.758.167-1.422.394-1.988a3.589 3.589 0 0 1 .955-1.393 3.046 3.046 0 0 1 1.482-.705 2.988 2.988 0 0 1 1.623.124c.507.191.97.509 1.385.955.417.446.781 1.016 1.091 1.709.311.693.549 1.485.716 2.373.166.89.23 1.712.191 2.471zm5.201 4.121l-2.746-14.656 1.259-.236a40.448 40.448 0 0 1 2.099 2.158 104.638 104.638 0 0 1 4.439 5.198c.605.757 1.192 1.53 1.758 2.317l-2.031-10.845 1.554-.291 2.745 14.655-1.322.248a98.545 98.545 0 0 0-2.535-3.432c-.5-.644-1.004-1.283-1.515-1.919a88.383 88.383 0 0 0-3.007-3.547c-.419-.47-.847-.932-1.286-1.384l2.143 11.443-1.555.291zm10.876-2.799l.153-1.775c.284.138.703.271 1.258.396.554.128 1.201.123 1.939-.016 1.652-.31 2.341-1.196 2.067-2.657-.084-.453-.229-.823-.436-1.111a2.643 2.643 0 0 0-.748-.712 4.016 4.016 0 0 0-.969-.442c-.353-.107-.727-.21-1.118-.308a9.321 9.321 0 0 1-1.293-.407 4.293 4.293 0 0 1-1.113-.644 3.662 3.662 0 0 1-.857-1.005c-.241-.406-.419-.918-.535-1.535-.241-1.285-.091-2.352.448-3.2.54-.847 1.404-1.383 2.595-1.606a5.89 5.89 0 0 1 1.929-.064c.598.086 1.05.22 1.354.4l-.2 1.777c-.263-.142-.639-.258-1.124-.349-.485-.09-1.027-.078-1.623.033a2.81 2.81 0 0 0-.824.287 2.074 2.074 0 0 0-.619.51 1.796 1.796 0 0 0-.345.73 2.322 2.322 0 0 0 0 .948c.073.391.194.708.364.955.171.245.383.447.638.609.256.163.545.3.866.414.321.114.67.225 1.048.33.503.153 1.001.322 1.493.509a4.7 4.7 0 0 1 1.24.705c.367.294.677.667.931 1.121.254.453.445 1.026.575 1.719.24 1.284.064 2.342-.532 3.172-.596.83-1.555 1.368-2.877 1.616a6.177 6.177 0 0 1-1.254.111 7.802 7.802 0 0 1-1.056-.094 5.284 5.284 0 0 1-.824-.197 3.68 3.68 0 0 1-.551-.22zM433.408 216c.324-2.508.992-4.687 2.007-6.533 1.013-1.848 2.257-3.351 3.733-4.516a13.23 13.23 0 0 1 4.938-2.447c1.815-.465 3.71-.57 5.684-.315 1.239.161 2.346.392 3.316.698.972.304 1.809.617 2.512.936.705.323 1.274.627 1.71.922.434.291.731.505.885.641l-1.655 3.31c-.231-.2-.581-.434-1.047-.704a23.737 23.737 0 0 0-1.591-.826 13.99 13.99 0 0 0-1.977-.764 13.096 13.096 0 0 0-2.205-.479c-1.594-.206-3.06-.114-4.4.268a9.05 9.05 0 0 0-3.553 1.959c-1.029.923-1.876 2.095-2.541 3.521-.665 1.425-1.115 3.062-1.354 4.907-.231 1.791-.234 3.451-.009 4.977.225 1.527.69 2.871 1.391 4.037a8.487 8.487 0 0 0 2.822 2.858c1.18.743 2.608 1.22 4.287 1.437 1.931.25 3.557.253 4.878.01 1.322-.245 2.319-.481 2.993-.711l.652 3.61c-.217.116-.603.246-1.159.399-.557.15-1.236.273-2.036.371-.801.097-1.733.15-2.795.163-1.062.015-2.2-.058-3.41-.215-2.115-.273-3.992-.872-5.627-1.794a12.43 12.43 0 0 1-4.06-3.606c-1.068-1.487-1.815-3.245-2.24-5.28-.425-2.03-.475-4.31-.149-6.834zm26.831 3.471c.324-2.508.994-4.686 2.006-6.533 1.014-1.848 2.256-3.351 3.732-4.516a13.254 13.254 0 0 1 4.94-2.447c1.816-.465 3.71-.57 5.684-.315 1.241.161 2.346.392 3.317.698.972.304 1.808.617 2.513.937.704.322 1.272.626 1.708.921.435.291.729.505.885.641l-1.653 3.311c-.232-.201-.583-.435-1.049-.705a25.2 25.2 0 0 0-1.59-.826 13.99 13.99 0 0 0-1.977-.764 13.128 13.128 0 0 0-2.206-.479c-1.593-.206-3.06-.114-4.398.269a9.049 9.049 0 0 0-3.553 1.958c-1.029.923-1.878 2.095-2.541 3.521-.664 1.426-1.114 3.062-1.354 4.907-.231 1.791-.235 3.451-.011 4.977.225 1.527.689 2.871 1.392 4.037a8.517 8.517 0 0 0 2.822 2.859c1.179.742 2.609 1.219 4.286 1.436 1.93.25 3.559.253 4.88.01 1.319-.245 2.319-.48 2.992-.71l.652 3.609c-.217.116-.602.246-1.159.399-.557.15-1.235.273-2.037.371-.8.098-1.73.15-2.795.163a24.02 24.02 0 0 1-3.411-.215c-2.113-.273-3.99-.872-5.625-1.793a12.475 12.475 0 0 1-4.06-3.607c-1.07-1.487-1.815-3.245-2.239-5.28-.427-2.031-.477-4.31-.151-6.834z"/>
  <path fill="none" d="M89.045 185.053c4.903-.918 9.615.118 13.661 2.886 3.976 2.723 6.597 6.81 7.504 11.654.918 4.903-.009 9.531-2.741 13.447-2.878 4.127-7.075 6.832-11.738 7.706-4.723.885-9.496-.142-13.541-2.908-4.046-2.771-6.799-6.896-7.673-11.56-.885-4.724.188-9.565 2.947-13.672 2.709-4.036 6.679-6.635 11.581-7.553z"/>
  <path d="M81.854 204.518c-.202-1.077-.218-2.063-.047-2.961.17-.896.482-1.682.935-2.359a5.687 5.687 0 0 1 1.708-1.669 6.491 6.491 0 0 1 2.299-.891 8.268 8.268 0 0 1 1.46-.155c.441-.005.828.012 1.16.049a5.169 5.169 0 0 1 1.279.298l-.24 1.585a3.08 3.08 0 0 0-.526-.151 11.02 11.02 0 0 0-.766-.128 6.101 6.101 0 0 0-1.889.048c-.684.128-1.276.361-1.777.698a3.929 3.929 0 0 0-1.202 1.282c-.301.518-.493 1.115-.576 1.791-.083.677-.05 1.412.098 2.204.144.769.365 1.453.662 2.052.296.6.668 1.092 1.113 1.479a3.66 3.66 0 0 0 1.545.799c.585.149 1.237.154 1.958.019.829-.154 1.5-.371 2.011-.647.513-.277.892-.509 1.139-.693l.751 1.4a2.746 2.746 0 0 1-.423.32 6.43 6.43 0 0 1-.79.425c-.317.146-.694.293-1.13.441-.435.146-.914.271-1.434.367-.908.171-1.762.175-2.559.013a5.393 5.393 0 0 1-2.155-.942c-.639-.471-1.183-1.096-1.629-1.877-.447-.781-.772-1.713-.975-2.797zm11.52-2.159c-.202-1.076-.217-2.063-.047-2.96.171-.896.481-1.682.934-2.359a5.702 5.702 0 0 1 1.709-1.669 6.48 6.48 0 0 1 2.299-.891c.533-.1 1.02-.152 1.461-.155a9.65 9.65 0 0 1 1.161.049c.333.039.608.089.827.152.218.061.368.11.451.146l-.239 1.584a3.11 3.11 0 0 0-.527-.15 10.43 10.43 0 0 0-.765-.128 5.985 5.985 0 0 0-.917-.05 5.67 5.67 0 0 0-.973.098c-.684.128-1.276.361-1.777.697a3.94 3.94 0 0 0-1.202 1.282 4.659 4.659 0 0 0-.576 1.791c-.083.676-.049 1.412.099 2.205.144.768.364 1.452.661 2.051.297.6.668 1.092 1.113 1.479.444.385.974.661 1.545.8.585.148 1.239.153 1.958.019.829-.155 1.5-.372 2.012-.648.511-.277.891-.509 1.138-.693l.751 1.4a2.655 2.655 0 0 1-.424.32 6.296 6.296 0 0 1-.79.425 11.77 11.77 0 0 1-1.129.441 10.48 10.48 0 0 1-1.435.368c-.907.17-1.761.174-2.558.012a5.412 5.412 0 0 1-2.155-.942c-.64-.471-1.183-1.095-1.629-1.877-.448-.78-.773-1.713-.976-2.797z"/>
</svg>
