<svg xmlns="http://www.w3.org/2000/svg" viewBox=".445 595.14 400 400" class="brand_color">
  <path fill="none" d="M200.445 629.39c10.725 0 19.5 8.773 19.5 19.499s-8.774 19.502-19.5 19.502-19.5-8.775-19.5-19.502c0-10.723 8.774-19.499 19.5-19.499zm29.769 32.436l91.065 91.064m-241.669 0l91.065-91.064M18.445 765.889h364V960.89h-364z"/>
  <path fill="#FFF" d="M83.445 791.889c-17.94 0-32.5 14.562-32.5 32.5v78.001c0 17.94 14.56 32.5 32.5 32.5 17.939 0 32.5-14.56 32.5-32.5v-78.001c0-17.938-14.56-32.5-32.5-32.5zm19.5 110.501c0 10.726-8.774 19.5-19.5 19.5-10.725 0-19.5-8.774-19.5-19.5v-78.001c0-10.725 8.775-19.499 19.5-19.499s19.5 8.774 19.5 19.499v78.001zm58.5-110.501c-17.94 0-32.5 14.562-32.5 32.5V928.39c0 3.576 2.924 6.5 6.5 6.5s6.5-2.924 6.5-6.5v-45.695c5.46 4.095 12.156 6.694 19.501 6.694 17.939 0 32.499-14.56 32.499-32.5v-32.5c-.001-17.938-14.56-32.5-32.5-32.5zm19.5 65c0 10.726-8.775 19.502-19.5 19.502s-19.501-8.775-19.501-19.502v-32.5c0-10.725 8.775-19.499 19.501-19.499 10.724 0 19.5 8.774 19.5 19.499v32.5zm156 37.767l-39.455-98.671-.065-.064c-.26-.585-.65-1.041-1.041-1.561l-.39-.585c-.195-.194-.391-.261-.585-.39-.454-.392-.91-.78-1.43-.976-.13-.064-.26-.064-.39-.064a5.613 5.613 0 0 0-2.081-.392h-.065c-.39 0-.779.131-1.17.26-.456.066-.845.066-1.3.261l-.065.066c-.584.26-1.04.649-1.559 1.04-.196.129-.391.194-.585.39-.261.261-.326.519-.52.78-.326.39-.65.779-.845 1.235-.065.129-.065.324-.13.52-.195.649-.39 1.299-.39 2.016v130.064c0 3.576 2.924 6.501 6.499 6.501 3.576 0 6.5-2.925 6.5-6.501v-96.46l39.456 98.669s0 .064.065.064c.064.131.129.195.195.327.26.584.649 1.104 1.04 1.559.13.196.326.326.52.455.39.39.845.65 1.364.91.195.131.391.195.65.325.715.262 1.495.455 2.275.455.78 0 1.625-.131 2.405-.455 0 0 .065 0 .065-.065.585-.26 1.04-.648 1.56-.976.195-.129.454-.259.584-.39.196-.195.326-.52.52-.714.325-.456.65-.846.91-1.301.065-.131.065-.325.13-.519.196-.65.391-1.301.391-2.017V798.389c0-3.574-2.925-6.5-6.5-6.5s-6.5 2.926-6.5 6.5v96.266l-.063.001zm-71.5-89.766c3.576 0 6.5-2.925 6.5-6.501 0-3.574-2.924-6.5-6.5-6.5h-52c-3.576 0-6.5 2.926-6.5 6.5V928.39c0 3.576 2.924 6.5 6.5 6.5h52c3.576 0 6.5-2.924 6.5-6.5 0-3.574-2.924-6.5-6.5-6.5h-45.5v-52h45.5c3.576 0 6.5-2.925 6.5-6.5 0-3.576-2.924-6.501-6.5-6.501h-45.5V804.89h45.5z"/>
</svg>
