<svg xmlns="http://www.w3.org/2000/svg" viewBox="0.445 595.14 400 400" class="brand_color">
  <path fill="#FFF" d="M258.357 898.439c0-2.02.97-6.566 2.612-7.749 38.245-27.502 55.58-77.702 43.138-124.913-12.938-49.087-55.57-83.367-103.676-83.367-48.091.004-90.713 34.282-103.646 83.367-12.446 47.213 4.89 97.411 43.133 124.913 1.641 1.183 2.613 5.729 2.613 7.749h115.826z"/>
  <path fill="none" d="M142.929 910.43s-.009 24.295-.022 24.501c2.125 30.757 26.99 54.935 56.784 55.209.078-.004.157-.004.236-.004h.264c29.855 0 55.155-24.159 57.391-55.01V909.86"/>
  <path fill="none" d="M200.848 600.14v43.76M293.527 620.948l-20.368 38.237M126.796 659.963l-21.439-37.697"/>
</svg>
