<?xml version="1.0" encoding="utf-8"?>
<!-- Generator: Adobe Illustrator 15.0.0, SVG Export Plug-In . SVG Version: 6.00 Build 0)  -->
<!DOCTYPE svg PUBLIC "-//W3C//DTD SVG 1.1//EN" "http://www.w3.org/Graphics/SVG/1.1/DTD/svg11.dtd">
<svg version="1.1" id="Layer_1" xmlns="http://www.w3.org/2000/svg" xmlns:xlink="http://www.w3.org/1999/xlink" x="0px" y="0px"
	 width="400px" height="400px" viewBox="0 0 400 400" enable-background="new 0 0 400 400" xml:space="preserve">
<path id="outer" fill="none" stroke="#000000" stroke-width="4" stroke-linecap="round" stroke-linejoin="round" stroke-miterlimit="10" d="
	M310.5,33.665C310.5,17.871,297.629,5,281.836,5H118.165C102.37,5,89.5,17.871,89.5,33.665v332.735
	c0,15.729,12.87,28.601,28.665,28.601h163.734c9.101,0,26.601-7.75,26.601-28C308.5,348.5,310.5,33.665,310.5,33.665z"/>
<rect x="102.501" y="36.999" fill="none" stroke="#000000" stroke-width="4" stroke-linecap="round" stroke-linejoin="round" stroke-miterlimit="10" width="195" height="329.501"/>
<path display="none" d="M66.165,17.999h163.734c8.58,0,15.602,7.021,15.602,15.666V44h-195V33.665
	C50.501,25.02,57.521,17.999,66.165,17.999z"/>
<path display="none" d="M232.694,381.74c-0.909,0.195-1.885,0.261-2.858,0.261H66.165c-8.645,0-15.664-7.021-15.664-15.665V317
	h143.324c0.064,1.17,0.195,2.34,0.325,3.444c0.129,0.845,0.259,1.69,0.389,2.535c0.39,2.535,0.845,5.07,1.431,7.476
	c0.195,0.779,0.39,1.561,0.585,2.34c0.779,2.796,1.69,5.524,2.664,8.189c0.131,0.326,0.261,0.716,0.39,1.04
	c2.535,6.24,5.786,12.091,9.62,17.485c0.325,0.521,0.716,0.975,1.106,1.43c1.624,2.211,3.38,4.29,5.198,6.306
	c0.456,0.454,0.845,0.976,1.301,1.431c4.614,4.81,9.75,9.1,15.341,12.739C232.435,381.545,232.499,381.675,232.694,381.74z"/>
<path display="none" d="M278,382.001c-9.686,0-18.979-1.951-27.431-5.461l-1.429-0.649c-0.521-0.261-1.04-0.521-1.561-0.781
	c-2.274-1.104-4.486-2.274-6.631-3.575c-0.584-0.323-1.168-0.714-1.754-1.039c-0.977-0.651-1.949-1.301-2.86-2.015
	c-0.715-0.521-1.429-1.04-2.08-1.561c-0.911-0.649-1.756-1.365-2.601-2.079c-0.714-0.65-1.43-1.301-2.145-1.951
	c-1.3-1.233-2.6-2.535-3.835-3.834c-0.65-0.716-1.3-1.365-1.886-2.081c-0.714-0.845-1.429-1.756-2.145-2.601
	c-0.519-0.649-1.04-1.364-1.495-2.014c-0.649-0.91-1.364-1.885-2.015-2.861c-0.389-0.649-0.779-1.3-1.17-1.949
	c-1.104-1.755-2.08-3.575-2.989-5.46c-0.391-0.779-0.781-1.496-1.104-2.274c-0.456-1.04-0.911-2.08-1.302-3.12
	c-0.324-0.909-0.649-1.821-0.975-2.73c-0.324-0.975-0.715-1.949-0.975-2.926c-0.52-1.754-0.975-3.574-1.365-5.394
	c-0.131-0.715-0.259-1.495-0.39-2.275c-0.26-1.431-0.455-2.86-0.65-4.29c-0.064-0.715-0.195-1.365-0.26-2.08
	c-0.326-2.21-0.454-4.354-0.454-6.501c0-2.209,0.128-4.354,0.323-6.563c0.065-0.779,0.195-1.496,0.261-2.274
	c0.194-1.366,0.39-2.73,0.65-4.031c0.195-0.911,0.324-1.82,0.52-2.729c0.26-1.171,0.586-2.34,0.909-3.445
	c0.261-0.975,0.521-1.886,0.781-2.86c0.586-1.754,1.17-3.444,1.885-5.134c0.455-1.106,0.976-2.212,1.495-3.381
	c0.325-0.715,0.714-1.494,1.04-2.21c0.585-1.105,1.169-2.21,1.819-3.25c0.39-0.65,0.78-1.3,1.235-1.95
	c0.649-1.04,1.365-2.145,2.08-3.185c0.391-0.521,0.781-1.04,1.17-1.561c1.495-2.015,3.119-4.029,4.875-5.915
	c0.39-0.454,0.779-0.91,1.17-1.3c0.909-0.91,1.821-1.819,2.795-2.665c0.521-0.52,1.105-1.04,1.625-1.494
	c0.976-0.846,1.95-1.69,2.99-2.471c0.521-0.391,1.04-0.78,1.56-1.169c1.105-0.846,2.275-1.69,3.445-2.407
	c0.065-0.063,0.195-0.128,0.261-0.128c4.484-2.861,9.295-5.266,14.364-7.087c0.456-0.128,0.845-0.323,1.301-0.454l1.885-0.65
	c6.694-2.08,13.78-3.185,21.06-3.185c39.455,0,71.5,32.045,71.5,71.499C349.5,349.955,317.455,382.001,278,382.001z"/>
<path display="none" d="M148.001,323.501c-14.366,0-26.001,11.634-26.001,25.998c0,14.366,11.635,26.001,26.001,26.001
	c14.364,0,25.998-11.635,25.998-26.001C173.999,335.135,162.365,323.501,148.001,323.501z M148.001,362.501
	c-7.151,0-13.002-5.852-13.002-13.002c0-7.149,5.851-12.999,13.002-12.999c7.149,0,12.999,5.85,12.999,12.999
	C161,356.649,155.15,362.501,148.001,362.501z"/>
<path display="none" d="M160,56.666h21.334c2.933,0,5.332-2.399,5.332-5.332c0-2.934-2.399-5.334-5.332-5.334H160
	c-2.934,0-5.334,2.4-5.334,5.334C154.666,54.267,157.066,56.666,160,56.666z"/>
<path display="none" d="M197.334,56.666h5.332c2.934,0,5.334-2.399,5.334-5.332C208,48.4,205.6,46,202.666,46h-5.332
	C194.4,46,192,48.4,192,51.334C192,54.267,194.4,56.666,197.334,56.666z"/>
<path fill="#FFFFFF" stroke="#000000" stroke-width="4" stroke-linecap="round" stroke-linejoin="round" stroke-miterlimit="10" d="
	M198.765,222.958c12.705,0,24.017,4.803,32.848,13.635c8.677,8.677,13.324,20.142,13.324,32.693c0,12.707-4.493,23.86-13.168,32.383
	c-9.144,8.986-20.917,13.789-33.004,13.789c-12.24,0-23.707-4.803-32.538-13.632c-8.831-8.835-13.789-20.455-13.789-32.54
	c0-12.241,4.958-23.859,13.789-32.849C174.903,227.606,186.061,222.958,198.765,222.958z"/>
<g>
	<path d="M152.772,89.519c0.091-2.722,0.197-5.471,0.317-8.245c0.12-2.775,0.257-5.504,0.411-8.19
		c0.154-2.685,0.317-5.3,0.488-7.846c0.171-2.544,0.365-4.949,0.582-7.212h2.979c0.627,1.332,1.304,2.908,2.029,4.727
		c0.725,1.82,1.449,3.721,2.175,5.704c0.725,1.983,1.427,3.966,2.106,5.949s1.298,3.795,1.858,5.438
		c0.559-1.643,1.179-3.455,1.858-5.438c0.679-1.983,1.381-3.965,2.106-5.949c0.725-1.982,1.449-3.884,2.174-5.704
		c0.725-1.819,1.401-3.396,2.029-4.727h2.979c0.799,10.151,1.398,20.648,1.798,31.494h-3.339c-0.114-4.247-0.254-8.452-0.419-12.618
		c-0.166-4.165-0.375-8.037-0.625-11.618c-0.229,0.519-0.537,1.261-0.925,2.23c-0.388,0.969-0.805,2.068-1.25,3.296
		c-0.445,1.228-0.919,2.534-1.421,3.916c-0.502,1.385-0.976,2.727-1.421,4.028c-0.445,1.303-0.862,2.512-1.25,3.629
		s-0.696,2.038-0.924,2.763h-2.74c-0.229-0.725-0.537-1.645-0.925-2.763c-0.388-1.118-0.805-2.327-1.25-3.629
		c-0.445-1.301-0.919-2.644-1.421-4.028c-0.502-1.382-0.976-2.688-1.421-3.916c-0.445-1.228-0.859-2.327-1.241-3.296
		c-0.383-0.969-0.693-1.712-0.933-2.23c-0.263,3.581-0.474,7.453-0.634,11.618c-0.16,4.166-0.297,8.371-0.411,12.618H152.772z"/>
	<path d="M181.231,89.519c0.936-3.329,1.815-6.411,2.637-9.244c0.822-2.833,1.624-5.522,2.406-8.068
		c0.782-2.544,1.559-4.979,2.329-7.302c0.771-2.322,1.578-4.617,2.423-6.88h3.117c0.844,2.278,1.652,4.576,2.423,6.891
		c0.771,2.316,1.546,4.747,2.329,7.291c0.782,2.546,1.584,5.235,2.406,8.068c0.821,2.833,1.696,5.915,2.621,9.244h-3.717
		c-0.4-1.362-0.773-2.7-1.122-4.018c-0.349-1.317-0.71-2.655-1.087-4.017h-11.01l-2.209,8.035H181.231z M187.978,77.845h9.041
		c-0.753-2.633-1.498-5.185-2.234-7.657c-0.736-2.471-1.499-4.846-2.286-7.124c-0.822,2.278-1.601,4.65-2.337,7.113
		C189.425,72.64,188.697,75.196,187.978,77.845z"/>
	<path d="M207.208,89.008V58.469c0.959-0.296,2.028-0.5,3.21-0.61s2.264-0.167,3.245-0.167c1.986,0,3.811,0.326,5.471,0.977
		c1.661,0.651,3.089,1.639,4.281,2.963c1.192,1.325,2.115,2.993,2.766,5.005c0.651,2.013,0.976,4.38,0.976,7.102
		c0,2.723-0.324,5.093-0.976,7.113c-0.65,2.021-1.573,3.688-2.766,5.004c-1.192,1.318-2.62,2.301-4.281,2.953
		c-1.66,0.651-3.484,0.976-5.471,0.976c-0.981,0-2.063-0.052-3.245-0.156C209.236,89.526,208.167,89.318,207.208,89.008z
		 M210.614,85.79c0.206,0.03,0.571,0.059,1.097,0.089c0.525,0.029,1.267,0.043,2.226,0.043c3.231,0,5.64-1.068,7.227-3.207
		c1.587-2.139,2.381-5.13,2.381-8.978c0-3.847-0.794-6.839-2.381-8.978c-1.587-2.137-3.995-3.207-7.227-3.207
		c-0.959,0-1.7,0.019-2.226,0.056c-0.525,0.037-0.891,0.07-1.097,0.1V85.79z"/>
	<path d="M232.209,89.519V58.025h14.828v3.729h-11.422v9.432h10.171v3.64h-10.171V85.79h12.312v3.729H232.209z"/>
	<path d="M157.541,96.794h3.613c0.37,2.407,0.738,4.81,1.107,7.209s0.728,4.732,1.075,6.999c0.349,2.267,0.713,4.375,1.096,6.325
		c0.382,1.951,0.738,3.77,1.068,5.457c0.938-3.181,1.933-6.673,2.986-10.476c1.053-3.804,2.037-7.732,2.952-11.787h2.952
		c0.915,4.057,1.913,7.987,2.994,11.791c1.081,3.804,2.091,7.298,3.03,10.481c0.309-1.583,0.646-3.311,1.013-5.186
		c0.367-1.876,0.725-3.97,1.075-6.284c0.35-2.314,0.711-4.708,1.086-7.181c0.374-2.472,0.744-4.921,1.111-7.35h3.51
		c-0.747,5.387-1.675,10.754-2.786,16.101c-1.11,5.346-2.173,10.478-3.19,15.392h-3.408c-1.027-3.269-2.032-6.635-3.014-10.098
		s-1.963-7.22-2.945-11.274c-0.982,4.054-1.975,7.812-2.979,11.274s-2.009,6.829-3.014,10.098h-3.407
		c-0.986-4.699-2.013-9.599-3.081-14.697S158.369,102.893,157.541,96.794z"/>
	<path d="M192.147,128.287V96.794h3.408v31.493H192.147z"/>
	<path d="M199.117,100.656v-3.862h18.682v3.862h-7.638v27.631h-3.407v-27.631H199.117z"/>
	<path d="M221.377,128.287V96.794h3.408v13.095h11.884V96.794h3.407v31.493h-3.407V113.75h-11.884v14.537H221.377z"/>
	<path d="M118.166,151.277c0-2.634,0.308-4.972,0.924-7.013c0.617-2.043,1.453-3.763,2.509-5.161
		c1.056-1.398,2.283-2.459,3.682-3.184c1.398-0.725,2.896-1.088,4.495-1.088c1.004,0,1.91,0.093,2.714,0.278
		s1.504,0.396,2.098,0.632c0.593,0.237,1.079,0.477,1.456,0.721c0.376,0.244,0.633,0.425,0.771,0.543l-0.976,3.64
		c-0.206-0.178-0.508-0.374-0.908-0.588c-0.4-0.214-0.851-0.429-1.353-0.644c-0.503-0.214-1.053-0.389-1.653-0.521
		c-0.599-0.133-1.202-0.2-1.806-0.2c-1.291,0-2.449,0.289-3.476,0.866c-1.027,0.577-1.904,1.409-2.628,2.496
		c-0.726,1.088-1.279,2.413-1.661,3.973c-0.383,1.561-0.574,3.311-0.574,5.25c0,1.878,0.168,3.592,0.505,5.137
		c0.336,1.546,0.844,2.874,1.524,3.984c0.679,1.11,1.526,1.968,2.543,2.575c1.016,0.607,2.203,0.91,3.562,0.91
		c1.563,0,2.859-0.214,3.887-0.644c1.027-0.429,1.798-0.806,2.312-1.132l0.89,3.64c-0.16,0.148-0.454,0.337-0.882,0.566
		c-0.428,0.229-0.956,0.447-1.584,0.654c-0.628,0.207-1.364,0.389-2.208,0.544c-0.845,0.155-1.758,0.233-2.74,0.233
		c-1.712,0-3.268-0.366-4.667-1.098c-1.398-0.732-2.6-1.794-3.604-3.186c-1.004-1.391-1.781-3.106-2.329-5.149
		C118.439,156.271,118.166,153.925,118.166,151.277z"/>
	<path d="M140.871,167.057v-31.05c0.959-0.295,2.029-0.499,3.21-0.61c1.182-0.111,2.263-0.167,3.245-0.167
		c3.424,0,6.033,0.837,7.825,2.508c1.792,1.673,2.688,4.159,2.688,7.458c0,2.086-0.431,3.873-1.293,5.359s-2.126,2.594-3.792,3.319
		c0.378,0.606,0.857,1.401,1.437,2.385c0.579,0.985,1.171,2.076,1.777,3.274c0.605,1.199,1.206,2.449,1.799,3.751
		c0.593,1.302,1.102,2.56,1.524,3.773h-3.716c-0.469-1.154-0.979-2.322-1.527-3.506c-0.549-1.184-1.104-2.312-1.664-3.385
		c-0.561-1.073-1.118-2.079-1.673-3.019c-0.555-0.939-1.049-1.756-1.484-2.452c-0.309,0.03-0.62,0.043-0.934,0.043s-0.636,0-0.967,0
		h-3.048v12.318H140.871z M144.279,151.099h2.415c1.164,0,2.214-0.074,3.15-0.221c0.936-0.148,1.727-0.436,2.372-0.865
		c0.645-0.43,1.141-1.029,1.49-1.798c0.348-0.769,0.522-1.79,0.522-3.063c0-1.183-0.174-2.17-0.522-2.962
		c-0.349-0.791-0.819-1.413-1.413-1.865c-0.594-0.451-1.296-0.769-2.106-0.954c-0.811-0.185-1.673-0.277-2.586-0.277
		c-1.45,0-2.558,0.052-3.322,0.155V151.099z"/>
	<path d="M162.926,167.057v-31.493h14.829v3.728h-11.421v9.433h10.171v3.64h-10.171v10.964h12.312v3.729H162.926z"/>
	<path d="M180.204,167.057c0.936-3.329,1.815-6.41,2.637-9.244c0.822-2.833,1.624-5.522,2.406-8.067
		c0.782-2.545,1.559-4.979,2.329-7.302c0.771-2.323,1.578-4.616,2.423-6.88h3.116c0.845,2.279,1.653,4.576,2.423,6.892
		s1.546,4.746,2.329,7.291c0.782,2.544,1.584,5.234,2.406,8.067c0.821,2.834,1.696,5.915,2.62,9.244h-3.716
		c-0.4-1.361-0.773-2.699-1.122-4.018c-0.349-1.316-0.71-2.655-1.087-4.016h-11.01l-2.209,8.034H180.204z M186.951,155.383h9.041
		c-0.753-2.634-1.498-5.186-2.234-7.657c-0.736-2.471-1.499-4.846-2.286-7.125c-0.822,2.279-1.601,4.65-2.337,7.114
		S187.67,152.734,186.951,155.383z"/>
	<path d="M203.731,139.425v-3.862h18.683v3.862h-7.638v27.631h-3.408v-27.631H203.731z"/>
	<path d="M225.991,167.057v-31.493h3.409v31.493H225.991z"/>
	<path d="M232.738,135.563h3.768c1.267,4.794,2.506,9.399,3.717,13.815c1.208,4.417,2.459,8.564,3.749,12.439
		c1.29-3.846,2.54-7.989,3.751-12.428c1.208-4.439,2.437-9.048,3.681-13.827h3.648c-0.891,3.329-1.739,6.41-2.544,9.244
		s-1.593,5.523-2.363,8.067c-0.771,2.546-1.536,4.976-2.294,7.292c-0.76,2.316-1.538,4.613-2.338,6.891h-3.186
		c-0.799-2.278-1.577-4.575-2.337-6.891c-0.759-2.316-1.529-4.746-2.312-7.292c-0.782-2.544-1.584-5.233-2.406-8.067
		S233.606,138.893,232.738,135.563z"/>
	<path d="M258.407,167.057v-31.493h14.829v3.728h-11.422v9.433h10.171v3.64h-10.171v10.964h12.312v3.729H258.407z"/>
	<path d="M111.102,190.046c0-2.633,0.308-4.972,0.924-7.014c0.617-2.042,1.453-3.762,2.509-5.16
		c1.056-1.398,2.283-2.459,3.682-3.185c1.398-0.724,2.896-1.086,4.495-1.086c1.004,0,1.91,0.092,2.714,0.277
		s1.504,0.396,2.098,0.632c0.593,0.237,1.079,0.478,1.456,0.721c0.376,0.245,0.633,0.427,0.771,0.544l-0.976,3.64
		c-0.206-0.178-0.508-0.374-0.908-0.588c-0.4-0.215-0.851-0.429-1.353-0.644c-0.503-0.214-1.053-0.388-1.652-0.521
		c-0.6-0.133-1.202-0.199-1.807-0.199c-1.291,0-2.449,0.289-3.476,0.865c-1.027,0.578-1.904,1.41-2.628,2.498
		c-0.726,1.087-1.279,2.412-1.661,3.973c-0.383,1.561-0.574,3.311-0.574,5.249c0,1.879,0.168,3.592,0.505,5.138
		c0.336,1.547,0.844,2.874,1.524,3.984c0.679,1.11,1.526,1.968,2.543,2.575c1.016,0.606,2.203,0.91,3.562,0.91
		c1.564,0,2.859-0.214,3.887-0.645c1.027-0.428,1.798-0.806,2.312-1.132l0.89,3.641c-0.16,0.148-0.454,0.336-0.882,0.565
		c-0.428,0.229-0.956,0.449-1.583,0.655c-0.628,0.207-1.365,0.389-2.209,0.543c-0.845,0.155-1.758,0.233-2.74,0.233
		c-1.712,0-3.268-0.366-4.667-1.099s-2.6-1.794-3.604-3.185s-1.781-3.107-2.329-5.149
		C111.376,195.039,111.102,192.694,111.102,190.046z"/>
	<path d="M132.832,190.046c0-2.693,0.309-5.068,0.927-7.125c0.618-2.057,1.461-3.776,2.531-5.16c1.07-1.383,2.314-2.422,3.732-3.118
		c1.419-0.696,2.923-1.042,4.514-1.042c1.562,0,3.04,0.347,4.431,1.042c1.392,0.696,2.613,1.735,3.662,3.118
		c1.049,1.384,1.885,3.104,2.507,5.16c0.622,2.057,0.933,4.431,0.933,7.125s-0.311,5.071-0.933,7.135
		c-0.622,2.065-1.458,3.788-2.507,5.172s-2.27,2.422-3.662,3.118c-1.391,0.695-2.869,1.043-4.431,1.043
		c-1.59,0-3.095-0.348-4.514-1.043c-1.418-0.696-2.663-1.734-3.732-3.118s-1.914-3.107-2.531-5.172
		C133.14,195.117,132.832,192.739,132.832,190.046z M136.445,190.046c0,1.908,0.185,3.644,0.556,5.204
		c0.371,1.562,0.901,2.89,1.591,3.984c0.69,1.095,1.531,1.939,2.523,2.531s2.11,0.888,3.353,0.888c1.243,0,2.352-0.296,3.327-0.888
		c0.975-0.592,1.808-1.436,2.498-2.531c0.689-1.094,1.223-2.422,1.599-3.984c0.376-1.561,0.564-3.296,0.564-5.204
		c0-1.909-0.188-3.644-0.564-5.205c-0.376-1.561-0.91-2.885-1.599-3.973c-0.69-1.088-1.525-1.927-2.506-2.52
		c-0.981-0.591-2.087-0.887-3.318-0.887c-1.243,0-2.361,0.296-3.353,0.887c-0.992,0.592-1.833,1.431-2.523,2.52
		c-0.689,1.087-1.22,2.412-1.591,3.973C136.63,186.402,136.445,188.137,136.445,190.046z"/>
	<path d="M160.417,205.825c0.091-2.722,0.197-5.471,0.317-8.244c0.12-2.774,0.257-5.504,0.411-8.19
		c0.154-2.686,0.316-5.301,0.488-7.846c0.171-2.544,0.365-4.949,0.583-7.213h2.979c0.627,1.332,1.304,2.908,2.029,4.728
		c0.725,1.82,1.45,3.721,2.175,5.704c0.725,1.983,1.427,3.965,2.106,5.948c0.679,1.983,1.299,3.795,1.858,5.438
		c0.559-1.643,1.179-3.455,1.858-5.438c0.679-1.982,1.381-3.964,2.106-5.948c0.725-1.983,1.449-3.884,2.175-5.704
		c0.725-1.819,1.401-3.396,2.029-4.728h2.979c0.799,10.151,1.398,20.648,1.798,31.493h-3.339c-0.114-4.245-0.254-8.452-0.419-12.617
		c-0.166-4.164-0.374-8.038-0.625-11.619c-0.229,0.518-0.537,1.262-0.925,2.23c-0.388,0.97-0.805,2.068-1.25,3.296
		c-0.445,1.229-0.919,2.533-1.421,3.917c-0.502,1.383-0.976,2.726-1.421,4.027c-0.445,1.303-0.862,2.513-1.25,3.629
		c-0.389,1.118-0.697,2.039-0.925,2.763h-2.74c-0.229-0.725-0.537-1.646-0.925-2.763c-0.388-1.116-0.805-2.326-1.25-3.629
		c-0.445-1.301-0.919-2.644-1.421-4.027c-0.502-1.384-0.976-2.688-1.421-3.917c-0.445-1.228-0.859-2.327-1.242-3.296
		c-0.383-0.969-0.693-1.712-0.933-2.23c-0.263,3.581-0.474,7.455-0.634,11.619c-0.16,4.165-0.297,8.372-0.411,12.617H160.417z"/>
	<path d="M190.949,205.825c0.091-2.722,0.197-5.471,0.317-8.244c0.12-2.774,0.257-5.504,0.411-8.19
		c0.154-2.686,0.316-5.301,0.488-7.846c0.171-2.544,0.365-4.949,0.583-7.213h2.979c0.627,1.332,1.304,2.908,2.029,4.728
		c0.725,1.82,1.45,3.721,2.175,5.704c0.725,1.983,1.427,3.965,2.107,5.948c0.679,1.983,1.297,3.795,1.857,5.438
		c0.559-1.643,1.178-3.455,1.857-5.438c0.679-1.982,1.382-3.964,2.106-5.948c0.725-1.983,1.449-3.884,2.174-5.704
		c0.726-1.819,1.402-3.396,2.03-4.728h2.979c0.799,10.151,1.397,20.648,1.798,31.493h-3.339c-0.114-4.245-0.255-8.452-0.421-12.617
		c-0.165-4.164-0.373-8.038-0.624-11.619c-0.229,0.518-0.537,1.262-0.925,2.23c-0.389,0.97-0.805,2.068-1.25,3.296
		c-0.445,1.229-0.92,2.533-1.421,3.917c-0.503,1.383-0.977,2.726-1.422,4.027c-0.445,1.303-0.862,2.513-1.25,3.629
		c-0.389,1.118-0.696,2.039-0.925,2.763h-2.739c-0.229-0.725-0.537-1.646-0.925-2.763c-0.389-1.116-0.805-2.326-1.25-3.629
		c-0.445-1.301-0.919-2.644-1.421-4.027c-0.502-1.384-0.976-2.688-1.421-3.917c-0.445-1.228-0.859-2.327-1.242-3.296
		c-0.383-0.969-0.693-1.712-0.933-2.23c-0.263,3.581-0.474,7.455-0.634,11.619c-0.16,4.165-0.297,8.372-0.411,12.617H190.949z"/>
	<path d="M221.172,190.046c0-2.693,0.31-5.068,0.927-7.125s1.462-3.776,2.531-5.16c1.069-1.383,2.314-2.422,3.732-3.118
		c1.419-0.696,2.924-1.042,4.513-1.042c1.563,0,3.04,0.347,4.433,1.042c1.392,0.696,2.612,1.735,3.662,3.118
		c1.049,1.384,1.884,3.104,2.506,5.16c0.623,2.057,0.933,4.431,0.933,7.125s-0.31,5.071-0.933,7.135
		c-0.622,2.065-1.457,3.788-2.506,5.172c-1.05,1.384-2.271,2.422-3.662,3.118c-1.393,0.695-2.869,1.043-4.433,1.043
		c-1.589,0-3.094-0.348-4.513-1.043c-1.418-0.696-2.663-1.734-3.732-3.118s-1.914-3.107-2.531-5.172
		C221.481,195.117,221.172,192.739,221.172,190.046z M224.785,190.046c0,1.908,0.186,3.644,0.556,5.204
		c0.371,1.562,0.9,2.89,1.591,3.984c0.689,1.095,1.531,1.939,2.523,2.531s2.108,0.888,3.352,0.888s2.354-0.296,3.328-0.888
		c0.974-0.592,1.807-1.436,2.497-2.531c0.69-1.094,1.223-2.422,1.599-3.984c0.377-1.561,0.565-3.296,0.565-5.204
		c0-1.909-0.188-3.644-0.565-5.205c-0.376-1.561-0.908-2.885-1.599-3.973c-0.69-1.088-1.526-1.927-2.506-2.52
		c-0.98-0.591-2.087-0.887-3.319-0.887c-1.243,0-2.359,0.296-3.352,0.887c-0.992,0.592-1.834,1.431-2.523,2.52
		c-0.69,1.087-1.22,2.412-1.591,3.973C224.971,186.402,224.785,188.137,224.785,190.046z"/>
	<path d="M249.426,205.825v-31.493h2.705c1.097,1.51,2.27,3.274,3.519,5.294c1.251,2.02,2.489,4.094,3.717,6.226
		c1.228,2.13,2.386,4.227,3.476,6.292c1.09,2.063,2.006,3.895,2.748,5.493v-23.304h3.34v31.493h-2.843
		c-0.514-1.123-1.104-2.381-1.772-3.773c-0.667-1.39-1.387-2.836-2.158-4.338c-0.77-1.501-1.569-3.026-2.397-4.572
		c-0.827-1.546-1.651-3.037-2.474-4.472c-0.821-1.435-1.617-2.789-2.389-4.062c-0.77-1.272-1.481-2.397-2.132-3.374v24.591H249.426z
		"/>
	<path d="M273.091,204.246l1.01-3.628c0.536,0.397,1.355,0.836,2.458,1.314c1.101,0.48,2.445,0.72,4.032,0.72
		c3.55,0,5.325-1.571,5.325-4.711c0-0.973-0.157-1.798-0.472-2.477c-0.314-0.678-0.739-1.267-1.275-1.769
		c-0.536-0.501-1.149-0.933-1.841-1.294s-1.425-0.718-2.2-1.073c-0.891-0.398-1.732-0.847-2.526-1.348
		c-0.793-0.502-1.48-1.092-2.062-1.771c-0.582-0.677-1.045-1.484-1.387-2.421c-0.343-0.936-0.514-2.068-0.514-3.395
		c0-2.76,0.724-4.917,2.175-6.467c1.449-1.552,3.452-2.326,6.01-2.326c1.478,0,2.821,0.206,4.03,0.617
		c1.209,0.412,2.094,0.864,2.655,1.359l-1.106,3.61c-0.491-0.397-1.225-0.785-2.197-1.16c-0.974-0.376-2.1-0.564-3.382-0.564
		c-0.65,0-1.258,0.092-1.824,0.276c-0.563,0.185-1.059,0.458-1.48,0.818c-0.423,0.362-0.757,0.822-1.001,1.383
		c-0.246,0.56-0.369,1.216-0.369,1.968c0,0.84,0.129,1.548,0.385,2.123c0.258,0.575,0.62,1.08,1.088,1.515
		c0.468,0.436,1.014,0.833,1.636,1.195s1.304,0.727,2.046,1.094c1.051,0.547,2.018,1.093,2.902,1.637
		c0.884,0.546,1.65,1.195,2.301,1.947c0.648,0.751,1.147,1.647,1.498,2.686c0.35,1.04,0.525,2.304,0.525,3.793
		c0,2.761-0.78,4.887-2.338,6.379c-1.56,1.491-3.76,2.237-6.601,2.237c-0.959,0-1.841-0.087-2.646-0.257
		c-0.804-0.174-1.522-0.376-2.157-0.607c-0.633-0.232-1.179-0.475-1.635-0.73C273.695,204.665,273.341,204.441,273.091,204.246z"/>
</g>
<g>
	<path d="M171.631,268.32c0-2.791,0.423-5.27,1.271-7.435c0.847-2.164,1.996-3.987,3.446-5.47c1.451-1.481,3.137-2.607,5.058-3.376
		c1.921-0.768,3.98-1.152,6.176-1.152c1.38,0,2.623,0.098,3.729,0.294s2.066,0.42,2.882,0.671s1.482,0.505,2,0.764
		s0.871,0.451,1.059,0.577l-1.341,3.858c-0.283-0.188-0.698-0.396-1.247-0.624c-0.549-0.227-1.168-0.454-1.858-0.682
		c-0.69-0.228-1.447-0.412-2.271-0.554c-0.823-0.141-1.651-0.211-2.482-0.211c-1.772,0-3.364,0.306-4.776,0.917
		c-1.412,0.612-2.616,1.494-3.611,2.646c-0.996,1.153-1.757,2.557-2.282,4.212c-0.525,1.654-0.788,3.509-0.788,5.563
		c0,1.992,0.231,3.808,0.694,5.446c0.463,1.64,1.161,3.047,2.094,4.224c0.933,1.176,2.097,2.086,3.494,2.729
		c1.396,0.644,3.027,0.965,4.894,0.965c2.148,0,3.929-0.228,5.34-0.683c1.412-0.454,2.47-0.854,3.176-1.199l1.223,3.858
		c-0.22,0.156-0.624,0.356-1.211,0.6c-0.588,0.243-1.314,0.475-2.176,0.694c-0.863,0.219-1.875,0.411-3.035,0.576
		s-2.416,0.247-3.764,0.247c-2.353,0-4.49-0.389-6.411-1.165c-1.922-0.776-3.573-1.901-4.953-3.376
		c-1.38-1.474-2.447-3.293-3.2-5.458C172.008,273.614,171.631,271.128,171.631,268.32z"/>
	<path d="M201.486,268.32c0-2.791,0.424-5.27,1.271-7.435c0.847-2.164,1.995-3.987,3.446-5.47c1.45-1.481,3.137-2.607,5.059-3.376
		c1.921-0.768,3.979-1.152,6.176-1.152c1.38,0,2.623,0.098,3.729,0.294s2.066,0.42,2.882,0.671s1.482,0.505,2,0.764
		s0.87,0.451,1.059,0.577l-1.341,3.858c-0.282-0.188-0.698-0.396-1.247-0.624c-0.549-0.227-1.169-0.454-1.858-0.682
		c-0.69-0.228-1.447-0.412-2.271-0.554c-0.823-0.141-1.651-0.211-2.482-0.211c-1.772,0-3.364,0.306-4.775,0.917
		c-1.412,0.612-2.615,1.494-3.611,2.646c-0.996,1.153-1.757,2.557-2.282,4.212c-0.525,1.654-0.788,3.509-0.788,5.563
		c0,1.992,0.231,3.808,0.694,5.446c0.462,1.64,1.16,3.047,2.094,4.224c0.933,1.176,2.098,2.086,3.493,2.729
		c1.396,0.644,3.027,0.965,4.894,0.965c2.148,0,3.93-0.228,5.341-0.683c1.411-0.454,2.471-0.854,3.176-1.199l1.224,3.858
		c-0.22,0.156-0.623,0.356-1.212,0.6c-0.588,0.243-1.313,0.475-2.176,0.694c-0.863,0.219-1.874,0.411-3.035,0.576
		s-2.415,0.247-3.764,0.247c-2.354,0-4.49-0.389-6.411-1.165c-1.922-0.776-3.572-1.901-4.952-3.376
		c-1.381-1.474-2.447-3.293-3.2-5.458C201.863,273.614,201.486,271.128,201.486,268.32z"/>
</g>
</svg>
