<svg xmlns="http://www.w3.org/2000/svg" viewBox="0 0 100 125">
  <path fill="white" d="M20.294 63.043c-4.963-2.5-6.946-8.561-4.443-13.506 2.486-4.946 8.544-6.934 13.513-4.42 4.954 2.517 6.927 8.561 4.433 13.505-2.51 4.945-8.565 6.938-13.503 4.421z"/>
  <path fill="white" d="M18.924 67.641h18.84l.142-16.085c.146-6.03 1.029-10.443 3.831-14.118 2.527-3.332 5.069-7.361 15.885-10.74 16.124-5.049 28.912 3.304 30.445 4.263 4.949 3.111 6.452 9.643 3.351 14.605-.532.843-1.189 1.547-1.89 2.18-.085.112-.112.249-.211.346l-17 18.569h20.768a5.645 5.645 0 0 1 5.648 5.64 5.65 5.65 0 0 1-5.648 5.656H59.481a5.656 5.656 0 0 1-5.174-3.377c-.633-1.438-.59-3.023-.014-4.429.064-1.146.302-2.292.952-3.326L67.87 46.451c-1.566-.054-3.216.095-4.856.635-4.786 1.529-8.203 4.717-8.21 4.717 0 0-.58.565-.862.858L48.42 73.737c-.043.179-.152.305-.208.466a4.76 4.76 0 0 1-.338.744 4.99 4.99 0 0 1-.697 1.01c-.172.193-.322.386-.517.554-.335.301-.709.523-1.101.729-.202.111-.375.234-.587.316-.634.246-1.304.4-2.014.4H18.924c-3.115 0-5.646-1.903-5.646-5.021.001-3.117 2.532-5.294 5.646-5.294zM9.583 61.538l.007.008s-1.147 4.977-3.213 6.509c-2.073 1.54-4.025.704-4.906-.484l-.007-.008c-.882-1.189-1.053-3.215 1.019-4.755 2.066-1.533 7.1-1.27 7.1-1.27zM11.06 54.304l-.004.012s-4.373 2.646-6.907 2.23c-2.546-.414-3.31-2.397-3.073-3.856l.003-.014c.238-1.46 1.574-2.983 4.119-2.566 2.536.412 5.862 4.194 5.862 4.194z"/>
</svg>
