<?xml version="1.0" standalone="no"?>
<!DOCTYPE svg PUBLIC "-//W3C//DTD SVG 20010904//EN"
 "http://www.w3.org/TR/2001/REC-SVG-20010904/DTD/svg10.dtd">
<svg version="1.0" xmlns="http://www.w3.org/2000/svg"
 width="595.000000pt" height="595.000000pt" viewBox="0 0 595.000000 595.000000"
 preserveAspectRatio="xMidYMid meet">
<metadata>
Created by potrace 1.11, written by Peter Selinger 2001-2013
</metadata>
<g transform="translate(0.000000,595.000000) scale(0.100000,-0.100000)"
fill="#000000" stroke="none">
<path d="M2751 5279 c-269 -35 -538 -218 -691 -472 -37 -61 -45 -66 -155 -87
-141 -28 -392 -128 -578 -231 -571 -317 -986 -757 -1087 -1156 -21 -81 -44
-257 -43 -338 0 -71 20 -257 38 -352 45 -239 158 -440 378 -671 136 -143 170
-173 288 -253 267 -179 548 -313 743 -353 95 -20 129 -20 197 0 45 13 66 28
129 92 59 61 87 101 133 190 32 61 62 112 67 112 5 0 17 -16 26 -35 9 -19 30
-47 47 -61 47 -39 95 -30 207 40 103 64 155 80 218 65 58 -13 124 -47 119 -62
-8 -27 -116 -57 -238 -67 -67 -5 -124 -12 -127 -15 -4 -3 46 -56 111 -118 131
-126 156 -167 217 -367 46 -148 76 -206 140 -272 78 -81 124 -75 199 25 50 66
77 126 129 292 50 160 91 226 198 320 81 72 113 105 114 117 0 3 -30 9 -67 12
-196 17 -290 40 -300 71 -4 14 74 52 131 65 57 13 103 -1 193 -56 39 -24 92
-53 117 -65 41 -18 48 -18 73 -5 34 17 52 37 87 98 15 27 28 48 30 48 2 0 31
-57 66 -127 76 -155 150 -238 239 -268 87 -29 227 -18 366 29 324 108 721 372
941 624 259 299 347 537 348 947 1 219 -15 325 -67 465 -87 231 -274 470 -546
697 -372 310 -808 533 -1180 604 -79 15 -104 36 -182 149 -81 119 -175 198
-324 272 -88 45 -219 86 -293 94 l-57 5 55 -23 c88 -38 104 -49 194 -127 173
-150 299 -320 257 -346 -6 -3 -60 -14 -122 -26 -375 -67 -532 -260 -489 -599
6 -52 28 -169 48 -260 31 -145 35 -182 36 -310 0 -196 -41 -387 -94 -435 -19
-17 -20 -17 -45 37 -51 112 -68 200 -68 368 -1 134 3 170 26 267 43 183 57
281 57 405 0 227 -72 353 -254 445 -87 44 -186 69 -321 82 -59 5 -109 12 -112
15 -24 23 84 184 203 301 104 103 170 146 287 186 88 30 87 31 -12 18z m1291
-627 c418 -107 888 -393 1224 -745 198 -207 326 -416 381 -622 23 -88 26 -120
27 -260 1 -175 -11 -247 -66 -405 -131 -369 -470 -747 -848 -944 -227 -118
-368 -148 -501 -106 -106 33 -184 108 -288 277 -133 215 -187 289 -280 389
-90 94 -108 121 -167 238 -106 207 -147 256 -221 256 -58 0 -63 -6 -63 -77 0
-56 -2 -64 -17 -61 -23 4 -50 60 -65 130 -13 64 -7 96 28 137 35 42 13 39 -24
-3 -43 -49 -47 -89 -21 -220 22 -112 22 -113 3 -151 -10 -22 -34 -48 -53 -59
-71 -41 -250 -14 -280 42 -15 29 -13 107 4 172 8 30 15 81 15 113 0 55 -2 60
-45 105 -51 54 -59 52 -15 -3 25 -31 30 -47 30 -91 0 -83 -49 -194 -86 -194
-9 0 -10 8 -3 32 23 83 2 128 -63 128 -60 0 -115 -57 -184 -193 -93 -183 -129
-239 -219 -343 -80 -92 -129 -162 -279 -394 -153 -239 -275 -302 -487 -252
-333 80 -721 374 -963 730 -232 342 -296 716 -181 1058 67 199 188 377 405
595 232 233 453 390 755 539 268 132 505 200 694 200 359 -1 591 -230 591
-583 0 -49 -10 -168 -21 -265 -24 -198 -22 -353 6 -457 22 -82 77 -193 125
-254 22 -28 40 -56 40 -63 0 -7 -16 -37 -35 -66 -20 -28 -33 -52 -29 -52 4 0
26 16 50 35 23 19 48 35 55 35 7 0 33 -17 58 -38 25 -21 52 -42 60 -47 17 -10
12 -1 -36 66 -18 26 -33 53 -33 60 0 8 24 49 53 91 139 199 169 365 128 711
-12 98 -21 215 -21 260 1 451 357 678 862 549z m-792 -2094 c46 -49 90 -168
90 -245 0 -78 -23 -187 -47 -225 -25 -40 -50 -51 -104 -46 -34 3 -34 3 -37 60
-3 55 -4 57 -39 69 -29 9 -39 21 -58 64 -25 54 -38 65 -84 65 -33 0 -54 -21
-76 -77 -10 -24 -23 -43 -31 -43 -7 0 -25 -5 -40 -12 -24 -11 -26 -16 -20 -54
7 -52 -10 -77 -52 -77 -66 0 -111 59 -132 173 -13 74 -7 147 21 228 18 52 61
112 81 112 4 0 8 -24 8 -53 0 -72 25 -116 86 -147 43 -22 61 -25 154 -25 95 0
111 3 162 28 75 37 103 80 95 145 -3 26 -9 55 -12 65 -10 24 10 21 35 -5z
m193 -173 c188 -189 327 -459 303 -588 -4 -21 -20 -50 -38 -68 -28 -27 -37
-31 -72 -27 -23 3 -88 27 -145 53 -93 42 -109 47 -160 43 -58 -4 -147 -39
-191 -75 l-24 -20 30 -31 c20 -20 55 -37 102 -51 126 -38 135 -79 40 -188 -67
-76 -102 -153 -133 -293 -14 -63 -35 -134 -46 -157 -22 -45 -96 -116 -110
-107 -5 3 -9 62 -10 132 -1 179 -15 198 -21 29 -3 -78 -10 -143 -16 -149 -17
-17 -73 31 -104 88 -14 27 -38 103 -53 169 -31 137 -68 222 -123 286 -77 88
-89 121 -54 151 9 9 48 26 86 38 76 25 133 68 123 93 -10 27 -134 79 -203 85
-58 4 -68 2 -172 -47 -61 -28 -124 -51 -141 -51 -40 0 -88 42 -102 91 -22 73
21 196 122 347 85 127 250 314 264 300 3 -3 0 -29 -6 -58 -18 -84 -7 -205 23
-265 45 -87 59 -99 124 -105 l59 -5 30 -85 c54 -148 87 -190 151 -190 64 0
117 68 159 205 l22 70 55 3 c53 3 59 6 92 46 28 34 41 65 58 135 22 89 22 91
4 168 -10 43 -21 84 -23 91 -13 33 33 4 100 -63z m-436 -147 c11 -13 28 -38
37 -55 9 -18 23 -33 31 -33 33 0 45 -30 45 -111 0 -85 -15 -137 -53 -177 -77
-82 -163 -59 -216 58 -32 70 -25 214 11 225 10 4 37 31 59 61 23 30 47 54 53
54 7 0 22 -10 33 -22z"/>
<path d="M1090 3740 c-82 -17 -184 -49 -245 -77 l-30 -13 40 6 c22 3 71 12
108 20 90 19 220 18 315 -2 174 -36 316 -110 582 -304 220 -160 275 -195 364
-232 93 -38 239 -76 324 -83 l67 -6 -80 29 c-320 117 -393 159 -716 418 -103
82 -218 166 -257 187 -140 75 -299 94 -472 57z"/>
<path d="M4500 3750 c-125 -32 -234 -101 -550 -345 -85 -66 -182 -138 -214
-159 -61 -41 -252 -127 -379 -172 l-72 -25 60 5 c74 6 235 48 318 81 88 36
173 89 333 206 277 204 417 281 590 325 112 28 196 30 338 9 55 -8 106 -15
115 -15 33 1 -66 43 -158 66 -105 28 -317 41 -381 24z"/>
<path d="M2325 2980 c-121 -25 -179 -43 -304 -97 -161 -69 -239 -93 -321 -99
-66 -5 -87 -2 -168 24 -104 34 -115 25 -33 -25 62 -37 130 -49 235 -40 107 9
203 38 428 125 247 96 268 102 405 103 l108 1 -50 14 c-68 19 -191 16 -300 -6z"/>
<path d="M3331 2989 c-30 -5 -57 -12 -60 -14 -2 -3 43 -5 100 -5 127 0 184
-15 434 -110 261 -100 316 -114 460 -114 115 -1 122 0 173 28 29 17 57 37 62
47 8 14 -2 13 -73 -9 -61 -19 -105 -25 -172 -25 -89 -1 -91 0 -283 77 -106 42
-236 89 -290 102 -109 29 -264 39 -351 23z"/>
<path d="M1031 1303 c-62 -268 -50 -394 49 -493 51 -51 159 -104 260 -127 116
-26 411 -23 550 5 154 32 256 67 393 136 225 113 405 230 227 147 -242 -112
-425 -160 -630 -168 -163 -6 -273 11 -448 69 -237 78 -307 190 -236 375 43
114 45 108 -28 121 -35 7 -75 15 -89 18 -26 6 -27 4 -48 -83z"/>
<path d="M4783 1367 c-28 -7 -54 -15 -57 -18 -3 -3 8 -38 25 -77 87 -209 19
-321 -248 -406 -168 -52 -275 -68 -428 -63 -199 7 -394 59 -639 171 -43 20
-81 36 -85 36 -3 0 26 -21 64 -46 109 -72 420 -220 520 -249 249 -72 540 -73
755 -3 134 43 202 95 241 181 22 47 24 65 24 197 -1 129 -4 153 -26 215 -24
68 -26 70 -59 72 -19 0 -58 -4 -87 -10z"/>
</g>
</svg>
