<svg xmlns="http://www.w3.org/2000/svg" width="900" height="900">
  <path fill="#231F20" d="M444.844 812.216c-.812 0-1.644-.17-2.622-.539-2.418-.904-4.843-1.796-7.267-2.692-5.841-2.152-11.879-4.376-17.75-6.747l-9.902-3.997c-18.494-7.464-37.619-15.182-56.279-23.13-20.634-8.791-40.744-17.961-57.69-25.772-13.962-6.43-28.031-13.236-41.634-19.817-2.792-1.35-5.583-2.7-8.373-4.046-8.96-4.324-19.53-9.471-29.975-14.844-11.399-5.87-22.933-11.937-34.086-17.806-4.423-2.326-8.846-4.654-13.272-6.973-.536-.281-1.042-.599-1.58-.935-.261-.163-.537-.338-.836-.518l-.554-.337-.586-5.016a4224.629 4224.629 0 0 1-1.815-15.604l-.277-2.415c-.653-5.725-1.327-11.64-1.925-17.466-.502-4.823-.96-9.736-1.404-14.486l-.912-9.724c-.71-7.559-1.45-15.376-2.132-23.07-.193-2.186-.324-4.404-.455-6.545-.1-1.681-.204-3.412-.335-5.111-.301-3.817-.612-7.63-.927-11.447-.369-4.483-.736-8.971-1.082-13.457a378.419 378.419 0 0 1-.471-7.384 485.665 485.665 0 0 0-.31-5.107c-.195-2.94-.402-5.879-.608-8.817-.292-4.171-.584-8.344-.849-12.517-.171-2.713-.306-5.466-.44-8.13-.105-2.107-.21-4.21-.333-6.312a1146.3 1146.3 0 0 0-.39-6.502 745.65 745.65 0 0 1-.598-10.427 686.988 686.988 0 0 1-.385-9.719c-.095-2.688-.186-5.378-.307-8.065-.139-3.098-.303-6.192-.468-9.284-.145-2.73-.292-5.46-.42-8.186-.078-1.647-.111-3.316-.143-4.932a280.095 280.095 0 0 0-.073-3.165c-.068-2.142-.146-4.287-.222-6.429-.121-3.36-.244-6.836-.331-10.256-.211-9.061-.4-18.331-.56-27.553-.145-8.393-.272-16.781-.398-25.171l-.167-11.02a22.725 22.725 0 0 0-.039-.848l-.015-.006a31.49 31.49 0 0 0-1.858-.44c-29.638-5.979-56.45-18.914-79.694-38.448-16.295-13.688-29.272-30.099-38.571-48.772-7.302-14.684-12.062-30.235-14.146-46.22-.495-3.769-.749-7.609-.989-11.323l-.153-2.312c-.211-3.122-.426-6.345-.364-9.553.423-21.641 4.928-42.035 13.395-60.619 6.006-13.179 14.211-25.695 24.391-37.206 11.337-12.814 24.411-22.81 38.857-29.71 10.678-5.1 22.283-8.726 34.484-10.777 9.953-1.669 19.838-2.206 29.389-1.596 13.149.842 26.264 3.334 38.987 7.403 10.019 3.204 18.046 6.384 25.263 10.01 11.71 5.888 20.701 11.835 28.301 18.72 9.731 8.813 17.424 18.155 23.519 28.559 7.038 11.994 12.156 25.354 15.209 39.712.836 3.924 1.344 6.987 1.65 9.93.149 1.418.39 2.905.624 4.345.209 1.296.427 2.641.585 3.967 1.222 10.13 1.521 20.882.918 32.869-.184 3.686-.657 7.392-1.113 10.976-.125.97-.247 1.942-.365 2.913a135.094 135.094 0 0 1-.686 4.643c-.18 1.127-.365 2.289-.525 3.438 1.202-.311 2.396-.625 3.587-.936 3.136-.819 6.382-1.667 9.567-2.459 15.738-3.91 32.664-7.923 49.803-10.813l2.648-.447c10.089-1.7 20.523-3.46 30.831-4.963 5.895-.854 11.914-1.442 17.735-2.012 1.374-.134 2.748-.268 4.12-.406 8.722-.876 18.869-1.815 28.966-1.821 3.298-.004 6.661-.085 9.912-.167 3.316-.081 6.745-.167 10.125-.167 1.494 0 2.87.019 4.203.051 8.458.212 17.374.682 28.914 1.524 22.313 1.634 45.69 4.762 69.481 9.293 19.723 3.752 40.322 8.635 61.224 14.514.217.06.438.117.675.171-.013-.106-.026-.211-.037-.318a178.346 178.346 0 0 1-.46-3.884c-.163-1.584-.341-3.164-.516-4.746-.429-3.885-.877-7.903-1.116-11.879-.323-5.239-.676-12.134-.559-19.007.409-23.329 4.67-43.743 13.028-62.411a118.624 118.624 0 0 1 19.82-30.583c11.931-13.388 26.626-23.742 44.921-31.662 14.697-6.357 30.644-10.719 47.393-12.965a139.315 139.315 0 0 1 18.425-1.206c3.69 0 7.486.14 11.284.42 14.954 1.09 29.154 4.783 42.205 10.97 12.338 5.845 23.012 13.096 32.646 22.175 16.691 15.716 29.23 35.345 37.255 58.343 4.4 12.616 6.98 24.509 7.894 36.362l.186 2.342c.382 4.904.781 9.972.667 14.979a152.316 152.316 0 0 1-7.567 44.016c-6.311 19.285-16.557 36.979-30.453 52.594-15.875 17.839-35.546 32.037-58.47 42.204-10.536 4.681-20.138 8.001-29.358 10.147-3.285.764-6.544 1.393-9.998 2.057-1.258.246-2.533.489-3.827.745l-.012.125c-.079.821-.163 1.67-.179 2.496-.02 1.562-.015 3.135-.007 4.707.007 1.587.011 3.174-.008 4.762a8001.752 8001.752 0 0 1-.566 37.868c-.085 4.936-.254 9.941-.417 14.786l-.137 4.142c-.163 5.428-.336 11.047-.559 16.688-.326 8.306-.69 17.253-1.119 26.391a3579.14 3579.14 0 0 1-1.11 22.48l-.12 2.224c-.303 5.646-.616 11.479-1.001 17.213-.354 5.194-.746 10.469-1.129 15.571-.299 4.039-.604 8.078-.887 12.123-.206 3.008-.384 6.023-.566 9.036-.235 3.947-.481 8.024-.782 12.046-.559 7.433-1.215 14.981-1.849 22.283l-.79 9.076c-.751 8.68-1.526 17.656-2.384 26.472-.873 9.067-1.871 18.272-2.839 27.176l-.468 4.313c-.318 2.963-.671 5.925-1.019 8.886a789.29 789.29 0 0 0-1.187 10.417c-.228 2.206-1.549 3.169-2.672 3.761a808.222 808.222 0 0 0-7.742 4.16c-3.485 1.889-7.09 3.841-10.674 5.694a5598.091 5598.091 0 0 0-10.009 5.182c-11.793 6.115-23.988 12.44-36.117 18.404-23.984 11.802-43.535 21.171-61.516 29.488-20.917 9.666-42.357 19.258-65.548 29.313-26.195 11.361-54.201 22.519-85.613 34.103a5.775 5.775 0 0 1-2.039.374M257.055 586.534c.268 1.12.546 2.263.843 3.379 4.51 16.953 8.812 29.72 13.957 41.4 2.979 6.771 6.078 12.552 9.479 17.68.922 1.394 1.804 1.969 3.25 2.124 3.619.396 7.268.924 10.795 1.436 2.239.322 4.553.658 6.83.955 2.289.298 4.583.601 6.872.91 6.844.917 13.92 1.865 20.9 2.512 7.607.693 15.267.931 23.771 1.15 5.56.144 11.226.161 16.705.182 3.155.009 6.307.023 9.462.053.937.012 1.864.09 2.76.167.773.069 1.506.134 2.237.153.451.014.901.021 1.349.027-2.222-1.05-4.445-2.098-6.668-3.146-8.012-3.77-16.296-7.667-24.396-11.62-1.671-.815-3.342-1.627-5.014-2.439-9.774-4.754-19.881-9.667-29.583-14.973-18.168-9.941-37.31-21.934-60.245-37.749a159.273 159.273 0 0 0-3.304-2.201m384.687-.068c-2.368 1.587-4.729 3.19-7.088 4.79-4.733 3.213-9.629 6.53-14.503 9.711-17.634 11.504-38.729 24.725-61.539 35.547a14845.709 14845.709 0 0 0-38.63 18.416l-7.358 3.519c.493-.015.981-.028 1.464-.05.781-.032 1.554-.059 2.33-.076 3.729-.066 7.515-.095 11.179-.121 3.048-.022 6.1-.05 9.147-.091l.472-.008c6.226-.086 12.659-.179 18.967-.381 4.952-.166 9.096-.363 13.22-.8 5.02-.528 10.123-1.215 15.06-1.879 1.567-.21 3.138-.421 4.707-.629 2.702-.357 5.403-.727 8.105-1.096 5.552-.761 11.289-1.542 16.949-2.204 1.359-.16 2.179-.689 3.039-1.959 3.354-4.899 6.349-10.415 9.439-17.365 4.183-9.417 7.881-19.845 11.646-32.82 1.026-3.521 1.979-7.136 2.9-10.628.168-.627.331-1.254.494-1.876"/>
  <path fill="#FFF" d="M449.257 744.186l2.278 1.21h7.651v3.914h-24.91v-3.914h10.783v-.071l-10.783-5.054v-3.914l11.102 5.444 13.808-5.444v4.023z"/>
  <path fill="#FFF" d="M459.186 724.333v3.52l-4.027.604v4.284l4.027.6v3.202l-22.198-3.55v-5.106l22.198-3.554zm-7.041 7.961v-3.361l-11.225 1.649v.061l11.225 1.651zM442.314 723.824c-3.551 0-5.58-1.871-5.58-5.296 0-3.423 2.029-5.295 5.58-5.295h11.545c3.551 0 5.58 1.872 5.58 5.295 0 3.425-2.029 5.296-5.58 5.296h-11.545zm11.766-3.488c1.587 0 2.187-.697 2.187-1.808 0-1.107-.6-1.807-2.187-1.807h-11.988c-1.586 0-2.188.699-2.188 1.807 0 1.11.603 1.808 2.188 1.808h11.988zM436.733 707.08c0-3.394 2.029-5.136 5.582-5.136h.696v3.297h-.919c-1.586 0-2.189.636-2.189 1.743 0 1.111.603 1.745 2.189 1.745 1.619 0 2.822-.697 4.821-2.982 2.568-2.915 4.407-3.835 6.945-3.835 3.553 0 5.58 1.774 5.58 5.199s-2.027 5.2-5.58 5.2h-1.364v-3.297h1.586c1.585 0 2.156-.697 2.156-1.808 0-1.111-.571-1.81-2.156-1.81-1.617 0-2.822.698-4.821 2.984-2.567 2.915-4.409 3.836-6.944 3.836-3.553.002-5.582-1.743-5.582-5.136M445.308 694.678v-5.479h7.899c3.986 0 6.264 1.995 6.264 5.837 0 3.843-2.277 5.837-6.264 5.837h-12.953c-3.984 0-6.262-1.994-6.262-5.837 0-3.842 2.277-5.837 6.262-5.837h2.419v3.699h-2.669c-1.78 0-2.455.786-2.455 2.031 0 1.246.675 2.027 2.455 2.027h13.452c1.777 0 2.419-.781 2.419-2.027 0-1.245-.642-2.031-2.419-2.031h-4.591v1.78h-3.557zM436.986 684.386h17.128c1.583 0 2.152-.695 2.152-1.806 0-1.108-.569-1.807-2.152-1.807h-17.128v-3.3h16.904c3.549 0 5.58 1.776 5.58 5.201 0 3.424-2.031 5.201-5.58 5.201h-16.904v-3.489zM446.342 672.398v-4.787h3.172v4.787h6.503v-6.024h3.169v9.513h-22.199v-9.513h3.17v6.024zM459.186 657.715c-.571.19-.918.32-2.727.32h-3.488c-2.063 0-2.823.695-2.823 2.28v1.208h9.038v3.485h-22.199v-5.263c0-3.615 1.681-5.17 5.106-5.17h1.746c2.281 0 3.741.729 4.469 2.286h.064c.729-1.747 2.38-2.317 4.691-2.317h3.429c1.078 0 1.868-.032 2.694-.381v3.552zm-19.028 3.808h6.817v-1.367c0-1.299-.571-2.092-2.348-2.092h-2.187c-1.586 0-2.283.539-2.283 1.776v1.683zM459.186 645.762c-.571.188-.918.314-2.727.314h-3.488c-2.063 0-2.823.698-2.823 2.285v1.203h9.038v3.488h-22.199v-5.264c0-3.614 1.681-5.167 5.106-5.167h1.746c2.281 0 3.741.727 4.469 2.28h.064c.729-1.742 2.38-2.314 4.691-2.314h3.429c1.078 0 1.868-.031 2.694-.38v3.555zm-19.028 3.802h6.817v-1.362c0-1.302-.571-2.094-2.348-2.094h-2.187c-1.586 0-2.283.54-2.283 1.776v1.68zM436.986 637.608h22.199v3.491h-22.199zM436.986 635.865v-3.488h19.029v-5.741h3.171v9.229zM436.986 625.908v-3.49h19.029v-5.738h3.171v9.228z"/>
  <path fill="#FFF" d="M459.186 604.66v3.52l-4.027.604v4.28l4.027.601v3.205l-22.198-3.551v-5.107l22.198-3.552zm-7.041 7.961v-3.361l-11.225 1.649v.061l11.225 1.651z"/>
</svg>
