<?xml version="1.0" standalone="no"?>
<!DOCTYPE svg PUBLIC "-//W3C//DTD SVG 20010904//EN"
 "http://www.w3.org/TR/2001/REC-SVG-20010904/DTD/svg10.dtd">
<svg version="1.0" xmlns="http://www.w3.org/2000/svg"
 width="600.000000pt" height="600.000000pt" viewBox="0 0 600.000000 600.000000"
 preserveAspectRatio="xMidYMid meet">
<metadata>
Created by potrace 1.11, written by Peter Selinger 2001-2013
</metadata>
<g transform="translate(0.000000,600.000000) scale(0.100000,-0.100000)"
fill="#000000" stroke="none">
<path d="M2840 5891 c-50 -26 -80 -83 -80 -152 0 -31 -7 -74 -16 -95 -13 -31
-15 -59 -10 -144 6 -85 3 -125 -14 -215 -129 -674 -520 -1267 -1083 -1642
-121 -81 -129 -85 -156 -73 -35 14 -164 1 -350 -36 -274 -55 -428 -139 -462
-253 -38 -126 120 -270 406 -371 499 -176 1273 -198 2035 -58 91 16 172 31
180 32 11 1 16 -12 17 -49 6 -119 36 -464 53 -625 49 -439 166 -1160 189
-1168 17 -6 15 29 -39 688 -21 261 -44 543 -50 625 -11 167 -31 558 -27 561 1
1 74 21 162 44 173 46 202 57 188 71 -5 5 -71 -4 -158 -21 -187 -37 -195 -37
-195 -6 0 28 -33 56 -65 56 -39 0 -65 -28 -65 -69 l0 -38 -92 -12 c-474 -61
-874 -72 -1413 -40 -213 13 -346 31 -504 70 -256 63 -435 150 -477 230 -15 30
-15 33 3 58 11 14 34 35 50 47 32 21 142 58 203 68 l35 6 -31 -13 c-53 -21
-144 -81 -141 -92 10 -26 286 24 477 87 143 48 375 160 505 245 138 91 278
208 415 349 193 199 330 392 462 651 37 73 69 130 71 125 2 -4 17 -45 32 -92
199 -612 591 -1166 1093 -1548 53 -40 99 -75 101 -77 2 -2 7 -109 12 -237 16
-417 55 -855 129 -1452 22 -176 40 -325 40 -333 0 -7 7 -13 15 -13 8 0 15 3
15 8 0 51 -25 613 -41 907 -23 445 -36 1030 -23 1024 5 -2 88 -43 184 -91 96
-48 219 -103 274 -123 218 -80 622 -162 633 -129 7 20 -117 89 -227 129 -404
145 -737 355 -1054 664 -258 253 -441 501 -601 816 -205 402 -308 802 -324
1251 -5 165 -10 205 -24 227 -11 16 -17 46 -17 79 0 100 -65 168 -160 168 -25
0 -61 -8 -80 -19z"/>
<path d="M2863 3996 c-33 -15 -63 -60 -63 -94 0 -11 16 -52 36 -91 46 -92 135
-182 278 -280 118 -81 142 -83 103 -10 -14 24 -67 123 -119 219 -53 96 -98
187 -102 202 -12 50 -79 77 -133 54z"/>
<path d="M1332 2727 c-14 -17 -36 -114 -71 -319 -57 -331 -66 -428 -66 -753 0
-265 3 -314 22 -420 54 -294 144 -494 290 -640 137 -137 371 -250 618 -299
425 -84 1000 -20 1601 180 277 92 654 248 654 271 0 7 -3 13 -7 13 -3 0 -88
-29 -188 -65 -1214 -430 -2068 -454 -2552 -71 -158 125 -232 267 -278 536 -60
349 -33 928 66 1409 23 113 24 135 3 155 -19 19 -77 21 -92 3z"/>
<path d="M1342 657 c-31 -33 -28 -55 16 -123 156 -241 461 -391 881 -435 144
-15 521 -6 681 16 473 64 956 201 1328 375 94 45 111 58 97 72 -3 3 -52 -12
-108 -34 -141 -53 -401 -132 -592 -178 -422 -103 -770 -150 -1103 -150 -544 0
-899 136 -1076 413 -47 74 -84 87 -124 44z"/>
</g>
</svg>
