<svg xmlns="http://www.w3.org/2000/svg" viewBox="0 0 400 400"  class="brand_color outlined icon--instagram">
  <path d="M283.999 395.005h-168C54.789 395.005 5 345.21 5 284V115.997C5 54.788 54.789 4.995 115.999 4.995h168C345.203 4.995 395 54.788 395 115.997V284c0 61.21-49.797 111.005-111.001 111.005zm-168-356.576c-42.772 0-77.571 34.794-77.571 77.567V284c0 42.776 34.798 77.571 77.571 77.571h168c42.777 0 77.575-34.795 77.575-77.571V115.997c0-42.773-34.798-77.567-77.575-77.567h-168z"/>
  <path d="M200.001 299.854c-55.06 0-99.859-44.79-99.859-99.855 0-55.056 44.799-99.86 99.859-99.86 55.064 0 99.863 44.804 99.863 99.86.001 55.064-44.798 99.855-99.863 99.855zm0-166.288c-36.627 0-66.427 29.804-66.427 66.432 0 36.63 29.799 66.429 66.427 66.429 36.63 0 66.435-29.799 66.435-66.429 0-36.627-29.805-66.432-66.435-66.432zM328.143 94.426c0 13.256-10.74 23.996-23.995 23.996-13.26 0-23.999-10.74-23.999-23.996s10.739-23.996 23.999-23.996c13.255.001 23.995 10.74 23.995 23.996z"/>
</svg>
