<?xml version="1.0" standalone="no"?>
<!DOCTYPE svg PUBLIC "-//W3C//DTD SVG 20010904//EN"
 "http://www.w3.org/TR/2001/REC-SVG-20010904/DTD/svg10.dtd">
<svg version="1.0" xmlns="http://www.w3.org/2000/svg"
 width="384.000000pt" height="384.000000pt" viewBox="0 0 384.000000 384.000000"
 preserveAspectRatio="xMidYMid meet">
<metadata>
Created by potrace 1.11, written by Peter Selinger 2001-2013
</metadata>
<g transform="translate(0.000000,384.000000) scale(0.100000,-0.100000)"
fill="#000000" stroke="none">
<path d="M0 1920 l0 -1920 1920 0 1920 0 0 1920 0 1920 -1920 0 -1920 0 0
-1920z m755 1584 c26 -28 31 -50 16 -73 -5 -8 -52 -21 -112 -31 -100 -17 -247
-68 -267 -93 -5 -7 -14 -104 -21 -217 -14 -265 -14 -310 2 -310 6 0 50 18 97
40 130 61 200 50 200 -30 0 -43 -27 -69 -48 -48 -18 18 -92 0 -182 -45 l-85
-42 -3 -165 c-4 -247 23 -360 88 -368 15 -2 68 19 130 49 103 52 150 63 196
46 18 -6 22 -3 27 21 12 61 60 42 117 -48 38 -59 68 -77 142 -86 76 -9 134 9
158 49 44 72 14 144 -135 323 -208 250 -245 327 -253 535 -10 287 92 519 229
519 102 0 193 -150 220 -365 17 -127 17 -388 0 -408 -21 -27 -49 -20 -67 15
-15 28 -15 43 -4 133 17 150 -7 348 -53 430 -66 118 -175 52 -223 -135 -34
-134 -15 -298 48 -409 17 -31 89 -126 159 -210 151 -184 192 -257 192 -346 0
-71 -18 -119 -63 -163 -105 -105 -266 -100 -405 13 -59 47 -101 43 -240 -23
-144 -68 -189 -70 -245 -14 -27 27 -44 57 -59 105 -37 121 -44 258 -35 692 4
220 7 428 5 462 -1 35 2 70 7 79 5 9 51 31 103 49 52 18 132 46 179 63 109 40
153 41 185 6z m941 4 c42 -32 51 -45 88 -120 20 -40 39 -102 49 -155 22 -121
41 -363 33 -408 -16 -83 -48 -109 -80 -63 -13 19 -15 47 -9 183 6 174 -7 280
-49 378 -48 110 -139 93 -198 -38 -70 -154 -67 -324 10 -480 16 -33 91 -134
165 -225 75 -91 147 -187 160 -215 82 -167 9 -325 -166 -364 -155 -35 -374
126 -330 242 21 55 53 43 111 -43 46 -68 80 -89 155 -97 103 -11 165 32 165
114 0 64 -33 119 -168 282 -143 172 -178 227 -211 334 -34 111 -35 311 -3 430
29 106 86 212 131 243 47 31 108 32 147 2z m1882 -742 c1 -523 -1 -723 -9
-732 -10 -12 -144 -14 -782 -14 -703 0 -772 1 -789 17 -17 15 -18 51 -18 715
0 464 3 706 10 719 11 19 28 19 798 17 l787 -3 3 -719z m-1700 -838 c9 -9 12
-184 12 -724 0 -634 -2 -714 -16 -728 -14 -14 -99 -16 -786 -16 -704 0 -773 1
-790 17 -17 15 -18 51 -18 720 0 466 3 711 10 724 10 19 30 19 793 19 596 0
786 -3 795 -12z m1694 -5 c17 -15 18 -51 18 -720 0 -690 0 -703 -20 -723 -20
-20 -33 -20 -783 -20 -674 0 -765 2 -785 16 l-22 15 0 709 c0 631 2 710 16
724 14 14 99 16 786 16 704 0 773 -1 790 -17z m-1841 -1535 c0 -10 2 -10 6 0
6 15 59 16 68 2 5 -8 11 -7 20 0 8 6 26 10 42 8 27 -3 28 -6 28 -53 0 -48 -1
-50 -29 -53 -16 -2 -32 2 -37 10 -7 10 -11 10 -21 0 -15 -15 -50 -16 -66 0 -9
9 -12 9 -12 -1 0 -8 -11 -11 -32 -9 -30 3 -33 6 -36 42 -2 21 -1 44 2 52 7 17
66 19 67 2z m257 -21 c4 -33 22 -26 22 9 0 20 5 24 29 24 24 0 29 -5 35 -31
14 -70 10 -79 -34 -79 -24 0 -40 5 -40 12 0 9 -3 9 -12 0 -7 -7 -27 -12 -45
-12 l-33 0 0 56 0 55 38 -3 c32 -3 37 -7 40 -31z m142 -1 c0 -19 5 -38 10 -41
22 -14 10 -35 -20 -35 -30 0 -30 1 -30 55 0 48 2 55 20 55 16 0 20 -7 20 -34z
m70 -6 c0 -33 3 -40 17 -38 10 2 19 -4 21 -13 2 -13 -5 -17 -37 -17 l-41 -1 0
55 c0 47 2 54 20 54 17 0 20 -7 20 -40z m125 -15 l0 -50 -35 0 c-33 0 -35 2
-38 39 -5 56 3 68 40 64 32 -3 33 -4 33 -53z m90 0 l0 -50 -35 0 c-33 0 -35 2
-38 39 -5 56 3 68 40 64 32 -3 33 -4 33 -53z m125 -1 l0 -55 -52 3 -53 3 -3
52 -3 52 56 0 55 0 0 -55z m225 29 c1 -33 19 -33 23 0 3 22 8 27 31 27 24 0
30 -5 35 -31 13 -68 10 -77 -34 -77 -24 -1 -40 4 -40 11 0 8 -3 8 -12 -1 -16
-16 -53 -15 -65 1 -8 10 -9 43 -4 88 0 5 16 9 34 7 25 -2 32 -8 32 -25z m185
-27 l0 -55 -40 1 -40 0 0 54 0 54 40 0 40 0 0 -54z m88 2 l-3 -53 -35 0 -35 0
-3 53 -3 52 41 0 41 0 -3 -52z m90 -4 l3 -52 -41 0 -40 -1 0 55 0 55 38 -3 37
-3 3 -51z m222 16 c4 -27 7 -31 13 -17 4 10 7 27 7 38 0 14 7 19 29 19 31 0
41 -18 41 -76 0 -30 -2 -32 -40 -32 -22 0 -40 4 -40 10 0 7 -5 6 -14 -1 -8 -7
-27 -11 -43 -9 -26 3 -28 6 -31 56 l-3 53 38 -3 c35 -3 38 -6 43 -38z m140 6
c0 -48 18 -55 22 -9 2 31 7 39 26 41 20 3 22 0 22 -51 l0 -55 -55 -1 -55 0 0
54 c0 48 2 55 20 55 16 0 20 -7 20 -34z m-260 -31 c0 -16 -45 -21 -54 -6 -8
12 4 21 31 21 14 0 23 -6 23 -15z"/>
<path d="M2623 3230 c-21 -9 -23 -16 -23 -88 0 -92 11 -110 58 -94 17 6 35 6
44 1 12 -6 17 -3 21 11 6 25 62 28 71 4 3 -8 10 -13 15 -9 18 10 -8 167 -29
180 -14 9 -48 -53 -61 -112 -9 -37 -16 -51 -28 -50 -9 0 -28 -3 -43 -6 -26 -7
-28 -5 -28 22 0 22 5 30 25 35 14 4 25 11 25 17 0 7 -10 9 -25 5 -23 -6 -25
-4 -25 28 0 32 3 36 35 42 19 3 35 10 35 15 0 11 -38 11 -67 -1z m161 -61 c10
-50 8 -56 -19 -61 -29 -6 -32 9 -14 61 14 39 25 40 33 0z"/>
<path d="M2860 3233 c-34 -6 -50 -23 -22 -23 21 0 22 -4 22 -79 0 -108 18
-115 22 -9 3 78 4 83 26 86 13 2 21 9 19 15 -4 13 -29 17 -67 10z"/>
<path d="M3305 3214 c-16 -13 -107 -76 -202 -140 -94 -63 -178 -126 -187 -139
-9 -13 -16 -44 -16 -67 0 -62 -17 -87 -86 -129 l-62 -37 -64 39 c-70 41 -88
69 -119 184 -23 88 -155 185 -293 216 -106 23 -174 -16 -162 -94 14 -88 92
-194 192 -263 l56 -39 108 0 c101 -1 110 -2 148 -29 84 -58 84 -58 -4 -118
-443 -305 -544 -381 -544 -407 0 -43 54 -54 106 -22 18 11 106 78 195 148 263
207 381 293 393 286 6 -4 149 -112 319 -241 247 -188 312 -233 334 -230 60 7
53 68 -14 114 -221 150 -309 212 -436 302 l-148 105 33 34 c18 19 46 42 62 50
26 14 35 14 87 -2 70 -21 51 -31 280 145 195 150 229 179 209 179 -25 0 -70
-29 -211 -135 -137 -104 -164 -120 -174 -104 -11 18 60 82 191 170 73 50 138
99 144 110 9 17 8 19 -7 13 -34 -12 -98 -56 -220 -150 -120 -92 -168 -120
-177 -104 -9 14 87 98 219 191 118 83 154 114 143 125 -6 6 -135 -81 -248
-167 -98 -76 -145 -97 -138 -61 3 15 68 65 271 210 42 30 77 61 77 69 0 21
-21 16 -55 -12z"/>
<path d="M1346 1844 c-3 -9 -6 -34 -6 -57 0 -32 7 -50 30 -77 16 -19 30 -39
30 -43 0 -15 -33 -20 -51 -8 -12 7 -19 7 -19 1 0 -18 51 -32 66 -19 22 18 17
42 -16 79 -20 25 -29 46 -30 72 0 43 17 59 37 33 7 -11 13 -14 13 -8 0 24 -13
43 -30 43 -10 0 -21 -7 -24 -16z"/>
<path d="M1442 1768 c-1 -53 1 -103 4 -112 7 -18 49 -22 59 -5 4 6 -4 9 -22 7
l-28 -3 -6 105 -5 105 -2 -97z"/>
<path d="M1553 1850 c-22 -9 -23 -15 -23 -103 0 -55 5 -98 11 -104 13 -13 69
3 69 19 0 6 -8 7 -17 3 -39 -16 -48 -11 -48 25 0 29 4 36 23 38 30 5 28 22 -3
22 -22 0 -25 4 -25 33 0 39 15 57 47 57 13 0 23 5 23 10 0 12 -27 12 -57 0z"/>
<path d="M1663 1850 c-22 -9 -23 -15 -23 -103 0 -106 8 -121 53 -103 33 14 25
29 -8 16 -29 -11 -35 -5 -35 37 0 26 4 33 20 33 11 0 20 5 20 10 0 6 -9 10
-20 10 -17 0 -20 7 -20 40 0 37 3 41 30 47 17 3 30 9 30 14 0 11 -18 11 -47
-1z"/>
<path d="M1769 1853 c-11 -2 -19 -20 -23 -50 -9 -69 -7 -163 4 -163 5 0 7 13
4 30 -6 29 -5 30 23 24 27 -5 31 -3 42 27 14 39 14 79 1 113 -9 25 -18 28 -51
19z m51 -71 c0 -18 -5 -42 -10 -53 -15 -27 -48 -24 -56 5 -7 29 12 103 29 109
18 7 37 -23 37 -61z"/>
<path d="M1397 1783 c-4 -3 -7 -11 -7 -17 0 -6 5 -5 12 2 6 6 9 14 7 17 -3 3
-9 2 -12 -2z"/>
<path d="M461 1364 c-20 -26 -21 -37 -21 -415 l0 -389 65 0 65 0 0 95 0 95
518 -2 517 -3 3 -92 3 -93 59 0 60 0 0 310 c0 297 -1 311 -20 330 -22 22 -25
22 -56 14 -35 -9 -44 -47 -44 -179 l0 -125 -525 0 -525 0 2 213 c3 189 1 216
-15 240 -23 35 -59 36 -86 1z"/>
<path d="M664 1286 c-43 -19 -64 -53 -64 -103 0 -64 39 -104 108 -111 49 -4
53 -3 88 32 34 34 36 39 32 87 -9 87 -85 131 -164 95z"/>
<path d="M1265 1220 c-33 -4 -108 -8 -167 -9 l-107 -1 -6 -44 c-4 -24 -5 -84
-3 -133 l5 -88 291 -3 292 -2 0 99 c0 116 -10 144 -58 167 -40 19 -160 26
-247 14z"/>
<path d="M874 1195 c-23 -23 -27 -40 -28 -115 l-1 -35 -85 -1 c-131 -1 -138
-2 -155 -28 -23 -35 -6 -62 48 -77 46 -13 272 2 289 19 13 13 20 131 11 191
-6 43 -13 55 -31 62 -18 7 -28 4 -48 -16z"/>
<path d="M2168 1854 c-22 -11 -28 -22 -28 -46 0 -23 -8 -38 -26 -53 l-27 -21
49 -25 c27 -13 50 -31 52 -40 2 -9 -20 -41 -48 -72 -44 -49 -50 -60 -50 -100
0 -37 4 -46 21 -50 23 -6 23 -3 3 -179 -5 -48 -3 -63 15 -93 11 -20 24 -55 28
-78 4 -26 16 -50 34 -67 15 -14 34 -43 42 -66 13 -40 13 -41 -20 -79 -46 -54
-43 -65 16 -65 28 0 53 4 56 10 3 5 31 17 61 26 41 12 54 20 50 31 -3 8 -6 19
-6 23 0 5 -13 24 -29 42 -15 18 -31 49 -35 69 -3 20 -18 64 -31 98 -14 33 -25
65 -25 71 0 5 21 10 48 10 36 0 68 10 137 45 l90 45 75 -29 c41 -16 102 -43
135 -60 33 -17 66 -31 72 -31 7 0 18 -9 25 -20 7 -11 20 -20 29 -20 8 0 28
-13 44 -30 53 -55 90 -30 108 73 13 78 2 102 -44 92 -18 -4 -37 0 -54 11 -15
9 -39 24 -55 33 -39 22 -153 88 -219 128 -64 38 -78 40 -131 13 -64 -33 -77
-28 -85 30 -10 73 -3 78 97 68 123 -12 179 -26 220 -53 42 -28 70 -33 62 -11
-9 22 15 29 41 12 19 -13 24 -13 28 -1 9 22 -14 33 -71 33 -40 0 -69 8 -115
31 -54 27 -279 96 -374 116 -32 6 -33 8 -33 62 0 66 -22 108 -63 123 -37 12
-36 12 -69 -6z m26 -459 c-5 -26 -3 -35 7 -35 8 0 21 -5 29 -10 13 -9 13 -11
0 -20 -8 -5 -30 -10 -47 -10 -39 0 -43 21 -13 60 11 14 20 31 20 38 0 6 2 12
5 12 3 0 3 -16 -1 -35z"/>
<path d="M3066 1854 c-14 -36 -5 -92 19 -128 14 -20 25 -43 25 -51 0 -18 -21
-20 -38 -3 -6 6 -14 9 -17 6 -8 -8 24 -38 40 -38 8 0 19 9 25 20 11 21 4 44
-31 89 -20 25 -24 67 -10 90 15 23 31 2 32 -42 1 -26 3 -33 6 -18 8 42 -6 91
-26 91 -11 0 -22 -7 -25 -16z"/>
<path d="M3140 1761 c0 -65 4 -112 10 -116 7 -4 9 2 4 18 -7 29 3 67 16 67 6
0 12 -11 16 -25 7 -28 31 -51 42 -41 4 4 0 12 -9 16 -9 5 -22 29 -29 54 -11
41 -10 48 11 85 12 22 20 44 16 47 -6 7 -47 -78 -47 -97 0 -6 -5 -7 -11 -3 -7
4 -9 24 -5 55 4 31 3 49 -4 49 -6 0 -10 -41 -10 -109z"/>
<path d="M3277 1813 c-9 -32 -18 -80 -20 -108 -3 -27 -3 -42 0 -32 3 11 14 17
33 17 18 0 30 -6 34 -17 3 -10 3 20 0 67 -9 146 -22 166 -47 73z m33 -38 c0
-30 -2 -55 -4 -55 -2 0 -12 -3 -22 -7 -15 -5 -16 -1 -10 42 9 58 15 75 27 75
5 0 9 -25 9 -55z"/>
<path d="M3358 1863 c-22 -6 -24 -23 -3 -23 12 0 15 -18 17 -97 l2 -98 3 80
c4 106 9 126 29 118 12 -4 15 -2 12 8 -5 15 -31 20 -60 12z"/>
<path d="M3459 1863 c-21 -5 -34 -93 -24 -164 8 -57 14 -63 49 -48 36 17 33
32 -4 24 -29 -6 -30 -5 -30 29 0 30 4 36 21 36 12 0 19 5 16 13 -2 6 -11 11
-21 9 -13 -2 -16 6 -16 38 0 37 3 41 30 47 17 3 30 9 30 14 0 9 -22 10 -51 2z"/>
<path d="M2782 1031 c-17 -12 -42 -20 -55 -18 -16 1 -22 -3 -22 -19 0 -21 -35
-55 -236 -224 -94 -80 -139 -134 -139 -168 0 -5 9 -21 21 -36 35 -45 113 -31
184 34 34 30 206 160 275 207 66 44 130 118 130 148 0 13 -12 38 -27 55 -37
40 -86 48 -131 21z"/>
<path d="M1718 362 c7 -5 10 -16 6 -28 -6 -15 -4 -17 6 -7 15 14 7 43 -12 43
-11 0 -11 -2 0 -8z"/>
<path d="M1806 362 c-3 -5 1 -15 9 -22 16 -14 20 -3 6 19 -5 8 -11 9 -15 3z"/>
</g>
</svg>
