<svg xmlns="http://www.w3.org/2000/svg" viewBox="-111 196.216 450 148.067">
  <path fill="#EE3124" d="M-111 196.216h450v148.067h-450z"/>
  <path fill="#FFF" d="M308.988 303.81v1.307h-2.221v6.081h-1.531v-6.081h-2.225v-1.307zM314.8 303.81h2.21v7.389h-1.433v-4.996c0-.147 0-.346.013-.612v-.588l-1.393 6.196h-1.509l-1.391-6.196v.588c.009.267.009.466.009.612v4.996h-1.426v-7.389h2.233l1.35 5.809 1.337-5.809zM3.236 238.356l-13.285 19.972c-.623-.627-1.568-1.286-2.821-1.983-3.631-2.018-7.293-3.038-10.983-3.038-4.67 0-8.581 1.309-11.714 3.929-3.146 2.61-5.058 6.252-5.754 10.923-.286 1.82-.286 3.804 0 5.965 1.393 10.524 7.733 15.895 19.028 16.109.91 0 2.064-.106 3.458-.319v-8.049h-12.76l4.494-17.786H5.325v42.256c-7.876 4.608-16.979 6.907-27.296 6.907-9.905 0-18.578-2.333-26.049-7.015-7.804-4.942-13.319-11.919-16.525-20.908-1.734-4.737-2.613-9.523-2.613-14.332 0-8.647 2.793-16.88 8.376-24.684 3.756-5.233 8.808-9.351 15.161-12.344 6.136-2.924 12.546-4.388 19.238-4.388 9.281 0 18.484 2.925 27.619 8.785M65.086 311.564H17.079v-80.42h26.562v57.309h26.572zM72.161 271.202c0-11.508 3.97-21.327 11.927-29.45 7.949-8.119 17.676-12.179 29.178-12.179 11.711 0 21.839 4.003 30.381 12.025 8.538 8.021 12.808 17.848 12.808 29.489 0 11.786-4.247 21.744-12.759 29.866-8.502 8.124-18.652 12.184-30.431 12.184-11.503 0-21.23-4.094-29.178-12.292-7.956-8.189-11.926-18.077-11.926-29.643m41.105-18.302c-5.164 0-9.54 1.786-13.135 5.38-3.59 3.592-5.378 7.964-5.378 13.125 0 5.094 1.788 9.435 5.378 13.022 3.595 3.592 7.971 5.389 13.135 5.389 5.084 0 9.424-1.797 13.019-5.389 3.592-3.587 5.385-7.928 5.385-13.022 0-5.161-1.793-9.533-5.385-13.125-3.595-3.595-7.934-5.38-13.019-5.38M202.584 311.564h-37.962v-80.42h36.182c.977 0 2.513.061 4.603.205 6.621.49 11.678 1.813 15.164 3.973 4.255 2.651 7.042 6.902 8.372 12.757.349 1.745.517 3.351.517 4.82 0 3.692-1.03 7.176-3.087 10.452-2.054 3.275-4.761 5.507-8.097 6.697l.934.518 1.361.838c5.577 3.213 8.992 7.494 10.251 12.871.554 2.228.833 4.281.833 6.164 0 7.319-3.172 12.836-9.516 16.529-5.157 3.068-11.681 4.596-19.555 4.596m-11.608-18.091h4.284c6.485-.421 9.448-3.516 8.888-9.306-.138-1.042-.383-1.851-.725-2.409-1.327-2.44-3.418-3.768-6.276-3.971h-6.171v15.686zm.415-30.224h4.284c5.582 0 8.194-2.578 7.846-7.737-.345-3.983-2.44-6.069-6.274-6.28h-5.856v14.017zM289.387 311.564h-49.885v-80.42h48.841l5.023 21.535h-27.299v8.164h17.991v19.554h-17.991v9.623h28.873z"/>
  <path fill="none" d="M-111 196.216h450v148.067h-450z"/>
</svg>
