<svg class="pinksummer-ico" xmlns="http://www.w3.org/2000/svg"  viewBox="0 0 1800 700">

  <style type="text/css">
    .pink-pink{fill:#E54378;}
    .pink-white{fill:#FFFFFF;}
  </style>

  <path id="pink-circle" class="pink-pink" d="M662.5,350c0,158.9-128.8,287.7-287.7,287.7C215.9,637.7,87.1,508.9,87.1,350
    c0-158.9,128.8-287.7,287.7-287.7C533.7,62.3,662.5,191.1,662.5,350z"/>

  <path id="pink" class="pink-white" d="M214,277.6c-8.6,0-16.5,2-23.6,6.1c-7.1,4.1-12.7,9.4-16.8,15.9v-19h-32v179h34.3v-65.3
    c6.4,6.9,12.6,11.8,18.4,14.6c5.8,2.8,12.3,4.3,19.5,4.3c15.1,0,27.9-6,38.5-18c10.6-12,15.9-28.8,15.9-50.5
    c0-21.1-5.2-37.5-15.7-49.3C241.9,283.5,229.1,277.6,214,277.6z M225.3,376.3c-5.3,6.4-11.9,9.6-19.9,9.6c-8.3,0-15.3-3.5-21.1-10.4
    c-5.8-7-8.7-17.7-8.7-32.3c0-12.7,2.8-22.3,8.3-28.7c5.5-6.5,12.5-9.7,20.9-9.7c8.1,0,14.8,3.3,20.3,9.9c5.5,6.6,8.2,16.7,8.2,30.3
    C233.2,359.4,230.6,369.9,225.3,376.3z M295.3,263h34.3v-31.7h-34.3V263z M295.3,410.2h34.3V280.5h-34.3V410.2z M474.1,292.1
    c-3.2-4.2-8-7.7-14.2-10.4c-6.3-2.7-13.2-4.1-20.8-4.1c-17.2,0-31.4,7.3-42.7,22v-19h-31.9v129.6h34.3v-58.7
    c0-14.5,0.9-24.4,2.6-29.8c1.7-5.4,5-9.7,9.7-12.9c4.7-3.3,10-4.9,16-4.9c4.6,0,8.6,1.1,11.9,3.4c3.3,2.3,5.7,5.5,7.1,9.6
    c1.5,4.1,2.2,13.2,2.2,27.2v66.2h34.3v-80.6c0-10-0.6-17.7-1.9-23.1C479.6,301.2,477.3,296.4,474.1,292.1z M588.7,327.9l44.3-47.4
    h-42.2l-40.2,45.7v-95h-34.3v179h34.3v-41.5l16-16.7l32.6,58.2h37L588.7,327.9z"/>

  <path id="summer" class="pink-white" d="M787,344.1c-7.2-6-20-11.1-38.3-15.3s-29-7.4-32-9.6c-2.3-1.7-3.4-3.8-3.4-6.2c0-2.8,1.3-5.2,3.9-7
    c3.9-2.5,10.4-3.8,19.4-3.8c7.2,0,12.7,1.3,16.5,4s6.5,6.6,7.9,11.6l32.3-6c-3.3-11.3-9.2-19.9-17.8-25.6
    c-8.6-5.8-21.8-8.7-39.6-8.7c-18.6,0-32.4,3.8-41.3,11.5c-8.9,7.7-13.3,17.1-13.3,28.3c0,12.5,5.1,22.2,15.4,29.2
    c7.4,5,24.9,10.6,52.6,16.7c5.9,1.4,9.8,2.9,11.5,4.5c1.6,1.7,2.4,3.9,2.4,6.5c0,3.8-1.5,6.9-4.5,9.2c-4.5,3.3-11.2,4.9-20,4.9
    c-8.1,0-14.3-1.7-18.8-5.2c-4.5-3.5-7.4-8.5-8.9-15.2l-34.4,5.2c3.2,12.3,9.9,22,20.2,29.2c10.3,7.2,24.3,10.7,41.9,10.7
    c19.4,0,34.1-4.3,44.1-12.8c9.9-8.5,14.9-18.8,14.9-30.6C797.8,358.7,794.2,350.2,787,344.1z M910.7,335.2c0,18.6-0.9,30.2-2.6,35
    s-4.9,8.7-9.5,12c-4.6,3.2-9.9,4.8-15.7,4.8c-5.1,0-9.4-1.2-12.7-3.6c-3.3-2.4-5.6-5.7-6.9-9.8c-1.3-4.1-1.9-15.3-1.9-33.5v-59.6
    h-34.3v82c0,12.2,1.5,21.8,4.6,28.7c3.1,6.9,8.1,12.3,15,16.1c6.9,3.8,14.7,5.7,23.4,5.7c8.5,0,16.7-2,24.4-6
    c7.7-4,13.9-9.4,18.6-16.4v19.4H945V280.5h-34.3V335.2z M1150.3,283.4c-6.6-3.9-14.6-5.8-24.2-5.8c-7.5,0-14.5,1.7-21.1,5.1
    s-12.7,8.6-18.4,15.5c-3.9-6.9-8.9-12.1-15-15.5s-13.3-5.1-21.6-5.1c-15.6,0-29.1,6.9-40.4,20.6v-17.7H978v129.6h34.3v-63
    c0-12.5,0.9-21.4,2.7-26.7c1.8-5.4,4.9-9.5,9.1-12.3c4.2-2.8,9-4.3,14.3-4.3c4.4,0,7.9,0.9,10.4,2.7c2.6,1.8,4.5,4.5,5.7,8.2
    s1.8,11.8,1.8,24.4v71h34.3v-62.3c0-12.2,0.9-21.1,2.8-26.8c1.9-5.7,4.9-9.9,9.2-12.9c4.2-2.9,8.7-4.4,13.5-4.4
    c6.6,0,11.5,2.4,14.6,7.3c2.4,3.7,3.5,12,3.5,24.9v74.1h34.3v-82.9c0-12.4-1.2-21.3-3.5-26.9C1161.8,293,1156.9,287.3,1150.3,283.4z
     M1372.6,283.4c-6.6-3.9-14.6-5.8-24.2-5.8c-7.5,0-14.5,1.7-21.1,5.1s-12.7,8.6-18.4,15.5c-3.9-6.9-8.9-12.1-15-15.5
    s-13.3-5.1-21.6-5.1c-15.6,0-29.1,6.9-40.4,20.6v-17.7h-31.6v129.6h34.3v-63c0-12.5,0.9-21.4,2.7-26.7c1.8-5.4,4.9-9.5,9.1-12.3
    c4.2-2.8,9-4.3,14.3-4.3c4.4,0,7.9,0.9,10.4,2.7c2.6,1.8,4.5,4.5,5.7,8.2s1.8,11.8,1.8,24.4v71h34.3v-62.3c0-12.2,0.9-21.1,2.8-26.8
    c1.9-5.7,4.9-9.9,9.2-12.9c4.2-2.9,8.7-4.4,13.5-4.4c6.6,0,11.5,2.4,14.6,7.3c2.4,3.7,3.5,12,3.5,24.9v74.1h34.3v-82.9
    c0-12.4-1.2-21.3-3.5-26.9C1384.1,293,1379.2,287.3,1372.6,283.4z M1474.5,277.6c-17.2,0-31.4,6.1-42.6,18.2
    c-11.2,12.2-16.8,29-16.8,50.5c0,18,4.3,32.9,12.8,44.7c10.8,14.7,27.5,22.1,50,22.1c14.2,0,26.1-3.3,35.6-9.8
    c9.5-6.5,16.4-16.1,20.8-28.6l-34.2-5.7c-1.9,6.5-4.6,11.2-8.3,14.2s-8.2,4.4-13.5,4.4c-7.9,0-14.5-2.8-19.8-8.5
    c-5.3-5.7-8.1-13.6-8.3-23.7h85.9c0.5-26.3-4.8-45.8-16-58.5C1509,284,1493.8,277.6,1474.5,277.6z M1450.9,334.3
    c-0.1-9.4,2.3-16.8,7.2-22.2c4.9-5.5,11.1-8.2,18.6-8.2c7,0,12.9,2.6,17.8,7.8c4.9,5.2,7.4,12.7,7.7,22.6H1450.9z M1624.1,277.6
    c-5.5,0-10.5,1.4-14.8,4.2c-4.4,2.8-9.3,8.5-14.7,17.2v-18.4h-31.9v129.6h34.3v-40c0-22.1,1-36.5,2.9-43.5
    c1.9-6.9,4.5-11.7,7.9-14.3c3.3-2.6,7.4-4,12.2-4c5,0,10.3,1.9,16.1,5.6l10.6-29.9C1639.4,279.8,1631.9,277.6,1624.1,277.6z"/>

  <path id="con-art" class="pink-white" d="M723.4,493.2c-2.9,2.7-6.6,4-11,4c-5.5,0-9.9-2-13.3-6c-3.4-4-5.1-10.5-5.1-19.3
    c0-8.7,1.8-15.1,5.3-19.2c3.5-4,8.1-6.1,13.7-6.1c3.7,0,6.9,1.1,9.5,3.4c2.6,2.2,4.5,5.6,5.5,10l10.9-1.7
    c-1.3-6.7-4.2-11.8-8.8-15.4c-4.6-3.6-10.4-5.4-17.6-5.4c-5.7,0-10.9,1.3-15.7,4c-4.8,2.7-8.4,6.7-10.8,12
    c-2.4,5.3-3.5,11.6-3.5,18.7c0,11,2.7,19.5,8.2,25.4c5.5,5.9,12.7,8.9,21.8,8.9c7.2,0,13.3-2.1,18.2-6.4s8-10.2,9.2-17.8l-11-1.4
    C728.2,486.3,726.3,490.5,723.4,493.2z M776.3,437.5c-8.2,0-15.1,2.4-20.7,7.3c-6.8,5.9-10.2,14.9-10.2,27.1
    c0,11.1,2.8,19.7,8.5,25.6c5.7,5.9,13.2,8.9,22.4,8.9c5.8,0,11.1-1.3,15.9-4c4.9-2.7,8.6-6.5,11.1-11.3c2.5-4.9,3.8-11.5,3.8-20
    c0-10.5-2.9-18.7-8.6-24.6C792.8,440.4,785.4,437.5,776.3,437.5z M790.1,490.9c-3.7,4.2-8.3,6.3-13.9,6.3c-5.6,0-10.2-2.1-13.9-6.3
    c-3.7-4.2-5.5-10.5-5.5-19s1.8-14.8,5.5-18.9c3.7-4.2,8.3-6.3,13.9-6.3c5.5,0,10.1,2.1,13.8,6.3c3.7,4.2,5.6,10.4,5.6,18.5
    C795.7,480.2,793.8,486.7,790.1,490.9z M869.8,445.2c-1.7-2.3-4.2-4.2-7.5-5.6s-7-2.1-11-2.1c-9.2,0-16.1,3.6-21,10.9V439h-10.1v66
    h11.2v-36c0-8.4,1.7-14.2,5.2-17.2c3.5-3,7.6-4.5,12.3-4.5c3,0,5.6,0.7,7.8,2c2.2,1.3,3.8,3.1,4.6,5.4c0.9,2.3,1.3,5.7,1.3,10.2
    v40.1h11.2v-40.6c0-5.2-0.2-8.8-0.6-10.9C872.6,450.3,871.4,447.5,869.8,445.2z M910.5,495.3c-1.7,0-2.9-0.3-3.8-0.8
    c-0.9-0.5-1.5-1.3-1.9-2.2c-0.4-0.9-0.6-3-0.6-6.1v-38.6h11.2V439h-11.2v-23l-11.1,6.7V439h-8.2v8.7h8.2v38c0,6.7,0.5,11.1,1.4,13.2
    c0.9,2.1,2.5,3.8,4.7,5.1c2.2,1.3,5.4,1.9,9.4,1.9c2.5,0,5.3-0.3,8.4-1l-1.6-9.9C913.4,495.2,911.8,495.3,910.5,495.3z M953.4,437.5
    c-9.1,0-16.5,3.1-22.2,9.2c-5.7,6.1-8.6,14.7-8.6,25.8c0,10.7,2.8,19.1,8.5,25c5.7,5.9,13.3,8.9,23,8.9c7.7,0,14-1.9,18.9-5.6
    c4.9-3.7,8.3-9,10.1-15.7l-11.6-1.4c-1.7,4.7-4,8.2-6.9,10.3c-2.9,2.2-6.4,3.2-10.5,3.2c-5.5,0-10.1-1.9-13.8-5.8
    c-3.7-3.9-5.7-9.4-6.1-16.6h49.2c0-1.3,0.1-2.3,0.1-3c0-10.9-2.8-19.3-8.4-25.3C969.5,440.5,962.2,437.5,953.4,437.5z M934.8,465.6
    c0.4-5.8,2.3-10.4,5.8-13.8c3.5-3.4,7.8-5.2,13-5.2c5.7,0,10.3,2.2,13.9,6.5c2.3,2.8,3.7,6.9,4.2,12.5H934.8z M1066.1,437.5
    c-8.4,0-15.2,3.9-20.4,11.6c-1.3-3.6-3.5-6.5-6.6-8.5c-3.1-2-7.1-3-12-3c-4.4,0-8.3,1-11.7,3c-3.4,2-6.2,4.6-8.3,7.8V439h-10v66
    h11.2v-34.2c0-6,0.6-10.6,1.8-13.8c1.2-3.2,3.1-5.6,5.8-7.3c2.7-1.7,5.6-2.5,8.7-2.5c4.1,0,7.1,1.2,8.9,3.7
    c1.8,2.5,2.7,6.2,2.7,11.2v42.9h11.2v-38.3c0-6.8,1.5-11.7,4.6-14.8c3.1-3.1,6.9-4.6,11.6-4.6c2.6,0,4.8,0.6,6.7,1.8
    c1.9,1.2,3.2,2.8,3.9,4.8c0.7,2,1.1,5.2,1.1,9.7v41.6h11.1v-45.3c0-7.5-1.8-13.1-5.3-16.7C1077.7,439.3,1072.6,437.5,1066.1,437.5z
     M1147.3,441.8c-4.3-2.9-9.3-4.3-14.9-4.3c-4.3,0-8,0.8-11,2.5c-3,1.7-5.7,4.2-8.1,7.5V439h-10.2v91.2h11.2v-32.1
    c1.9,2.4,4.3,4.4,7.3,6c3,1.6,6.3,2.4,10,2.4c5.1,0,9.9-1.4,14.6-4.3c4.6-2.9,8.1-7,10.6-12.4s3.6-11.5,3.6-18.2
    c0-6.3-1.1-12.1-3.3-17.4C1154.8,448.8,1151.6,444.7,1147.3,441.8z M1143.6,490.9c-3.5,4.2-7.8,6.3-12.8,6.3c-4.9,0-9-2-12.5-6.1
    c-3.4-4.1-5.2-10.3-5.2-18.8c0-8.5,1.8-15,5.5-19.4c3.7-4.5,7.9-6.7,12.6-6.7c4.8,0,8.9,2.1,12.4,6.3c3.5,4.2,5.2,10.5,5.2,18.9
    C1148.9,480.2,1147.1,486.7,1143.6,490.9z M1200.6,437.5c-8.2,0-15.1,2.4-20.7,7.3c-6.8,5.9-10.2,14.9-10.2,27.1
    c0,11.1,2.8,19.7,8.5,25.6c5.7,5.9,13.2,8.9,22.4,8.9c5.8,0,11.1-1.3,15.9-4c4.9-2.7,8.6-6.5,11.1-11.3c2.5-4.9,3.8-11.5,3.8-20
    c0-10.5-2.9-18.7-8.6-24.6C1217.1,440.4,1209.6,437.5,1200.6,437.5z M1214.4,490.9c-3.7,4.2-8.3,6.3-13.9,6.3
    c-5.6,0-10.2-2.1-13.9-6.3c-3.7-4.2-5.5-10.5-5.5-19s1.8-14.8,5.5-18.9c3.7-4.2,8.3-6.3,13.9-6.3c5.5,0,10.1,2.1,13.8,6.3
    c3.7,4.2,5.6,10.4,5.6,18.5C1220,480.2,1218.1,486.7,1214.4,490.9z M1261.6,439.7c-2.2,1.5-4.5,4.6-7.1,9.3v-10h-10.1v66h11.2v-34.5
    c0-4.7,0.6-9.1,1.9-13c0.8-2.6,2.2-4.6,4.2-6.1c1.9-1.5,4.1-2.2,6.6-2.2c2.7,0,5.5,0.8,8.2,2.4l3.9-10.4c-3.9-2.4-7.7-3.6-11.5-3.6
    C1266.2,437.5,1263.8,438.2,1261.6,439.7z M1340.3,477.3v-14.9c0-5-0.2-8.4-0.6-10.3c-0.7-3.1-1.8-5.6-3.5-7.6c-1.7-2-4.2-3.7-7.8-5
    c-3.5-1.3-8.1-2-13.7-2c-5.7,0-10.7,0.8-15,2.3c-4.3,1.6-7.6,3.8-9.9,6.6c-2.3,2.9-3.9,6.7-4.9,11.3l10.9,1.5
    c1.2-4.7,3.1-7.9,5.6-9.8c2.5-1.8,6.4-2.8,11.6-2.8c5.6,0,9.9,1.3,12.7,3.8c2.1,1.9,3.2,5.1,3.2,9.6c0,0.4,0,1.4-0.1,2.9
    c-4.3,1.5-10.9,2.8-19.9,3.9c-4.4,0.5-7.7,1.1-9.9,1.7c-3,0.8-5.7,2-8,3.7c-2.4,1.6-4.3,3.8-5.8,6.4s-2.2,5.6-2.2,8.9
    c0,5.5,1.9,10,5.8,13.6c3.9,3.5,9.5,5.3,16.7,5.3c4.4,0,8.5-0.7,12.3-2.2c3.8-1.4,7.8-3.9,12-7.5c0.3,3.1,1.1,5.8,2.2,8.1h11.7
    c-1.4-2.5-2.4-5.2-2.8-7.9C1340.6,494.2,1340.3,487.7,1340.3,477.3z M1329,475.9c0,4.9-0.6,8.7-1.8,11.2c-1.6,3.3-4,5.8-7.4,7.7
    c-3.4,1.9-7.2,2.8-11.5,2.8c-4.3,0-7.7-1-9.9-3c-2.3-2-3.4-4.5-3.4-7.5c0-1.9,0.5-3.7,1.6-5.3c1-1.6,2.5-2.8,4.4-3.6
    c1.9-0.8,5.2-1.6,9.8-2.2c8.1-1.2,14.2-2.6,18.3-4.2V475.9z M1374.7,439.7c-2.2,1.5-4.5,4.6-7.1,9.3v-10h-10.1v66h11.2v-34.5
    c0-4.7,0.6-9.1,1.9-13c0.8-2.6,2.2-4.6,4.2-6.1c1.9-1.5,4.1-2.2,6.6-2.2c2.7,0,5.5,0.8,8.2,2.4l3.9-10.4c-3.9-2.4-7.7-3.6-11.5-3.6
    C1379.3,437.5,1376.9,438.2,1374.7,439.7z M1428.8,477.4c-1.8,4.9-3.3,9.9-4.6,15c-1.4-5.3-3-10.4-4.8-15.3l-13.7-38.2h-12l25,66.1
    c-0.5,1.2-0.8,2.1-1,2.7c-1.6,4.4-2.7,7.2-3.4,8.3c-1,1.5-2.2,2.6-3.7,3.5c-1.5,0.8-3.5,1.2-6,1.2c-1.8,0-4-0.3-6.4-1l1.2,10.5
    c2.6,0.9,5.1,1.4,7.2,1.4c3.6,0,6.6-0.9,9.2-2.6c2.6-1.7,4.8-4.4,6.8-8.1c1.5-2.7,3.6-7.7,6.3-15l25.1-67.1h-11.2L1428.8,477.4z
     M1552.4,477.3v-14.9c0-5-0.2-8.4-0.6-10.3c-0.7-3.1-1.8-5.6-3.5-7.6c-1.7-2-4.2-3.7-7.8-5c-3.5-1.3-8.1-2-13.7-2
    c-5.7,0-10.7,0.8-15,2.3c-4.3,1.6-7.6,3.8-9.9,6.6c-2.3,2.9-3.9,6.7-4.9,11.3l10.9,1.5c1.2-4.7,3.1-7.9,5.6-9.8
    c2.5-1.8,6.4-2.8,11.6-2.8c5.6,0,9.9,1.3,12.7,3.8c2.1,1.9,3.2,5.1,3.2,9.6c0,0.4,0,1.4-0.1,2.9c-4.3,1.5-10.9,2.8-19.9,3.9
    c-4.4,0.5-7.7,1.1-9.9,1.7c-3,0.8-5.7,2-8,3.7c-2.4,1.6-4.3,3.8-5.8,6.4s-2.2,5.6-2.2,8.9c0,5.5,1.9,10,5.8,13.6
    c3.9,3.5,9.5,5.3,16.7,5.3c4.4,0,8.5-0.7,12.3-2.2c3.8-1.4,7.8-3.9,12-7.5c0.3,3.1,1.1,5.8,2.2,8.1h11.7c-1.4-2.5-2.4-5.2-2.8-7.9
    C1552.6,494.2,1552.4,487.7,1552.4,477.3z M1541.1,475.9c0,4.9-0.6,8.7-1.8,11.2c-1.6,3.3-4,5.8-7.4,7.7c-3.4,1.9-7.2,2.8-11.5,2.8
    c-4.3,0-7.7-1-9.9-3c-2.3-2-3.4-4.5-3.4-7.5c0-1.9,0.5-3.7,1.6-5.3c1-1.6,2.5-2.8,4.4-3.6c1.9-0.8,5.2-1.6,9.8-2.2
    c8.1-1.2,14.2-2.6,18.3-4.2V475.9z M1586.8,439.7c-2.2,1.5-4.5,4.6-7.1,9.3v-10h-10.1v66h11.2v-34.5c0-4.7,0.6-9.1,1.9-13
    c0.8-2.6,2.2-4.6,4.2-6.1c1.9-1.5,4.1-2.2,6.6-2.2c2.7,0,5.5,0.8,8.2,2.4l3.9-10.4c-3.9-2.4-7.7-3.6-11.5-3.6
    C1591.3,437.5,1588.9,438.2,1586.8,439.7z M1636.5,494.9c-2,0.3-3.7,0.4-4.9,0.4c-1.7,0-2.9-0.3-3.8-0.8c-0.9-0.5-1.5-1.3-1.9-2.2
    c-0.4-0.9-0.6-3-0.6-6.1v-38.6h11.2V439h-11.2v-23l-11.1,6.7V439h-8.2v8.7h8.2v38c0,6.7,0.5,11.1,1.4,13.2c0.9,2.1,2.5,3.8,4.7,5.1
    c2.2,1.3,5.4,1.9,9.4,1.9c2.5,0,5.3-0.3,8.4-1L1636.5,494.9z"/>

</svg>
