<?xml version="1.0" encoding="utf-8"?>
<!-- Generator: Adobe Illustrator 15.0.2, SVG Export Plug-In . SVG Version: 6.00 Build 0)  -->
<!DOCTYPE svg PUBLIC "-//W3C//DTD SVG 1.1//EN" "http://www.w3.org/Graphics/SVG/1.1/DTD/svg11.dtd">
<svg version="1.1" id="junglestar" onclick="javascript:location.href='http://revealing.junglestar.org'"
	 xmlns="http://www.w3.org/2000/svg" xmlns:xlink="http://www.w3.org/1999/xlink" x="0px" y="0px" width="1000px" height="1000px"
	 viewBox="0 0 1000 1000" enable-background="new 0 0 1000 1000" xml:space="preserve">
<path display="none" d="M125.9,1860.9c4.2,9.898,8,19.5,11.5,28.898c1.5,3.9,2.8,8,4.1,12.301c1.4,4.199,2.5,8.301,3.6,12.5
	c1.1,4,2,7.899,2.6,11.699c0.7,3.7,1,7,1,9.801c0,5.801-1.3,10.5-3.9,14.301c-2.6,3.699-5.9,6.8-9.7,8.898
	c-3.9,2.2-8.1,3.7-12.8,4.602c-4.7,0.898-9,1.398-13,1.398c-3.5,0-7.4-0.6-11.3-1.698c-3.9-1.102-8-3-12.3-5.802
	c-4.2-2.698-8.5-6.398-12.8-11c-4.3-4.6-8.5-10.198-12.6-17l28.8-10.3c5.2,8.3,10,14.5,14.4,18.601s9.2,6.199,14.4,6.199
	c1,0,1.4-1.3,1.1-3.8s-1-5.9-2-10c-1.1-4.1-2.5-8.7-4.1-13.8c-1.7-5.102-3.4-10.301-5.3-15.602c-1.9-5.3-3.7-10.398-5.6-15.198
	c-1.9-4.802-3.4-9-4.7-12.5L125.9,1860.9L125.9,1860.9z M236.4,1857.2c1.5,5.1,2.7,10.6,3.8,16.6c0.9,5.2,1.7,11.2,2.4,17.9
	c0.7,6.8,0.9,14.1,0.7,21.898c-0.2,7.102-1.1,13.9-2.5,20.5c-1.4,6.602-3.8,12.4-7.1,17.4c-3.3,5-7.5,8.9-12.8,11.9
	c-5.3,2.898-12,4.198-20,3.898c-8.1-0.3-15.1-2-21.1-4.898c-6-2.9-11-6.9-15-11.802c-4-4.898-7.4-10.5-9.8-16.898
	c-2.5-6.4-4.4-13-5.8-20.102c-1.4-7.1-2.2-14.3-2.5-21.698c-0.3-7.5-0.3-14.602-0.1-21.602l35.2-1.2c0,14.4,0.6,26.102,1.8,35.102
	c1.2,9,2.5,16.1,4.2,21.1c1.7,5,3.4,8.5,5.4,10.4c2,1.898,3.7,2.7,5.4,2.7c3.3,0.1,5.7-2.102,7.1-6.4c1.4-4.4,2.3-11,2.5-19.8
	c0.2-5.5-0.1-11.102-0.9-16.801c-0.8-5.601-1.6-10.801-2.5-15.399c-1.1-5.4-2.4-10.601-3.6-15.5L236.4,1857.2z M343.7,1965.1h-32.5
	l-30.9-36.198l1.4,36.198h-30.9c-0.3-12.5-0.8-24.5-1.4-36c-0.2-4.8-0.5-9.8-0.9-15c-0.3-5.198-0.7-10.198-1.1-15
	c-0.4-4.8-0.9-9.398-1.4-13.698c-0.5-4.302-1-8-1.6-11.2l27-4.7l39.2,52.4c-0.698-6-1.398-12.102-2.198-18.4
	c-0.7-5.399-1.5-11.5-2.4-18c-0.9-6.7-1.9-13.2-2.8-19.899l34.2-4.899c0.8,5.5,1.5,11.3,2,17.3c0.6,6,1,11.9,1.398,17.8
	c0.4,5.9,0.7,11.802,1,17.5c0.3,5.802,0.5,11.2,0.8,16.4C343.3,1941.5,343.5,1953.4,343.7,1965.1z M441.8,1895.9v77.198l-33,12.602
	V1966.6c-2.5,0-5.7-0.198-9.8-0.698s-8.5-1.302-13.2-2.602s-9.5-3.1-14.3-5.6s-9.2-5.601-13-9.601c-3.9-4-7.1-8.899-9.6-14.699
	c-2.5-5.801-3.7-12.7-3.7-20.9s1.6-15.6,4.8-22.2c3.2-6.6,7.5-12.198,12.8-16.698s11.4-7.802,18.102-10c6.8-2.2,13.6-3,20.698-2.5
	c7,0.5,13.802,2.5,20.5,6.1c6.7,3.5,12.602,8.7,17.802,15.6l-32.802,14.5c-1.198-2.198-2.698-4.1-4.698-5.898
	c-1.602-1.602-3.5-2.9-5.9-4.2s-5.1-1.9-8.1-1.9c-3.102,0-5.5,0.802-7.2,2.4s-2.8,3.4-3.602,5.5c-0.8,2.1-1.198,4.2-1.398,6.4
	c-0.102,2.198-0.2,3.698-0.2,4.698c0,11.302,2.7,20.302,8.2,27.102s13.7,10.8,24.6,12.199v-18.301h-16.5l8.3-14.3L441.8,1895.9z
	 M478.5,1865c1.6,10.9,2.7,21,3.6,30.3c0.9,9.3,1.5,17.4,2,24.4c0.5,8.1,0.802,15.6,1,22.5l39-1l14.7,24l-66.398,4.7l-23.5-16.2
	c1.1-14.101,1.198-28.9,0.198-44.7c-1-15.7-2.5-31.2-4.3-46.4c4.7,0.5,9.2,0.9,13.5,1.2c3.602,0.3,7.4,0.602,11.2,0.9
	C473.1,1864.8,476.1,1865,478.5,1865z M603.3,1940.1l-6.2,25L586.2,1964.2c-3.2-0.2-6.9-0.4-11-0.602c-4.102-0.198-8.2-0.3-12.4-0.3
	c-2.2,0-4.898,0.102-8.2,0.3c-3.398,0.2-6.8,0.4-10.1,0.602c-3.9,0.3-7.9,0.6-12.2,0.898c0-14.6-1.2-29.5-3.6-44.6
	c-2.5-15.1-6.8-29.5-12.8-43.2l23.3-16.8l62,11.5l-20.7,17.9l-26.9-2.102c0.5,1.102,0.9,2.5,1.4,4c0.8,2.7,1.8,7,3,12.602h32.7
	l-8.101,18.7H560.7c0.2,2.302,0.5,4.602,0.7,7c0.198,2.4,0.398,5,0.5,7.7L603.3,1940.1z M607.3,1926.5c3.602,2.7,7.4,5.1,11,7.1
	c3.102,1.802,6.4,3.4,9.7,4.9c3.4,1.5,6.5,2.2,9.2,2.2c2.2,0,3.7-0.602,4.7-1.7c1.1-1.1,1.6-2.2,1.6-3.2s-0.8-2.2-2.4-3.1
	c-1.6-0.9-3.6-2.101-6.398-3.3c-2.602-1.302-5.8-2.802-9.2-4.602c-3.5-1.8-7.2-3.898-11.1-6.699c-3.2-2.101-5.802-4-7.602-6
	c-1.898-2-3.3-4-4.398-6.101c-1.102-2.1-1.802-4.3-2.102-6.7c-0.3-2.398-0.5-5-0.5-7.698c0-3.5,0.8-7,2.4-10.5
	c1.6-3.5,3.8-6.7,7-9.4c3-2.8,6.898-5.1,11.398-6.9c4.5-1.8,9.802-2.6,15.7-2.6c5.5,0,10.5,0.9,15.2,2.5c4.7,1.7,8.8,3.5,12.4,5.4
	c4.1,2.398,7.8,5,11.398,7.898l-12.5,21.302c-3.1-1.802-6.2-3.4-9.2-4.9c-2.5-1.3-5.3-2.4-8-3.4c-2.8-1.1-5.3-1.6-7.5-1.6
	c-2.3,0-3.8,0.5-4.898,1.6c-1.102,1.102-1.602,2.2-1.602,3.102c0,2.3,1.7,4.398,4.9,6.5c3.2,2.1,7.8,4.398,13.7,7
	c8,3.3,14,7.5,18,12.398c4,4.801,6,10.801,6,17.7c0,5.1-0.9,9.4-2.601,12.9c-1.699,3.5-4.301,6.398-7.5,8.6
	c-3.199,2.2-7.101,3.8-11.601,4.8s-9.399,1.602-14.7,1.602c-4.898,0-9.5-0.602-13.898-1.7c-4.4-1.101-8.5-2.5-12.4-4.101
	c-3.8-1.699-7.3-3.399-10.3-5.301c-3-2-5.7-3.6-7.9-5.199L607.3,1926.5z M757,1889.1l-33.3,7c0,2.4,0.1,5.102,0.398,8.2
	c0.302,3.101,0.7,6.4,1.2,9.9s1,7.1,1.602,10.8c0.6,3.7,1.198,7.4,1.898,10.8c1.5,8.2,3.102,16.8,5,25.5l-31.898,6.4
	c-1.9-6.8-3.5-13.9-4.9-21.601c-1.4-7.601-2.5-14.699-3.6-21.301c-1.2-7.6-2.302-15.1-3.102-22.5l-29.2,4.9l2-24.5l94-19.4
	L757,1889.1L757,1889.1z M806.6,1974.7c-0.6-2.102-1.198-4.4-2-7.102c-0.698-2.3-1.5-5-2.398-8.198c-0.9-3.2-1.9-6.802-3-10.7
	l-20.7,2.8c-0.9,2.9-1.8,5.6-2.5,7.9c-0.9,2.398-1.6,4.1-2.1,5.398H745.1c4.102-10.398,7.7-20.5,10.9-30.398
	c3.1-9.9,5.7-19.102,7.7-27.5c2.1-8.4,3.6-15.9,4.6-22.4s1.5-11.6,1.5-15.3l24.2-10.3c5.9,11.3,11.6,22.898,17,35.1
	c2.4,5.2,4.7,10.8,7.2,16.8s4.8,12.102,7.2,18.4c2.398,6.3,4.5,12.7,6.6,19.3c2.1,6.602,3.8,13.1,5.4,19.7L806.6,1974.7
	L806.6,1974.7z M793.5,1930.5c-0.9-2.4-1.8-4.6-2.6-6.9l-2.602-6.5c-0.3,1.4-0.7,2.802-1.2,4.4c-0.3,1.4-0.698,2.9-1.198,4.7
	s-1,3.7-1.5,5.8L793.5,1930.5L793.5,1930.5z M902.5,1966.8l-31.2-32.398c0.5,2.698,0.9,5.5,1.3,8.3c0.4,2.8,0.7,5.5,0.9,7.8
	c0.3,2.8,0.6,5.5,0.7,7.9l-33.102,8.8c-1.1-8.3-2.3-16.9-3.398-25.7c-1.102-8.8-2.5-17.398-4-25.8s-3.2-16.4-5.3-24
	c-2-7.6-4.4-14.6-7.2-20.8l26.5-15.7c3.6,2,7.7,3.7,12.398,5.5c4.5,1.8,9.2,3.5,13.802,5.5c4.698,2,9.198,4,13.6,6.3
	c4.4,2.302,8.4,4.802,11.9,7.602c3.398,2.8,6.198,6.198,8.3,10c2.2,3.698,3.1,8,3.1,12.898c0,5.2-1,9.302-2.898,12.5
	c-2,3.102-4.5,5.9-7.7,8.102l40.7,41.198L902.5,1966.8L902.5,1966.8z M882.7,1904.8c0-3.3-1.3-6.2-3.7-8.398
	c-2.5-2.302-5.3-4.102-8.2-5.602c-3.5-1.7-7.5-3-11.898-4c0.8,2.102,1.6,4,2.3,6s1.398,4,2.1,6.102c0.7,2.1,1.4,4.3,2,6.8
	c0.7,2.5,1.4,5.1,2,8c1.7,0.1,3.4,0.1,5.2,0c1.8-0.102,3.4-0.5,5-1c1.6-0.602,2.8-1.5,3.8-2.7C882.2,1908.6,882.7,1907,882.7,1904.8
	z"/>
<path d="M771.7,1136.7v345c0,92.2-24.4,160-73,203.2c-48.602,43.198-113,65.398-193,66.198c-81.8,0.802-147.4-19-196.8-59.6
	c-49.4-40.8-74.102-93-74.102-157c0-28.2,13.8-42.4,41.2-42.8c29.2-0.2,43.8,10.398,43.8,32c0,47.398,16.602,84.6,49.602,111.6
	s77.6,40.4,133.6,39.8c58.4-0.6,103.6-16.8,135.4-48.8c32-31.8,48-79.8,48-143.8v-405.9c-55.602-29.399-118.802-46-186-46
	c-220.602,0-400,179.4-400,400c0,220.601,179.4,400,400,400c220.6,0,400-179.399,400-400C900.5,1314.5,850.9,1209.9,771.7,1136.7z"
	/>
<path d="M771.7,1136.7v345c0,92.2-24.4,160-73,203.2c-48.602,43.198-113,65.398-193,66.198c-81.8,0.802-147.4-19-196.8-59.6
	c-49.4-40.8-74.102-93-74.102-157c0-28.2,13.8-42.4,41.2-42.8c29.2-0.2,43.8,10.398,43.8,32c0,47.398,16.602,84.6,49.602,111.6
	s77.6,40.4,133.6,39.8c58.4-0.6,103.6-16.8,135.4-48.8c32-31.8,48-79.8,48-143.8v-405.9c-55.602-29.399-118.802-46-186-46
	c-220.602,0-400,179.4-400,400c0,220.601,179.4,400,400,400c220.6,0,400-179.399,400-400C900.5,1314.5,850.9,1209.9,771.7,1136.7z"
	/>
<polygon id="star" display="none" points="198.5,1368.3 308.7,1263.3 282.5,1114.9 418.7,1184.7 554.9,1114.5 529.1,1262.7 
	639.3,1367.7 487.1,1389.5 419.1,1524.5 350.9,1389.7 "/>
<polygon display="none" points="198.5,1368.3 308.7,1263.3 282.5,1114.9 418.7,1184.7 554.9,1114.5 529.1,1262.7 639.3,1367.7 
	487.1,1389.5 419.1,1524.5 350.9,1389.7 "/>
</svg>
