<svg id="junglestar" onclick="javascript:location.href='http://revealing.junglestar.org'"
	 xmlns="http://www.w3.org/2000/svg"
	 viewBox="0.5 1000.5 1000 1000" >
<path d="M125.199,1853.25c4.2,9.9,8,19.5,11.5,28.9c1.5,3.899,2.8,8,4.1,12.299c1.4,4.201,2.5,8.301,3.6,12.5
	c1.1,4,2,7.899,2.6,11.701c0.7,3.698,1,7,1,9.799c0,5.801-1.3,10.5-3.9,14.301c-2.6,3.699-5.9,6.801-9.7,8.9
	c-3.9,2.198-8.1,3.698-12.8,4.6c-4.7,0.9-9,1.4-13,1.4c-3.5,0-7.4-0.601-11.3-1.699c-3.9-1.103-8-3-12.3-5.801
	c-4.2-2.699-8.5-6.4-12.8-11c-4.3-4.601-8.5-10.199-12.6-17l28.8-10.302c5.2,8.302,10,14.5,14.4,18.601
	c4.4,4.102,9.2,6.201,14.4,6.201c1,0,1.4-1.302,1.1-3.802s-1-5.899-2-10c-1.1-4.1-2.5-8.698-4.1-13.799
	c-1.7-5.102-3.4-10.301-5.3-15.602c-1.9-5.299-3.7-10.398-5.6-15.199s-3.4-9-4.7-12.5L125.199,1853.25L125.199,1853.25z
	 M235.699,1849.551c1.5,5.101,2.7,10.601,3.8,16.601c0.9,5.198,1.7,11.198,2.4,17.899c0.7,6.799,0.9,14.101,0.7,21.898
	c-0.2,7.102-1.1,13.899-2.5,20.5c-1.4,6.602-3.8,12.399-7.1,17.399c-3.3,5-7.5,8.9-12.8,11.9c-5.3,2.9-12,4.199-20,3.9
	c-8.1-0.302-15.1-2-21.1-4.9s-11-6.9-15-11.801c-4-4.898-7.4-10.5-9.8-16.898c-2.5-6.399-4.4-13-5.8-20.102
	c-1.4-7.101-2.2-14.299-2.5-21.699c-0.3-7.5-0.3-14.6-0.1-21.6l35.2-1.201c0,14.399,0.6,26.102,1.8,35.102
	c1.2,9,2.5,16.101,4.2,21.101c1.7,5,3.4,8.5,5.4,10.399c2,1.898,3.7,2.699,5.4,2.699c3.3,0.1,5.7-2.1,7.1-6.4
	c1.4-4.399,2.3-11,2.5-19.799c0.2-5.5-0.1-11.102-0.9-16.801c-0.8-5.6-1.6-10.801-2.5-15.4c-1.1-5.399-2.4-10.6-3.6-15.5
	L235.699,1849.551z M342.999,1957.449h-32.5l-30.9-36.199l1.4,36.199h-30.9c-0.3-12.5-0.8-24.5-1.4-36c-0.2-4.799-0.5-9.799-0.9-15
	c-0.3-5.199-0.7-10.199-1.1-15c-0.4-4.799-0.9-9.398-1.4-13.699s-1-8-1.6-11.199l27-4.701l39.2,52.4c-0.698-6-1.398-12.1-2.198-18.4
	c-0.7-5.399-1.5-11.5-2.4-18c-0.9-6.698-1.9-13.198-2.8-19.899l34.2-4.898c0.8,5.5,1.5,11.299,2,17.299c0.6,6,1,11.9,1.398,17.802
	c0.4,5.899,0.7,11.801,1,17.5c0.3,5.801,0.5,11.198,0.8,16.399C342.599,1933.85,342.799,1945.75,342.999,1957.449z M441.099,1888.25
	v77.199l-33,12.602v-19.102c-2.5,0-5.7-0.199-9.8-0.699s-8.5-1.301-13.2-2.6c-4.7-1.302-9.5-3.101-14.3-5.601s-9.2-5.602-13-9.602
	c-3.9-4-7.1-8.898-9.6-14.699s-3.7-12.699-3.7-20.9c0-8.198,1.6-15.6,4.8-22.198c3.2-6.6,7.5-12.199,12.8-16.699
	s11.4-7.801,18.102-10c6.8-2.201,13.6-3,20.698-2.5c7,0.5,13.802,2.5,20.5,6.1c6.7,3.5,12.602,8.699,17.802,15.601l-32.802,14.5
	c-1.198-2.199-2.698-4.101-4.698-5.9c-1.602-1.6-3.5-2.9-5.9-4.199c-2.4-1.301-5.1-1.899-8.1-1.899c-3.102,0-5.5,0.801-7.2,2.399
	c-1.7,1.6-2.8,3.4-3.602,5.5c-0.8,2.101-1.198,4.199-1.398,6.4c-0.102,2.199-0.2,3.699-0.2,4.699c0,11.301,2.7,20.301,8.2,27.1
	c5.5,6.801,13.7,10.801,24.6,12.199v-18.299h-16.5l8.3-14.302L441.099,1888.25z M477.799,1857.35c1.6,10.9,2.7,21,3.6,30.302
	c0.9,9.299,1.5,17.399,2,24.399c0.5,8.101,0.802,15.601,1,22.5l39-1l14.7,24l-66.398,4.699l-23.5-16.199
	c1.1-14.102,1.198-28.899,0.198-44.701c-1-15.698-2.5-31.198-4.3-46.399c4.7,0.5,9.2,0.899,13.5,1.201
	c3.602,0.299,7.4,0.6,11.2,0.899C472.398,1857.15,475.398,1857.35,477.799,1857.35z M602.599,1932.449l-6.2,25l-10.898-0.898
	c-3.2-0.201-6.9-0.399-11-0.602c-4.102-0.199-8.2-0.299-12.4-0.299c-2.2,0-4.898,0.1-8.2,0.299c-3.398,0.201-6.8,0.399-10.1,0.602
	c-3.9,0.299-7.9,0.601-12.2,0.898c0-14.601-1.2-29.5-3.6-44.601c-2.5-15.1-6.8-29.5-12.8-43.198l23.3-16.802l62,11.5l-20.7,17.9
	l-26.9-2.1c0.5,1.1,0.9,2.5,1.4,4c0.8,2.698,1.8,7,3,12.6H590l-8.102,18.699h-21.899c0.2,2.301,0.5,4.602,0.7,7
	c0.198,2.399,0.398,5,0.5,7.701L602.599,1932.449z M606.599,1918.85c3.602,2.701,7.4,5.101,11,7.101
	c3.102,1.801,6.4,3.399,9.7,4.899c3.4,1.5,6.5,2.201,9.2,2.201c2.2,0,3.7-0.602,4.7-1.701c1.1-1.1,1.6-2.198,1.6-3.198
	s-0.8-2.201-2.4-3.101c-1.6-0.899-3.6-2.102-6.398-3.301c-2.602-1.301-5.8-2.801-9.2-4.6c-3.5-1.802-7.2-3.9-11.1-6.701
	c-3.2-2.101-5.802-4-7.602-6c-1.898-2-3.3-4-4.398-6.101c-1.102-2.1-1.802-4.299-2.102-6.698c-0.3-2.4-0.5-5-0.5-7.699
	c0-3.5,0.8-7,2.4-10.5c1.6-3.5,3.8-6.701,7-9.4c3-2.801,6.898-5.1,11.398-6.899c4.5-1.801,9.802-2.601,15.7-2.601
	c5.5,0,10.5,0.9,15.2,2.5c4.7,1.699,8.8,3.5,12.4,5.4c4.1,2.397,7.8,5,11.398,7.897l-12.5,21.302c-3.1-1.802-6.2-3.4-9.2-4.9
	c-2.5-1.299-5.3-2.4-8-3.4c-2.8-1.1-5.3-1.6-7.5-1.6c-2.3,0-3.8,0.5-4.898,1.6c-1.102,1.103-1.602,2.201-1.602,3.103
	c0,2.299,1.7,4.397,4.9,6.5c3.2,2.1,7.8,4.397,13.7,7c8,3.299,14,7.5,18,12.397c4,4.802,6,10.802,6,17.701
	c0,5.101-0.9,9.4-2.601,12.9c-1.699,3.5-4.301,6.397-7.5,8.6c-3.199,2.199-7.101,3.799-11.601,4.799s-9.399,1.603-14.7,1.603
	c-4.898,0-9.5-0.603-13.898-1.701c-4.4-1.1-8.5-2.5-12.4-4.1c-3.8-1.699-7.3-3.4-10.3-5.302c-3-2-5.7-3.6-7.9-5.198L606.599,1918.85
	z M756.299,1881.449l-33.3,7c0,2.399,0.1,5.102,0.398,8.201c0.302,3.1,0.7,6.399,1.2,9.899s1,7.101,1.602,10.799
	c0.6,3.701,1.198,7.4,1.898,10.802c1.5,8.198,3.102,16.799,5,25.5l-31.898,6.399c-1.9-6.801-3.5-13.899-4.9-21.602
	c-1.4-7.601-2.5-14.699-3.6-21.299c-1.2-7.601-2.302-15.101-3.102-22.5l-29.2,4.899l2-24.5l94-19.399L756.299,1881.449
	L756.299,1881.449z M805.898,1967.051c-0.6-2.102-1.198-4.399-2-7.102c-0.698-2.299-1.5-5-2.398-8.199
	c-0.9-3.199-1.9-6.801-3-10.699l-20.7,2.799c-0.9,2.9-1.8,5.601-2.5,7.9c-0.9,2.4-1.6,4.1-2.1,5.4h-28.802
	c4.102-10.4,7.7-20.5,10.9-30.4c3.1-9.9,5.7-19.1,7.7-27.5c2.1-8.4,3.6-15.9,4.6-22.4s1.5-11.6,1.5-15.299l24.2-10.301
	c5.9,11.301,11.6,22.9,17,35.1c2.4,5.201,4.7,10.802,7.2,16.802s4.8,12.1,7.2,18.399c2.398,6.299,4.5,12.699,6.6,19.299
	c2.1,6.603,3.8,13.101,5.4,19.701L805.898,1967.051L805.898,1967.051z M792.799,1922.85c-0.9-2.399-1.8-4.6-2.6-6.899l-2.602-6.5
	c-0.3,1.399-0.7,2.801-1.2,4.399c-0.3,1.4-0.698,2.9-1.198,4.701c-0.5,1.799-1,3.699-1.5,5.799L792.799,1922.85L792.799,1922.85z
	 M901.799,1959.15l-31.2-32.4c0.5,2.699,0.9,5.5,1.3,8.301c0.4,2.799,0.7,5.5,0.9,7.799c0.3,2.802,0.6,5.5,0.7,7.9l-33.102,8.801
	c-1.1-8.301-2.3-16.899-3.398-25.701c-1.102-8.799-2.5-17.397-4-25.799c-1.5-8.4-3.2-16.399-5.3-24c-2-7.6-4.4-14.6-7.2-20.801
	l26.5-15.699c3.6,2,7.7,3.699,12.398,5.5c4.5,1.799,9.2,3.5,13.802,5.5c4.698,2,9.198,4,13.6,6.299c4.4,2.302,8.4,4.802,11.9,7.603
	c3.398,2.799,6.198,6.199,8.3,10c2.2,3.699,3.1,8,3.1,12.897c0,5.201-1,9.302-2.898,12.5c-2,3.103-4.5,5.9-7.7,8.103l40.7,41.199
	L901.799,1959.15L901.799,1959.15z M881.999,1897.15c0-3.302-1.3-6.201-3.7-8.4c-2.5-2.301-5.3-4.1-8.2-5.6
	c-3.5-1.701-7.5-3-11.898-4c0.8,2.1,1.6,4,2.3,6s1.398,4,2.1,6.1s1.4,4.301,2,6.801c0.7,2.5,1.4,5.101,2,8
	c1.7,0.101,3.4,0.101,5.2,0c1.8-0.102,3.4-0.5,5-1c1.6-0.602,2.8-1.5,3.8-2.701C881.499,1900.949,881.999,1899.35,881.999,1897.15z"
	/>
<path d="M125.199,1853.25c4.2,9.9,8,19.5,11.5,28.9c1.5,3.899,2.8,8,4.1,12.299c1.4,4.201,2.5,8.301,3.6,12.5
	c1.1,4,2,7.899,2.6,11.701c0.7,3.698,1,7,1,9.799c0,5.801-1.3,10.5-3.9,14.301c-2.6,3.699-5.9,6.801-9.7,8.9
	c-3.9,2.198-8.1,3.698-12.8,4.6c-4.7,0.9-9,1.4-13,1.4c-3.5,0-7.4-0.601-11.3-1.699c-3.9-1.103-8-3-12.3-5.801
	c-4.2-2.699-8.5-6.4-12.8-11c-4.3-4.601-8.5-10.199-12.6-17l28.8-10.302c5.2,8.302,10,14.5,14.4,18.601
	c4.4,4.102,9.2,6.201,14.4,6.201c1,0,1.4-1.302,1.1-3.802s-1-5.899-2-10c-1.1-4.1-2.5-8.698-4.1-13.799
	c-1.7-5.102-3.4-10.301-5.3-15.602c-1.9-5.299-3.7-10.398-5.6-15.199s-3.4-9-4.7-12.5L125.199,1853.25L125.199,1853.25z
	 M235.699,1849.551c1.5,5.101,2.7,10.601,3.8,16.601c0.9,5.198,1.7,11.198,2.4,17.899c0.7,6.799,0.9,14.101,0.7,21.898
	c-0.2,7.102-1.1,13.899-2.5,20.5c-1.4,6.602-3.8,12.399-7.1,17.399c-3.3,5-7.5,8.9-12.8,11.9c-5.3,2.9-12,4.199-20,3.9
	c-8.1-0.302-15.1-2-21.1-4.9s-11-6.9-15-11.801c-4-4.898-7.4-10.5-9.8-16.898c-2.5-6.399-4.4-13-5.8-20.102
	c-1.4-7.101-2.2-14.299-2.5-21.699c-0.3-7.5-0.3-14.6-0.1-21.6l35.2-1.201c0,14.399,0.6,26.102,1.8,35.102
	c1.2,9,2.5,16.101,4.2,21.101c1.7,5,3.4,8.5,5.4,10.399c2,1.898,3.7,2.699,5.4,2.699c3.3,0.1,5.7-2.1,7.1-6.4
	c1.4-4.399,2.3-11,2.5-19.799c0.2-5.5-0.1-11.102-0.9-16.801c-0.8-5.6-1.6-10.801-2.5-15.4c-1.1-5.399-2.4-10.6-3.6-15.5
	L235.699,1849.551z M342.999,1957.449h-32.5l-30.9-36.199l1.4,36.199h-30.9c-0.3-12.5-0.8-24.5-1.4-36c-0.2-4.799-0.5-9.799-0.9-15
	c-0.3-5.199-0.7-10.199-1.1-15c-0.4-4.799-0.9-9.398-1.4-13.699s-1-8-1.6-11.199l27-4.701l39.2,52.4c-0.698-6-1.398-12.1-2.198-18.4
	c-0.7-5.399-1.5-11.5-2.4-18c-0.9-6.698-1.9-13.198-2.8-19.899l34.2-4.898c0.8,5.5,1.5,11.299,2,17.299c0.6,6,1,11.9,1.398,17.802
	c0.4,5.899,0.7,11.801,1,17.5c0.3,5.801,0.5,11.198,0.8,16.399C342.599,1933.85,342.799,1945.75,342.999,1957.449z M441.099,1888.25
	v77.199l-33,12.602v-19.102c-2.5,0-5.7-0.199-9.8-0.699s-8.5-1.301-13.2-2.6c-4.7-1.302-9.5-3.101-14.3-5.601s-9.2-5.602-13-9.602
	c-3.9-4-7.1-8.898-9.6-14.699s-3.7-12.699-3.7-20.9c0-8.198,1.6-15.6,4.8-22.198c3.2-6.6,7.5-12.199,12.8-16.699
	s11.4-7.801,18.102-10c6.8-2.201,13.6-3,20.698-2.5c7,0.5,13.802,2.5,20.5,6.1c6.7,3.5,12.602,8.699,17.802,15.601l-32.802,14.5
	c-1.198-2.199-2.698-4.101-4.698-5.9c-1.602-1.6-3.5-2.9-5.9-4.199c-2.4-1.301-5.1-1.899-8.1-1.899c-3.102,0-5.5,0.801-7.2,2.399
	c-1.7,1.6-2.8,3.4-3.602,5.5c-0.8,2.101-1.198,4.199-1.398,6.4c-0.102,2.199-0.2,3.699-0.2,4.699c0,11.301,2.7,20.301,8.2,27.1
	c5.5,6.801,13.7,10.801,24.6,12.199v-18.299h-16.5l8.3-14.302L441.099,1888.25z M477.799,1857.35c1.6,10.9,2.7,21,3.6,30.302
	c0.9,9.299,1.5,17.399,2,24.399c0.5,8.101,0.802,15.601,1,22.5l39-1l14.7,24l-66.398,4.699l-23.5-16.199
	c1.1-14.102,1.198-28.899,0.198-44.701c-1-15.698-2.5-31.198-4.3-46.399c4.7,0.5,9.2,0.899,13.5,1.201
	c3.602,0.299,7.4,0.6,11.2,0.899C472.398,1857.15,475.398,1857.35,477.799,1857.35z M602.599,1932.449l-6.2,25l-10.898-0.898
	c-3.2-0.201-6.9-0.399-11-0.602c-4.102-0.199-8.2-0.299-12.4-0.299c-2.2,0-4.898,0.1-8.2,0.299c-3.398,0.201-6.8,0.399-10.1,0.602
	c-3.9,0.299-7.9,0.601-12.2,0.898c0-14.601-1.2-29.5-3.6-44.601c-2.5-15.1-6.8-29.5-12.8-43.198l23.3-16.802l62,11.5l-20.7,17.9
	l-26.9-2.1c0.5,1.1,0.9,2.5,1.4,4c0.8,2.698,1.8,7,3,12.6H590l-8.102,18.699h-21.899c0.2,2.301,0.5,4.602,0.7,7
	c0.198,2.399,0.398,5,0.5,7.701L602.599,1932.449z M606.599,1918.85c3.602,2.701,7.4,5.101,11,7.101
	c3.102,1.801,6.4,3.399,9.7,4.899c3.4,1.5,6.5,2.201,9.2,2.201c2.2,0,3.7-0.602,4.7-1.701c1.1-1.1,1.6-2.198,1.6-3.198
	s-0.8-2.201-2.4-3.101c-1.6-0.899-3.6-2.102-6.398-3.301c-2.602-1.301-5.8-2.801-9.2-4.6c-3.5-1.802-7.2-3.9-11.1-6.701
	c-3.2-2.101-5.802-4-7.602-6c-1.898-2-3.3-4-4.398-6.101c-1.102-2.1-1.802-4.299-2.102-6.698c-0.3-2.4-0.5-5-0.5-7.699
	c0-3.5,0.8-7,2.4-10.5c1.6-3.5,3.8-6.701,7-9.4c3-2.801,6.898-5.1,11.398-6.899c4.5-1.801,9.802-2.601,15.7-2.601
	c5.5,0,10.5,0.9,15.2,2.5c4.7,1.699,8.8,3.5,12.4,5.4c4.1,2.397,7.8,5,11.398,7.897l-12.5,21.302c-3.1-1.802-6.2-3.4-9.2-4.9
	c-2.5-1.299-5.3-2.4-8-3.4c-2.8-1.1-5.3-1.6-7.5-1.6c-2.3,0-3.8,0.5-4.898,1.6c-1.102,1.103-1.602,2.201-1.602,3.103
	c0,2.299,1.7,4.397,4.9,6.5c3.2,2.1,7.8,4.397,13.7,7c8,3.299,14,7.5,18,12.397c4,4.802,6,10.802,6,17.701
	c0,5.101-0.9,9.4-2.601,12.9c-1.699,3.5-4.301,6.397-7.5,8.6c-3.199,2.199-7.101,3.799-11.601,4.799s-9.399,1.603-14.7,1.603
	c-4.898,0-9.5-0.603-13.898-1.701c-4.4-1.1-8.5-2.5-12.4-4.1c-3.8-1.699-7.3-3.4-10.3-5.302c-3-2-5.7-3.6-7.9-5.198L606.599,1918.85
	z M756.299,1881.449l-33.3,7c0,2.399,0.1,5.102,0.398,8.201c0.302,3.1,0.7,6.399,1.2,9.899s1,7.101,1.602,10.799
	c0.6,3.701,1.198,7.4,1.898,10.802c1.5,8.198,3.102,16.799,5,25.5l-31.898,6.399c-1.9-6.801-3.5-13.899-4.9-21.602
	c-1.4-7.601-2.5-14.699-3.6-21.299c-1.2-7.601-2.302-15.101-3.102-22.5l-29.2,4.899l2-24.5l94-19.399L756.299,1881.449
	L756.299,1881.449z M805.898,1967.051c-0.6-2.102-1.198-4.399-2-7.102c-0.698-2.299-1.5-5-2.398-8.199
	c-0.9-3.199-1.9-6.801-3-10.699l-20.7,2.799c-0.9,2.9-1.8,5.601-2.5,7.9c-0.9,2.4-1.6,4.1-2.1,5.4h-28.802
	c4.102-10.4,7.7-20.5,10.9-30.4c3.1-9.9,5.7-19.1,7.7-27.5c2.1-8.4,3.6-15.9,4.6-22.4s1.5-11.6,1.5-15.299l24.2-10.301
	c5.9,11.301,11.6,22.9,17,35.1c2.4,5.201,4.7,10.802,7.2,16.802s4.8,12.1,7.2,18.399c2.398,6.299,4.5,12.699,6.6,19.299
	c2.1,6.603,3.8,13.101,5.4,19.701L805.898,1967.051L805.898,1967.051z M792.799,1922.85c-0.9-2.399-1.8-4.6-2.6-6.899l-2.602-6.5
	c-0.3,1.399-0.7,2.801-1.2,4.399c-0.3,1.4-0.698,2.9-1.198,4.701c-0.5,1.799-1,3.699-1.5,5.799L792.799,1922.85L792.799,1922.85z
	 M901.799,1959.15l-31.2-32.4c0.5,2.699,0.9,5.5,1.3,8.301c0.4,2.799,0.7,5.5,0.9,7.799c0.3,2.802,0.6,5.5,0.7,7.9l-33.102,8.801
	c-1.1-8.301-2.3-16.899-3.398-25.701c-1.102-8.799-2.5-17.397-4-25.799c-1.5-8.4-3.2-16.399-5.3-24c-2-7.6-4.4-14.6-7.2-20.801
	l26.5-15.699c3.6,2,7.7,3.699,12.398,5.5c4.5,1.799,9.2,3.5,13.802,5.5c4.698,2,9.198,4,13.6,6.299c4.4,2.302,8.4,4.802,11.9,7.603
	c3.398,2.799,6.198,6.199,8.3,10c2.2,3.699,3.1,8,3.1,12.897c0,5.201-1,9.302-2.898,12.5c-2,3.103-4.5,5.9-7.7,8.103l40.7,41.199
	L901.799,1959.15L901.799,1959.15z M881.999,1897.15c0-3.302-1.3-6.201-3.7-8.4c-2.5-2.301-5.3-4.1-8.2-5.6
	c-3.5-1.701-7.5-3-11.898-4c0.8,2.1,1.6,4,2.3,6s1.398,4,2.1,6.1s1.4,4.301,2,6.801c0.7,2.5,1.4,5.101,2,8
	c1.7,0.101,3.4,0.101,5.2,0c1.8-0.102,3.4-0.5,5-1c1.6-0.602,2.8-1.5,3.8-2.701C881.499,1900.949,881.999,1899.35,881.999,1897.15z"
	/>
<path d="M770.999,1129.051v345c0,92.199-24.4,160-73,203.199c-48.602,43.199-113,65.4-193,66.199c-81.8,0.801-147.4-19-196.8-59.601
	c-49.4-40.799-74.102-93-74.102-157c0-28.198,13.8-42.399,41.2-42.799c29.2-0.201,43.8,10.398,43.8,32
	c0,47.398,16.602,84.601,49.602,111.601s77.6,40.399,133.6,39.799c58.4-0.601,103.6-16.799,135.4-48.799
	c32-31.802,48-79.802,48-143.802v-405.899c-55.602-29.4-118.802-46-186-46c-220.602,0-400,179.399-400,400
	c0,220.6,179.4,400,400,400c220.6,0,400-179.4,400-400C899.799,1306.85,850.199,1202.25,770.999,1129.051z"/>
<path d="M770.999,1129.051v345c0,92.199-24.4,160-73,203.199c-48.602,43.199-113,65.4-193,66.199c-81.8,0.801-147.4-19-196.8-59.601
	c-49.4-40.799-74.102-93-74.102-157c0-28.198,13.8-42.399,41.2-42.799c29.2-0.201,43.8,10.398,43.8,32
	c0,47.398,16.602,84.601,49.602,111.601s77.6,40.399,133.6,39.799c58.4-0.601,103.6-16.799,135.4-48.799
	c32-31.802,48-79.802,48-143.802v-405.899c-55.602-29.4-118.802-46-186-46c-220.602,0-400,179.399-400,400
	c0,220.6,179.4,400,400,400c220.6,0,400-179.4,400-400C899.799,1306.85,850.199,1202.25,770.999,1129.051z"/>
<polygon points="197.799,1360.65 307.999,1255.65 281.799,1107.25 417.999,1177.051 554.199,1106.85 528.398,1255.051
	638.599,1360.051 486.398,1381.85 418.398,1516.85 350.199,1382.051 "/>
<polygon points="197.799,1360.65 307.999,1255.65 281.799,1107.25 417.999,1177.051 554.199,1106.85 528.398,1255.051
	638.599,1360.051 486.398,1381.85 418.398,1516.85 350.199,1382.051 "/>
</svg>
